<svg width="85" height="90" viewBox="0 0 85 90" fill="none" xmlns="http://www.w3.org/2000/svg">
<path d="M84.0955 28.4704C83.8375 26.952 83.3739 25.5036 82.7258 24.128C82.8561 23.7599 82.8359 23.3457 82.5836 22.9489C80.0333 18.9387 76.761 15.5013 72.9015 12.7727C72.8588 12.7147 72.8128 12.6573 72.7595 12.6013C72.1927 12.0061 71.535 11.6345 70.8223 11.4257C70.645 11.3483 70.471 11.3093 70.304 11.3049C67.8725 10.8615 64.9351 12.0412 62.7744 12.705C58.8292 13.9171 54.993 15.4809 51.261 17.2373C47.6584 18.9327 44.1741 20.8684 40.7971 22.9795C36.5362 17.0076 31.8763 11.3103 26.6916 5.99295C26.3713 5.66447 26.0085 5.53338 25.6582 5.54031C25.2816 4.95573 24.9051 4.37115 24.5284 3.78656C24.6044 3.3453 24.5135 2.8675 24.1865 2.47822C24 2.25613 23.8134 2.03404 23.6269 1.81195C23.7633 0.663313 22.631 -0.564724 21.4532 0.280243C14.4543 5.30114 8.19705 11.2335 2.87329 18.008C2.23346 18.8223 2.32763 19.7617 3.17894 20.3799C9.93602 25.2866 15.9295 31.2384 21.6421 37.4177C17.4812 41.041 13.4557 44.8202 9.49271 48.6617C7.88367 50.2214 6.28627 51.7932 4.69124 53.3672C3.2484 54.7909 1.53819 56.1604 0.532912 57.9459C-0.459827 59.7091 0.169235 61.8614 0.543972 63.6993L2.09513 71.3076C2.31421 72.3821 3.48348 72.589 4.30949 72.1725C4.51589 72.291 4.76689 72.3613 5.06376 72.3606C8.83422 72.3528 12.6047 72.3449 16.3751 72.3371C17.6496 72.3344 18.6943 72.0427 19.6026 71.1185C20.6916 70.0106 21.4611 68.4741 22.4214 67.247C26.3217 62.2627 31.1926 58.0985 36.6526 54.9146C36.7585 54.8529 36.8515 54.7845 36.9329 54.7111C41.5085 60.297 45.7157 66.1764 49.0908 72.5474C49.141 72.7671 49.2501 72.9853 49.4258 73.1905C50.2974 74.8724 51.1177 76.5843 51.8637 78.3386C52.3523 79.4875 53.5716 79.2534 54.2213 78.4992C56.3249 80.8385 58.4613 83.1528 60.7497 85.2571C62.3445 86.7236 64.2401 87.1897 66.3348 87.3947C67.855 87.5435 70.2226 87.2746 71.1225 88.7957C71.9671 90.2234 74.5635 89.2471 73.8826 87.632C73.813 87.4669 73.7431 87.3015 73.6735 87.1363C73.6959 87.1381 73.7144 87.1374 73.7375 87.1396C74.5113 87.2144 75.3102 86.3948 75.2477 85.6295C74.9801 82.3523 73.8894 79.3039 72.831 76.2157C71.619 72.6793 70.388 69.1495 69.15 65.6221C66.6877 58.6062 64.1957 51.6007 61.7132 44.592C61.7025 44.5619 61.6897 44.5345 61.6778 44.5059C62.5487 43.9898 63.3664 43.3535 64.0572 42.9296C66.1288 41.6584 68.2494 40.4685 70.3969 39.3311C72.3796 38.2811 74.4001 37.3037 76.4403 36.3714C78.5045 35.4281 80.9617 34.8065 82.8387 33.5327C84.515 32.3951 84.3952 30.233 84.0955 28.4704ZM21.5452 63.5802C20.597 64.6774 19.7103 65.8287 18.8508 66.9961C18.4589 67.5283 18.0855 68.0739 17.715 68.6211C17.1763 69.4166 16.6787 69.3161 15.7798 69.318C13.1528 69.3235 10.5259 69.3289 7.89885 69.3344C16.1547 62.7538 24.6819 56.4739 33.4961 50.6377C33.9989 51.2175 34.4975 51.8012 34.9941 52.3867C29.9289 55.36 25.386 59.1358 21.5452 63.5802ZM63.7296 83.7208C62.7015 83.1978 61.9068 82.1667 61.135 81.3381C60.0768 80.2019 59.0185 79.0658 57.9601 77.9296C55.947 75.7684 53.9339 73.6072 51.9209 71.446C48.1452 64.2125 43.2918 57.6065 38.0457 51.3411C37.8559 51.2812 37.6742 51.1873 37.5119 51.0542C36.3368 50.0899 35.5855 48.857 34.9074 47.5191C34.7906 47.4844 34.6771 47.4337 34.5707 47.3639C34.4546 47.2877 34.3472 47.2111 34.2449 47.1324C33.7466 47.1112 33.263 47.1754 32.8206 47.4243C32.6746 47.5065 32.5376 47.5986 32.397 47.6868C32.0998 47.9226 31.795 48.1452 31.4726 48.3362C31.4839 48.3489 31.4952 48.3617 31.5065 48.3744C31.2769 48.5268 31.0497 48.6831 30.8203 48.8361C30.5394 49.0673 30.2607 49.3028 29.9827 49.544C29.7422 49.7527 29.4834 49.8652 29.2252 49.9092C20.7422 55.6414 12.5158 61.7676 4.53388 68.1814C4.29401 67.005 4.05421 65.8286 3.81434 64.6522C3.42603 62.7474 2.34053 60.2401 3.74783 58.5769C6.33914 55.5146 9.55052 52.8064 12.4334 50.0179C16.1 46.4714 19.8299 42.9875 23.6755 39.6369C23.6818 39.6438 23.688 39.6508 23.6943 39.6577C23.9926 39.2194 24.2825 38.7769 24.5627 38.3295C24.6074 37.5462 24.4678 36.7411 24.2456 35.9382C24.2082 35.8929 24.1708 35.8476 24.1374 35.798C24.1682 35.8438 23.8077 35.3738 23.9205 35.4995C23.8527 35.4239 23.7951 35.3463 23.7453 35.2676C18.2468 29.3502 12.4912 23.6512 6.08371 18.8041C10.5323 13.3572 15.5978 8.44377 21.2042 4.19916C22.3199 5.93109 23.4357 7.66298 24.5514 9.39491C24.999 10.0897 25.7302 10.2127 26.3407 9.99949C30.5651 14.5091 34.4298 19.2815 38.0091 24.253C38.9545 25.3227 39.5976 26.1913 41.1836 25.8488C41.6684 25.7442 42.1362 25.5947 42.5965 25.425C45.0035 23.9367 47.4638 22.5353 49.9766 21.2338C53.4141 19.4533 56.966 17.9102 60.61 16.6049C62.4101 15.9601 64.2385 15.3968 66.0807 14.8854C67.0287 14.6223 68.5313 14.0295 69.6703 14.2447C73.3242 16.5344 76.4644 19.4846 78.9625 22.9763C78.9601 22.993 78.9569 23.0095 78.9552 23.0264C69.0793 27.0184 59.5261 31.6795 50.2718 36.8767L48.3201 38.4381C48.3102 38.8649 48.2429 39.2867 48.1832 39.7088C48.2109 39.5128 48.1923 39.6843 48.1755 39.8447C48.1763 39.8475 48.1778 39.8498 48.1786 39.8525C48.211 39.9206 48.244 39.9884 48.276 40.0567C48.3661 40.189 48.4404 40.3439 48.4929 40.5239C48.4953 40.5322 48.4983 40.5402 48.5007 40.5484C48.5922 40.7527 48.6789 40.9589 48.7654 41.1652C48.7703 41.1624 48.7752 41.1594 48.78 41.1566C56.7085 55.1161 63.1788 70.0011 69.4111 84.7422C67.522 84.4927 65.4619 84.6022 63.7296 83.7208ZM65.8462 65.3112C67.0215 68.6521 68.1881 71.996 69.3428 75.3441C70.1403 77.6563 71.0801 80.0068 71.6778 82.4131C65.9191 68.8221 59.9358 55.1539 52.7976 42.2015C54.5719 43.2671 56.3763 44.5707 58.3286 45.2281C58.4785 45.2786 58.6299 45.3095 58.7816 45.3312C58.7883 45.3526 58.7931 45.3733 58.8008 45.3949C61.1519 52.0327 63.5093 58.6684 65.8462 65.3112ZM79.3972 31.8364C76.1566 33.1486 72.9805 34.6146 69.8676 36.2054C66.8709 37.7369 63.9536 39.4209 61.103 41.2086C60.5523 41.554 59.8109 42.234 59.1436 42.316C58.5625 42.3874 57.3795 41.3757 56.9014 41.0961C56.4465 40.8302 53.7429 39.5597 52.9034 38.823C61.7117 33.9342 70.791 29.5434 80.1555 25.7763C80.504 26.5723 80.7821 27.3954 80.9937 28.266C81.1571 28.9389 81.2327 29.6212 81.27 30.3109C81.3259 31.3472 80.1669 31.5248 79.3972 31.8364Z" fill="black"/>
</svg>
