<svg width="67" height="85" viewBox="0 0 67 85" fill="none" xmlns="http://www.w3.org/2000/svg">
<path d="M62.964 26.0739C62.8469 26.0007 62.7268 25.9321 62.6086 25.8606C57.5178 18.5198 52.7057 10.9922 48.181 3.28966C48.1877 2.9327 48.2 2.57596 48.2055 2.21895C48.2202 1.2772 47.3844 0.394885 46.4239 0.431714C45.7134 -0.239274 44.6651 -0.0654722 44.0144 0.524223C33.2924 0.954668 22.5654 1.24546 11.8355 1.38385C11.241 1.39151 10.801 1.6363 10.5132 1.99342C9.70488 1.84946 8.86175 2.20507 8.6694 3.25497C4.32223 26.9825 1.42263 50.9648 0.00263598 75.0455C-0.0555744 76.032 0.859991 76.8158 1.78996 76.8329C20.9105 77.1847 39.9179 79.6902 58.4759 84.3074C59.3428 84.523 60.5142 84.038 60.6745 83.059C62.8521 69.7669 64.487 56.3911 65.5639 42.9649C65.8252 39.7068 66.0458 36.4455 66.24 33.1827C66.432 29.9563 65.7808 27.8359 62.964 26.0739ZM47.9864 9.93422C50.676 14.3512 53.4602 18.7095 56.3397 23.0052C53.4355 22.0562 50.3901 21.51 47.3573 21.3458C47.6322 17.5453 47.8377 13.741 47.9864 9.93422ZM62.447 36.6779C62.2489 39.7066 62.0151 42.7328 61.7591 45.7571C60.7776 57.3524 59.3407 68.9059 57.5 80.3956C39.8687 76.1525 21.8152 73.7736 3.68645 73.3065C5.1068 50.3801 7.87178 27.5563 11.9818 4.95607C22.8255 4.81487 33.6663 4.51952 44.5019 4.08C44.5291 4.12671 44.5565 4.17335 44.5838 4.22004C44.5268 6.88137 44.4332 9.54123 44.3153 12.2C35.8802 11.5064 27.418 11.4312 18.9719 11.976C16.6835 12.1236 16.6691 15.6992 18.9719 15.5506C27.3587 15.0097 35.7611 15.0814 44.1374 15.7616C44.0667 17.0482 43.9897 18.3345 43.9061 19.6205C34.8393 18.7697 25.7487 19.1057 16.7509 20.5409C14.4794 20.9033 15.4469 24.3475 17.7012 23.9879C26.2884 22.6181 35.0077 22.3745 43.6607 23.1705C43.6513 24.1015 44.5621 24.8619 45.4493 24.8633C50.6337 24.8716 55.624 26.1394 60.1734 28.6011C60.4436 28.988 60.7103 29.3773 60.982 29.7632C61.3825 30.3319 61.9482 30.5609 62.504 30.5532C62.6565 30.9092 62.7361 31.3326 62.7351 31.8658C62.7321 33.4648 62.5514 35.0826 62.447 36.6779Z" fill="black"/>
<path d="M53.471 34.4357C42.2413 30.301 30.2157 28.5918 18.2783 29.4261C15.9921 29.5859 15.9765 33.1616 18.2783 33.0008C29.9374 32.1859 41.5531 33.8445 52.5207 37.8827C54.6888 38.6809 55.6152 35.2252 53.471 34.4357Z" fill="black"/>
<path d="M54.1795 42.2249C41.7091 39.3917 28.8841 38.4214 16.1324 39.4038C13.8494 39.5797 13.8323 43.1557 16.1324 42.9785C28.5743 42.0199 41.0593 42.9069 53.2292 45.6719C55.4737 46.1818 56.427 42.7356 54.1795 42.2249Z" fill="black"/>
<path d="M54.3083 55.7187C53.4931 54.532 52.1664 54.3354 50.8472 53.9382C49.0974 53.4112 47.3257 52.9585 45.5497 52.5295C41.9928 51.6704 38.392 50.9985 34.7911 50.3544C27.6249 49.0727 20.4091 47.7074 13.1331 48.8769C10.8618 49.2419 11.8291 52.6861 14.0834 52.3238C20.4537 51.2999 26.8952 52.5779 33.1651 53.6816C36.3193 54.2368 39.4661 54.8305 42.5948 55.5158C44.1573 55.858 45.7105 56.24 47.2579 56.6448C47.9208 56.8182 48.5801 57.0053 49.2392 57.1927C49.3883 57.2351 50.4304 57.5875 50.9531 57.653C51.0114 57.7622 51.0814 57.8698 51.1663 57.9746C51.1949 58.01 51.2236 58.0454 51.2522 58.0807C51.6466 58.5679 52.421 58.6861 52.9912 58.5404C53.5853 58.3885 54.0249 58.0732 54.3083 57.5229C54.5885 56.9789 54.677 56.2556 54.3083 55.7187Z" fill="black"/>
<path d="M26.9398 59.7011C22.1168 58.69 17.299 58.5773 12.4285 59.3039C10.155 59.643 11.1247 63.0871 13.3788 62.7508C17.5783 62.1243 21.8379 62.2777 25.9895 63.148C28.2385 63.6195 29.1954 60.174 26.9398 59.7011Z" fill="black"/>
</svg>
