<svg class="icon-mapIndicator" version="1.1" id="Calque_1" xmlns="http://www.w3.org/2000/svg" xmlns:xlink="http://www.w3.org/1999/xlink" width="82" height="89" viewBox="0 0 100 100" style="enable-background:new 0 0 100 125;" xml:space="preserve">
<path class="st0" d="M39.9,8.4c0,0-20.1,7.4-18.8,23S26.9,65.1,32.6,74s9.9,19,9.9,19s21.9-19.2,27.3-23.4s16.1-16.2,17.1-22.9
	S83.3,20.6,78,16.4S69.5,4.8,39.9,8.4z"></path><path class="st1" d="M53.2,20.6c-4.5,1.1-6.6,11.5-6.6,11.5s-1.2,13.5,0,15.1c1.2,1.5,6.6,4.2,9.4,3.1c2.8-1.1,12.9-8.2,12.3-11.2
	c-0.6-3-2.6-13.4-5.9-15C59.1,22.6,53.2,20.6,53.2,20.6z"></path><path d="M83.7,23.4c-2.3-4.3-5.3-8.6-8.8-12C71.4,7.9,66.9,6.9,62,6.5c-9.8-0.9-20.5-1.6-29.1,4c-0.3,0.2-0.4,0.4-0.5,0.6
	c-2.2,0.9-4.2,2.1-6,3.6c-5.3,4.6-6.6,11.7-6.6,18.4c0,7.9,1.3,15.7,3.8,23.2c2.1,6.6,5.4,12.6,8.8,18.6c3.4,6,6.8,12.1,8.7,18.8
	c0.2,0.8,1.3,1.5,2.1,0.8C48.9,88.8,54.6,83,60.9,78c5-4,10.3-7.6,15-11.9c0.5,0.3,1.1,0.2,1.5-0.4c0.4-0.7,0.8-1.5,1.2-2.2
	c0.1-0.1,0.1-0.1,0.2-0.2c4.8-5.1,8.4-11.2,9.4-18.2C89.2,37.6,87.2,30,83.7,23.4z M42.9,91.1c-2.1-6.5-5.5-12.5-8.9-18.5
	c-3.9-6.9-7.3-13.9-9.3-21.7c-1.9-7.4-2.9-15.4-2-23c0.4-3.4,1.5-6.8,3.7-9.5c2.1-2.7,5.3-4.5,8.5-5.6c5.2-1.8,10.9-1.4,16.3-0.7
	c4.9,0.6,10.2,1.4,13.9,4.8c0.3,0.2,0.6,0.3,0.8,0.3c3,3.4,6,6.7,8.5,10.4c2.4,3.6,4,7.7,4.9,12c1.5,7.5,0.6,15.5-2.8,22.4
	c-4.5,4.6-9.8,8.4-14.9,12.2C54.9,79.3,48.9,85.2,42.9,91.1z M85.6,37c0.9,6.7-0.6,13.2-4.2,18.8c1.3-5.1,1.5-10.5,0.6-15.8
	c-0.8-4.4-2.4-8.7-4.7-12.5c-2.8-4.6-6.5-8.5-10.1-12.6c-0.3-0.4-0.7-0.5-1.1-0.4c-2.4-2-5.3-3.1-8.4-3.8c-3.6-0.9-7.4-1.3-11.2-1.6
	c-1-0.1-2-0.1-3-0.1c4.2-0.8,8.6-0.7,12.8-0.4c3.6,0.2,7.4,0.3,10.8,1.3c3.7,1,6.2,3.5,8.6,6.4C80.8,22.3,84.5,29.3,85.6,37z"></path><path d="M68.4,32.6c-1.6-4.9-5.3-9.6-9.8-12.1c-2.3-1.2-4.8-2-7.4-1.7c-2.7,0.2-5.1,1.9-7.4,3.3c-0.2,0.1-0.3,0.3-0.4,0.4
	c-2.4,1.6-4.3,3.9-5.3,6.6c-2.3,6.3,0.2,13.9,4.8,18.5c5.1,5.2,12.6,5,18.7,1.6c2.7-1.5,5-3.7,6.5-6.5
	C69.8,39.6,69.5,35.9,68.4,32.6z M41.6,41.5c-3-5.9-2.3-13.9,4-17.3c1.3-0.7,2.6-1,4-1.1c-0.3,0.4-0.6,0.8-0.9,1.2
	c-1.6,2.2-2.6,4.8-3.3,7.5c-0.7,3.1-0.9,6.2-0.8,9.4c0.1,1.6,0.2,3.1,0.4,4.6c0,0.2,0,0.3,0.1,0.5C43.6,44.9,42.5,43.2,41.6,41.5z
	 M66,41.1c-1.2,3-4.1,5.1-6.9,6.5c-3.3,1.6-7.1,2.2-10.5,0.9c0.1-0.4,0-0.9-0.5-1.2c-0.7-0.5-0.6-2.5-0.6-3.3
	c-0.1-1.3-0.2-2.6-0.2-3.8c-0.1-2.5,0.1-4.9,0.6-7.3c0.4-2.1,1.2-4.2,2.3-6c0.5-0.9,1.2-1.8,1.9-2.5c0.7-0.9,1.9-2.1,3.1-2.2
	c0.2,0,0.3,0,0.4-0.1c0.3,0.1,0.6,0.2,0.9,0.4c3.6,1.6,6.2,4.6,8.1,7.9C66.4,33.6,67.5,37.5,66,41.1z"></path></svg>