<svg class="icon-house" version="1.1" id="Calque_1" xmlns="http://www.w3.org/2000/svg" xmlns:xlink="http://www.w3.org/1999/xlink" width="82" height="89" viewBox="0 0 100 100" style="enable-background:new 0 0 100 125;" xml:space="preserve"><polygon class="st0" points="32.7,60.9 31.1,64.2 29.5,84.4 29.3,87.2 34.7,89.7 43.2,91.4 44.5,85.6 46.5,66.4 45.4,63.8 "></polygon><path class="st1" d="M43.7,24.2l-6,5L24.8,44.3l-3.1,4.8l-1.3,12.6L19,80.1l1.4,3.5l8.9,3.6l0.9-13.4l1.1-11.7l1.4-1.2l8.5,1.6
	l4.7,2l0.5,5.1l-2.2,17.7l-0.6,3.3l0.7,1.4l6.6,1.1l12.3,0.6l9.4-6.6c0,0,1.1-3.9,1.1-4.2s0-27.9,0-27.9l-3.7,3.1l-8.2-12.3
	L50.4,30.6L43.7,24.2z"></path><path class="st2" d="M40.6,36.3l-1.7,2.4l-1,8.6v4.2l4,2.3l3.7,0.4l5.2,1.8l0.8-0.8l1-6.2c0,0,0.7-5.8,0.7-6.8s-1.1-4.4-1.1-4.4
	s-3.9-1.9-4.8-1.6c-0.9,0.3-6.2-0.7-6.2-0.7L40.6,36.3z"></path><path class="st3" d="M47.5,9.3l-12,7.4l-10.8,8.7l-7.9,9l-3.6,3.8l5.8,5.2l2.6,4.7l11.6-14.2l8.1-8.5l2.9-1.5l4,3.7l12.4,16.2
	l7.7,11.7l1.2,2.5l7.7-6.1l5.3-4.7l4-3.1c0,0-9.2-19.3-9.8-20c-0.6-0.8-5.5-10.7-5.5-10.7L67.6,7l-6.6-1.7l-8.1,1.3L47.5,9.3z"></path><path d="M87.4,44c-5.7-11.2-10.9-23-17.3-33.9C65.3,2,56.6,4.6,49.8,8.1c-0.2,0-0.4-0.1-0.7-0.1c-3.2,0-7.3,3.4-9.9,5
	c-3.3,2.1-6.5,4.5-9.5,7C23.1,25.6,17.5,32,12.7,39c-0.6,0.9,0.8,1.7,1.4,0.9c0,0.2,0.1,0.4,0.2,0.5c2.4,2.7,4.6,5.6,6.5,8.6
	c-1.1,11.1-2.1,22.3-3.1,33.4c0,0.3,0.2,0.6,0.4,0.7C31.9,90.4,47,94.4,62.5,94.7c0.2,0.3,0.6,0.5,1,0.2c0,0,0,0,0,0
	c0.1,0,0.1,0,0.2,0h0.8c0.7,0,1-0.8,0.7-1.3c2.4-1.7,4.9-3.3,7.1-5.2c2.4-2,2.2-3.8,2.2-6.9c0.1-8.9,0.3-17.8,0.4-26.6
	c0.9-0.8,1.8-1.7,2.7-2.5l9.5-7.4C87.6,44.8,87.5,44.3,87.4,44z M42.5,90.6c-4.2-1-8.3-2.2-12.3-3.7c0-0.1,0.1-0.2,0.1-0.3
	c0.4-5,0.9-10,1.3-14.9c0.2-2.3-0.1-5.6,0.7-7.8c0.6-1.6,1-2.1,2.8-2.1c1.2,0,2.9,0.9,4,1.2c2.5,0.8,5.9,1.1,6.6,4.2
	c0.4,2-0.5,5.3-0.7,7.3C44.5,79.9,43.6,85.3,42.5,90.6C42.6,90.6,42.6,90.6,42.5,90.6z M62.6,83.4c-0.1,2.4,0,4.9-0.3,7.3
	c-0.2,1.5,0.2,1.9-1.5,2.3c-0.8,0.2-2.1-0.1-3-0.1c-4.6-0.3-9.1-0.9-13.6-1.9c1.4-7.3,2.6-14.7,3.1-22.1c0.2-2.3,0.4-3.9-1.4-5.4
	c-1.9-1.5-5.6-1.9-7.9-2.6c-3.5-1.1-6.6-2.4-7.3,2.2c-1.2,7.6-1.4,15.5-2,23.2c-2.1-0.9-4.2-1.8-6.3-2.8c-2.8-1.4-2.8-2.9-2.5-5.8
	c0.8-9.5,1.7-18.9,2.6-28.3c3.3-5.4,7.1-10.5,11.5-15.1c2.1-2.3,4.3-4.4,6.6-6.4c3-2.6,3.4-3.5,6.2-0.3c7.5,8.3,14.1,17.4,19.8,27.1
	c-0.3,0-0.5,0.2-0.6,0.6C64.3,64.5,63.2,73.9,62.6,83.4z M72,86.6c-0.9,1.2-3.1,2.3-4.4,3.2c-1.2,0.9-2.5,1.8-3.7,2.7
	c0.3-12.2,1.5-24.3,3.6-36.4c0.5,0.9,1.1,1.9,1.6,2.8c0.3,0.5,0.9,0.5,1.3,0.2c1-0.9,1.9-1.8,2.9-2.7c-0.1,6.4-0.2,12.9-0.3,19.3
	C73,78.9,73.9,84,72,86.6z M74.4,53.1c-1.5,1.4-2.9,2.7-4.4,4.1C63.1,44.8,54.7,33.3,44.9,23c-0.3-0.4-0.8-0.3-1.2,0
	c-8.4,6.7-15.6,14.6-21.5,23.6c-0.3-0.1-0.7-0.1-1,0.1c-1.8-2.6-3.7-5.1-5.8-7.5c-0.2-0.3-0.5-0.3-0.8-0.2
	c4.5-6.4,9.7-12.2,15.6-17.3c3.2-2.8,6.7-5.3,10.3-7.6c1.5-1,3.1-1.9,4.7-2.8c3.5-1.9,6.7,0.4,8.8,3.3c5.1,7.2,10.1,14.4,15.1,21.7
	c2.5,3.7,5.5,7.4,7.5,11.4c0.9,1.7,0.7,2.6-0.1,3.5c-0.4,0.3-0.8,0.7-1.3,1c-0.2,0.1-0.3,0.3-0.3,0.5C74.8,52.8,74.6,53,74.4,53.1z
	 M82.5,46.6c-1,0.8-2,1.6-3,2.4c-5.4-8.3-10.9-16.6-16.5-24.7c-2.9-4.2-5.8-8.3-8.8-12.4c-0.7-1-1.5-2.1-2.5-2.8
	c5.6-2.8,12.5-4.9,16.6,1.3c3,4.5,5.1,9.9,7.5,14.7c2.6,5.1,5.2,10.3,7.8,15.4C85.4,43.7,85.4,44.3,82.5,46.6z"></path><path d="M34.7,74.7v0.4c0,1.1,1.7,1.1,1.7,0v-0.4C36.4,73.6,34.7,73.6,34.7,74.7z"></path><path d="M53.9,38.6c-1-0.5-3.4-1.7-5.9-2.8c-0.1-0.7-0.9-0.8-1.3-0.5c-3.4-1.2-6.6-1.6-6.9,1.3c-0.4-0.2-1-0.1-1.1,0.5
	c-0.8,3.1-1.4,6.1-1.8,9.3c-0.2,1.5-1.1,4.9-0.1,6.2c1,1.2,3.1,1.2,4.4,1.6c1.1,0.3,2.2,0.5,3.3,0.8c-0.1,0.3-0.1,0.6-0.2,0.9
	c-0.2,1.1,1.4,1.5,1.6,0.4c0.1-0.3,0.1-0.6,0.2-1c1.8,0.4,3.6,0.9,5.4,1.3c0.4,0.1,1-0.1,1-0.6c1-5.6,1.6-11.2,1.8-16.9
	C54.4,39.1,54.2,38.7,53.9,38.6z M48,37.9c2.1,0.7,4.3,1.4,4.6,3.7c0.2,1.6,0.2,3.3,0,5.1c-1.7-0.3-3.4-0.7-5-1.1
	C47.7,43.1,47.9,40.5,48,37.9z M40.3,37.7c0-0.1,0-0.1,0-0.2c0.5,0.1,1.1-0.1,1.2-0.8c0.1-1,3.5,0.1,4.8,0.6
	c-0.1,2.6-0.2,5.3-0.5,7.9c-2.3-0.6-4.7-1.3-7-2.1C39.4,41,40,38.9,40.3,37.7z M44.8,53.4c-1.8-0.3-4.2-0.6-5.3-1.4
	c-1.6-1.1-1.5-4.1-0.9-7.2c2.3,0.8,4.7,1.5,7.1,2.1C45.4,49.1,45.2,51.3,44.8,53.4z M51.1,55c-1.6-0.4-3.1-0.8-4.7-1.2
	c0.4-2.1,0.6-4.3,0.9-6.5c1.7,0.4,3.3,0.8,5,1.1C52,50.7,51.5,52.9,51.1,55z"></path></svg>