<svg width="75" height="89" viewBox="0 0 75 89" fill="none" xmlns="http://www.w3.org/2000/svg">
<path d="M54.5306 0.267857C52.7824 -0.902978 51.485 2.07454 53.2131 3.23199C53.5159 3.43479 53.8199 3.63887 54.1241 3.84369C52.3774 2.96206 50.493 2.3212 48.5128 1.93947C41.6261 0.611942 33.783 1.84687 27.4016 4.34744C23.9255 5.70959 20.6959 7.92311 18.313 10.8415C17.8536 10.5316 17.2683 10.4913 16.7202 10.9724C10.9462 16.0411 10.1054 24.3829 11.3911 31.9115C12.4899 38.3462 14.997 44.6695 19.0942 49.63C18.9186 49.6822 18.7413 49.7734 18.5671 49.916C12.5781 54.8178 7.6629 60.8835 3.9712 67.844C3.06524 69.5522 2.26769 71.3236 1.53657 73.1244C0.812868 74.9068 -0.193903 76.9532 0.0324451 78.9627C0.264753 81.0255 2.42373 82.2122 3.88291 83.2675C5.9338 84.7507 7.98472 86.2339 10.0357 87.7171C10.9412 88.372 11.9389 88.1771 12.4833 87.2088C18.1461 77.137 24.482 67.5158 31.4163 58.3771C36.5744 62.2728 43.5038 62.6358 49.326 60.6248C57.4106 57.8323 63.563 50.4223 68.3523 43.4542C72.962 36.7472 76.0519 28.7424 73.3934 20.3171C70.465 11.0367 62.0147 5.28037 54.5306 0.267857ZM14.6334 20.3094C15.2284 21.5711 17.3732 21.7134 17.6302 19.9952C19.1203 10.0344 29.2753 6.38491 37.6847 5.20306C45.7223 4.07342 54.5062 5.05888 59.4685 12.8514C64.2074 20.2931 63.0355 29.6287 59.254 36.8622C57.2982 40.6036 54.5545 43.8655 51.6056 46.7721C48.2701 50.0596 44.3596 52.8455 39.9086 54.2475C37.1764 55.1082 34.3963 55.094 31.7197 54.4029C31.6808 54.364 31.6406 54.3274 31.6021 54.288C31.119 53.794 30.5821 53.7261 30.1275 53.9093C28.7876 53.4217 27.482 52.7706 26.2325 51.9728C21.8059 49.1462 18.7548 44.3885 16.7891 39.5131C14.5713 34.0127 12.9761 26.4142 14.6334 20.3094ZM7.42824 81.8868C6.21588 81.01 2.75519 79.3846 3.32301 77.5908C4.33768 74.3855 5.77419 71.3114 7.35766 68.3914C10.6546 62.3116 15.1784 56.9614 20.4287 52.6642C20.7556 52.3967 20.9331 52.0655 20.9978 51.7206C22.192 52.9058 23.4964 53.9857 24.9152 54.9369C26.0829 55.7197 27.276 56.3418 28.4838 56.824C21.9414 65.5037 15.9477 74.6233 10.5191 84.1221C9.48879 83.377 8.45852 82.6319 7.42824 81.8868ZM65.8923 41.2738C61.6788 47.5228 56.3949 53.8453 49.5374 56.9556C45.9209 58.596 41.6426 59.0493 37.7763 57.9406C41.6269 57.4282 45.3835 55.8081 48.741 53.4726C55.4571 48.8009 61.3198 41.7347 64.1441 33.7634C66.3856 27.4368 66.3455 20.338 63.6138 14.0021C62.4654 11.3385 60.8631 9.06413 58.9196 7.21507C63.6954 10.798 68.0355 15.0007 70.2326 20.8289C72.9871 28.1358 69.8213 35.4468 65.8923 41.2738Z" fill="black"/>
<path d="M29.4537 12.352C26.058 13.2596 24.3687 16.849 24.4295 20.3483C24.5008 24.4504 28.1642 27.5266 31.7617 25.4194C34.7181 23.6878 38.4214 19.1406 37.0753 15.2129C35.8787 11.7216 32.0835 10.5184 29.4537 12.352ZM34.0665 17.3735C33.7633 19.4297 31.8524 21.3691 30.2879 22.4441C28.1505 23.9129 27.4557 20.899 27.6377 19.2287C27.7765 17.9554 28.3493 16.861 29.2509 16.158C29.7634 16.314 30.331 16.1992 30.7605 15.6393C30.8391 15.5367 30.9205 15.4458 31.0034 15.3627C31.238 15.2687 31.4167 15.1307 31.5439 14.9627C32.864 14.2906 34.3344 15.5572 34.0665 17.3735Z" fill="black"/>
<path d="M33.904 28.0895C31.9863 28.7679 33.097 31.9078 35.0147 31.2295C36.9324 30.5511 35.8217 27.4111 33.904 28.0895Z" fill="black"/>
</svg>
