<svg width="83" height="79" viewBox="0 0 83 79" fill="none" xmlns="http://www.w3.org/2000/svg">
<path d="M81.9973 30.0191C80.428 29.9851 78.8596 29.9944 77.2915 30.0437C77.1218 29.7608 76.8277 29.561 76.4599 29.5807C64.4791 30.2248 52.8468 26.2934 41.0267 25.2204L52.4762 15.3347C52.7954 15.059 52.8714 14.4704 52.6325 14.1228C51.4242 12.365 50.2158 10.6071 49.0074 8.84917C48.7479 8.47172 48.3596 8.35801 48.0011 8.41517L38.7911 0.263697C37.9055 -0.520116 36.6334 0.611781 37.1918 1.4647C27.6456 8.52117 18.5674 16.1944 10.0347 24.449C7.82773 26.584 5.6625 28.762 3.53129 30.9726C1.66582 32.9075 -0.462993 34.8139 0.0886667 37.751C0.317182 38.9677 1.14201 40.075 1.88432 41.0261C2.84462 42.2565 3.8185 43.4749 4.75996 44.7201C6.55395 47.0928 8.26936 49.5246 9.9206 51.9986C15.0731 59.7187 19.4889 67.9258 23.1458 76.4549C23.4153 77.0833 24.2857 77.0398 24.7164 76.6573C24.8039 76.5796 24.8925 76.5033 24.9804 76.4261C25.9595 76.5316 26.9061 76.7858 27.8085 77.1999C28.7231 77.6196 29.501 78.4636 30.5087 78.63C31.5099 78.7954 32.25 78.0995 32.916 77.4593L35.781 74.7051C37.6911 72.869 39.6011 71.0329 41.5111 69.1968C41.8637 68.8579 42.0362 68.5214 42.0769 68.1916C42.7829 68.7183 44.0453 68.1937 43.6583 67.1954C40.3913 58.7673 32.9832 52.3486 30.3935 43.6703C45.0926 44.3497 59.7689 45.482 74.3986 47.0691C74.4599 47.0757 74.5192 47.0737 74.577 47.0662C74.6216 47.087 74.6662 47.1079 74.7114 47.1259C75.4617 47.4248 76.4892 47.424 77.2896 47.5108C78.1945 47.6089 79.1059 47.6311 80.0152 47.6226C80.4343 47.6187 80.8951 47.3234 80.9795 46.8884C81.9968 41.648 82.6721 36.3474 82.9973 31.0191C83.0311 30.4659 82.5166 30.0303 81.9973 30.0191ZM48.132 11.0974C48.9017 12.2171 49.6714 13.3368 50.4411 14.4565C46.556 17.811 42.6709 21.1655 38.7858 24.5199C38.6021 24.6785 38.5031 24.857 38.4698 25.0368C36.3882 24.9275 34.2999 24.9191 32.2013 25.0598C37.5115 20.4057 42.8218 15.7515 48.132 11.0974ZM38.6644 69.1597C37.9959 69.8023 37.3274 70.4449 36.6588 71.0876L32.6478 74.9434C32.4175 75.1648 31.0515 76.7784 30.7379 76.6429C30.0704 76.3544 29.4787 75.804 28.8179 75.473C28.2123 75.1696 27.5795 74.9395 26.9314 74.7666C30.5258 71.8135 34.3807 69.1999 38.4564 66.942C38.4812 66.9283 38.5038 66.9125 38.5268 66.897C38.6558 67.0014 38.7848 67.1057 38.9138 67.2101C39.2028 67.4438 39.6423 67.7039 39.9574 68.0064C39.6116 68.4309 38.9256 68.9086 38.6644 69.1597ZM41.1706 66.3976C40.4305 65.6836 39.4222 65.0632 38.8548 64.6042C38.5082 64.3238 38.1093 64.3131 37.7792 64.4519C32.0326 58.3615 27.4732 51.2098 24.4038 43.418C25.6995 43.4671 26.995 43.5208 28.2904 43.5769C30.5849 52.1654 37.5892 58.397 41.1706 66.3976ZM29.8706 41.6452C29.5742 40.8875 28.558 40.9849 28.1465 41.5693C26.4085 41.4944 24.6702 41.4242 22.9316 41.3621C22.3188 41.3401 21.7447 42.0245 21.9673 42.6279C25.1493 51.2531 30.037 59.1578 36.3419 65.8403C32.0969 68.2835 28.0944 71.1217 24.3755 74.3086C19.7613 63.7838 13.9737 53.8009 7.12866 44.5678C6.29843 43.4479 5.44858 42.3427 4.58955 41.2448C3.67924 40.0813 2.59101 38.9408 2.09882 37.5217C1.60717 36.1041 2.54714 34.9359 3.45122 33.9531C4.52124 32.79 5.6372 31.6658 6.74348 30.5374C11.0429 26.1519 15.5039 21.9258 20.0977 17.8501C26.058 12.5622 32.2672 7.55728 38.6846 2.83528C41.3127 5.16138 43.9408 7.48748 46.569 9.81357C40.5436 15.0945 34.5183 20.3754 28.4929 25.6563C27.6516 26.3937 28.5833 27.454 29.4658 27.3277C44.8825 25.1223 59.8003 32.0413 75.1841 31.6306C75.1885 31.6391 75.1925 31.6479 75.1973 31.6563C74.2551 36.0389 73.6687 40.4904 73.4464 44.968C58.9586 43.4159 44.4256 42.3079 29.8706 41.6452ZM79.1884 45.6166C78.6847 45.6063 78.1818 45.5839 77.6779 45.5463C77.2488 45.5143 76.8208 45.4616 76.3949 45.401C76.1378 45.3622 75.8815 45.3191 75.6259 45.2717C75.5734 45.2527 75.5269 45.2367 75.4851 45.223C75.4729 45.1811 75.4573 45.1401 75.4396 45.0999C75.6523 40.7056 76.2259 36.3481 77.1557 32.0488C78.4132 32.0073 79.6709 31.9928 80.9291 32.0049C80.6122 36.5739 80.0325 41.1147 79.1884 45.6166Z" fill="black"/>
</svg>
