<svg width="82" height="89" viewBox="0 0 82 89" fill="none" xmlns="http://www.w3.org/2000/svg">
<path d="M80.1483 26.3948C75.6975 25.0549 71.3089 23.5305 66.9858 21.8227C66.788 21.7445 66.6042 21.7146 66.4343 21.7187C66.128 19.9658 65.8217 18.213 65.5154 16.4602C65.1351 14.2841 64.9489 11.9444 64.1445 9.87474C62.7483 6.28262 58.7151 5.33787 55.2364 5.58435C54.2429 5.65476 53.2661 5.81776 52.3129 6.05916C50.7464 2.86964 48.1745 0.306724 44.3468 0.0276846C38.1293 -0.425565 33.3179 4.76305 30.9657 9.98184C29.9563 12.2215 29.2649 14.5981 28.7454 17.0337C26.0336 16.7992 23.3194 16.5932 20.6034 16.4152C17.9741 16.2428 15.3427 16.1045 12.7105 15.9881C11.865 15.9507 10.9747 16.0784 10.2359 16.4384C9.54157 16.2513 8.78243 16.5174 8.642 17.4321C5.50672 37.8534 2.62961 58.3138 0.00663115 78.8072C-0.0679682 79.39 0.499549 80.1078 1.06982 80.2036C20.7788 83.5135 40.6605 85.7399 60.6134 86.8614C60.8161 87.3227 61.2297 87.699 61.8533 87.7634C66.2812 88.2207 70.7237 88.378 75.1727 88.235C76.0172 88.2078 76.5471 87.5931 76.6209 86.7869C78.4196 67.1436 79.9499 47.4764 81.2115 27.7913C81.253 27.1431 80.737 26.5721 80.1483 26.3948ZM54.8284 8.52064C56.2325 8.34486 57.6315 8.40706 58.9926 8.79661C60.7862 9.30989 61.4966 10.7009 61.8705 12.4072C62.5424 15.4726 63.021 18.5973 63.5256 21.7056C60.4888 21.1555 57.4462 20.6399 54.3974 20.1632C54.4897 17.6498 54.4328 15.1302 54.1613 12.6303C54.0257 11.3815 53.7675 10.0687 53.3769 8.78069C53.855 8.67041 54.339 8.58191 54.8284 8.52064ZM51.5331 16.9194C51.5548 17.8536 51.5458 18.7879 51.5173 19.7219C48.4593 19.2675 45.3953 18.8536 42.327 18.472C43.7738 14.5622 46.8844 11.3556 50.682 9.67837C51.3331 12.1402 51.4844 14.8257 51.5331 16.9194ZM32.9206 12.8628C34.5335 8.10001 39.0342 1.81111 44.8558 3.02658C47.1777 3.51135 48.6858 5.01948 49.6711 6.95979C44.8981 9.02192 41.0444 13.1529 39.3892 18.1166C38.3776 17.9987 37.3658 17.8818 36.3532 17.7721C34.8024 17.604 33.2502 17.45 31.6972 17.303C32.0312 15.7995 32.4288 14.3153 32.9206 12.8628ZM61.5198 83.5572L60.9857 83.9848C41.5764 82.9075 22.2364 80.7859 3.05797 77.6108C5.54674 58.2426 8.26985 38.905 11.2221 19.6019C11.3227 19.4625 11.4034 19.2952 11.4541 19.0945C11.6144 18.4601 16.0747 19.0458 16.6581 19.0769C19.1013 19.2073 21.5429 19.3673 23.983 19.5459C25.3931 19.649 26.8023 19.7636 28.2109 19.8842C27.6264 23.4581 27.2956 27.0965 26.8028 30.5721C26.544 32.3981 29.3344 33.1851 29.5957 31.3421C30.1186 27.6535 30.493 23.8638 31.1399 20.1453C33.6283 20.3786 36.1145 20.6363 38.5979 20.9168C42.8646 21.3988 47.121 21.9656 51.3669 22.6041C51.2754 23.8613 51.1562 25.1165 51.0208 26.3679C50.8346 28.0893 50.6003 29.8053 50.3583 31.5196C50.1982 32.6538 49.8535 33.7928 50.7698 34.6872C51.1121 35.0214 51.7061 35.2424 52.1787 35.0597C52.8322 34.8069 53.2544 34.4962 53.4085 33.7785C53.4971 33.3665 53.4279 32.8658 53.1719 32.5071C53.2846 32.1397 53.2723 31.4268 53.3061 31.1844C53.4267 30.3188 53.541 29.4523 53.6526 28.5855C53.8897 26.7441 54.0833 24.8977 54.2305 23.0469C57.5122 23.567 60.7872 24.1311 64.0545 24.7358C64.3557 25.6293 65.3462 25.7272 66.0541 25.3034C64.5427 44.7214 63.0313 64.1393 61.5198 83.5572ZM64.6085 81.0846C66.0467 62.6083 67.4849 44.1319 68.923 25.6556C69.9519 26.0415 70.9858 26.4132 72.0219 26.7785C72.0189 26.801 72.0144 26.8225 72.0121 26.8456C70.3414 44.2872 68.6706 61.7287 66.9999 79.1703L64.6085 81.0846ZM73.9909 83.8126C73.3367 83.3856 72.6654 82.992 71.973 82.6304C71.241 82.0615 70.5303 81.3415 69.7325 80.8792C71.4293 63.1654 73.1261 45.4515 74.823 27.7377C75.9604 28.1161 77.1004 28.4865 78.2462 28.8403C77.0617 47.1818 75.6417 65.5073 73.9909 83.8126Z" fill="black"/>
</svg>
