<svg width="93" height="87" viewBox="0 0 93 87" fill="none" xmlns="http://www.w3.org/2000/svg">
<path d="M90.8469 23.4718C86.0119 26.7199 80.2082 29.352 74.2567 28.2532C71.4704 27.7388 68.9672 26.4744 66.6628 24.8684C66.5654 24.7702 66.4516 24.6896 66.3293 24.632C64.1194 23.0479 62.0913 21.1634 60.1704 19.3454C56.0266 15.4236 51.9129 11.6182 46.5333 9.48092C41.4462 7.45976 35.7375 7.11432 30.4068 8.26329C29.8896 8.37479 29.3779 8.51004 28.8699 8.65763C29.0997 7.49156 29.3293 6.32546 29.5556 5.15874C29.7936 3.93255 30.3312 2.28763 29.2965 1.26068C28.5447 0.514573 27.5733 0.31262 26.5523 0.216416C25.058 0.07562 23.4696 -0.0404813 21.9701 0.0134986C20.7386 0.057822 20.063 0.944456 19.6559 1.99771C19.0851 3.475 18.7699 5.09711 18.437 6.64105C17.77 9.73468 17.3412 12.8764 16.8194 15.9963C14.6874 28.7441 11.7053 41.3354 8.38326 53.8206C5.75577 63.6953 2.89896 73.5073 0.0447862 83.3183C-0.316298 84.5596 1.61383 85.0858 1.97335 83.85C5.58592 71.432 9.19401 59.0095 12.3568 46.4676C13.9365 40.2032 15.3944 33.9077 16.6886 27.5779C17.9732 21.2948 18.88 14.9534 20.0675 8.65475C20.3474 7.16973 20.6803 5.69568 21.0735 4.23657C21.2497 3.58292 21.4044 2.88089 21.7003 2.26915C21.9704 1.71062 23.5819 2.06245 24.091 2.08828C25.2203 2.1456 26.711 1.96589 27.7342 2.53204C28.2114 2.79603 27.7067 4.21631 27.6271 4.62706C27.453 5.52605 27.2773 6.42474 27.1011 7.32331C25.8421 13.7417 24.5251 20.1487 23.1569 26.5447C20.9523 36.8511 18.5996 47.1256 16.1114 57.3672C15.9316 57.6312 15.8401 57.9795 15.8885 58.284C15.3609 60.448 14.8295 62.611 14.2897 64.772C12.546 71.7522 10.7334 78.7153 8.85919 85.6616C8.52276 86.9087 10.4522 87.4372 10.7878 86.1933C13.2134 77.203 15.5283 68.1833 17.7361 59.1376C20.8554 59.7097 23.8394 60.7479 26.6397 62.1787C26.6377 62.8626 27.4625 63.2141 28.0754 62.9579C29.2858 63.6505 30.4599 64.4149 31.5905 65.2506C36.2491 68.6938 39.4879 73.6593 44.207 77.0287C44.3351 77.1201 44.4672 77.2055 44.5971 77.2942C44.5472 77.9837 45.331 78.3583 45.9528 78.1546C49.9616 80.4911 54.6819 81.6193 59.2991 81.5222C61.9213 81.4671 64.6881 81.0134 67.0933 79.9392C69.5536 78.8405 71.2931 76.9994 72.4956 74.611C73.2978 73.0176 73.8332 71.2972 74.386 69.6067C75.0979 67.4299 75.8322 65.2605 76.5826 63.0966C78.0834 58.7689 79.6673 54.4701 81.3205 50.1984C84.642 41.6163 88.2855 33.1608 92.2151 24.84C92.6069 24.0104 91.7529 22.8631 90.8469 23.4718ZM27.2952 60.2484C24.4704 58.8344 21.4593 57.7997 18.3548 57.2237C18.3328 57.1371 18.3019 57.0538 18.2626 56.9755C21.9673 41.6698 25.3592 26.2886 28.4367 10.8437C28.5219 10.8395 28.6111 10.825 28.705 10.7956C34.0624 9.11982 39.7665 9.25931 45.0714 11.0666C45.3247 11.1528 45.5741 11.2451 45.8217 11.3402C44.6461 15.3981 43.4834 19.4602 42.2817 23.5105C40.9619 27.9589 39.2992 32.1953 37.2872 36.3747C33.5314 44.1765 30.3257 52.1493 27.2952 60.2484ZM36.3203 66.674C34.1493 64.5578 31.7035 62.7102 29.067 61.1985C30.4952 57.3514 31.9344 53.5083 33.4716 49.7032C35.2081 45.4051 37.1663 41.2225 39.1762 37.0476C41.1507 32.9461 42.7862 28.7728 44.0993 24.4135C45.3273 20.3371 46.4887 16.2397 47.6707 12.1495C51.9941 14.281 55.5063 17.6838 59.0094 20.9993C60.8232 22.7159 62.7071 24.4197 64.731 25.9059C60.9641 33.8563 57.8733 42.1005 54.761 50.3231C51.6039 58.6643 48.4467 67.0055 45.2896 75.3467C45.0892 75.2084 44.8904 75.0676 44.694 74.9231C41.5359 72.6001 39.1117 69.3951 36.3203 66.674ZM75.9242 58.9654C74.8495 61.9593 73.8161 64.9679 72.8155 67.9873C71.9639 70.5573 71.2396 73.2149 69.6683 75.4593C68.0373 77.789 65.2233 78.6887 62.558 79.1927C59.8904 79.6973 57.0937 79.6308 54.4291 79.1519C51.8096 78.6811 49.3053 77.7475 47.009 76.4308C50.1424 68.1525 53.2757 59.8742 56.4091 51.5959C59.5359 43.3349 62.6178 35.0436 66.3933 27.052C68.3578 28.3162 70.4606 29.3429 72.7604 29.9626C78.3512 31.469 84.1313 29.6803 89.0338 26.9495C84.1986 37.4236 79.822 48.1069 75.9242 58.9654Z" fill="black"/>
</svg>
