<svg width="66" height="91" viewBox="0 0 66 91" fill="none" xmlns="http://www.w3.org/2000/svg">
<path d="M64.5063 19.625C63.7231 17.3582 62.8821 15.0554 61.7637 12.9302C60.5788 10.6784 58.7767 9.03087 56.8225 7.45496C53.2659 4.58679 49.2625 1.55575 44.4535 1.74144C44.3715 1.7446 44.2956 1.75689 44.2247 1.77578C35.576 -1.00502 25.6786 -0.288396 17.182 2.32463C12.7877 3.67603 8.39774 5.79941 5.55142 9.53401C2.65386 13.3358 1.58131 18.0951 0.645942 22.687C0.636773 22.7321 0.631503 22.7759 0.628112 22.8189C0.513362 22.8902 0.408261 22.9918 0.321608 23.1305C-0.188266 23.947 -0.0896502 25.0812 0.601573 25.783C1.51267 26.708 2.80571 26.8269 4.02498 27.0251C6.99884 27.5085 10.0004 27.8175 13.0086 27.9761C13.7574 28.0156 14.5802 28.0742 15.2585 27.7859C17.6134 27.9767 19.9684 28.1676 22.3234 28.3584C22.7273 28.3912 23.1343 28.0489 23.2286 27.6693C23.9786 24.6475 25.0178 21.6151 27.0744 19.2159C27.9779 18.162 29.0793 17.3216 30.3054 16.6792C31.247 16.1858 32.8196 15.6197 34.0386 15.7735C34.6653 16.0967 35.2678 16.4646 35.8337 16.8732C37.8177 18.306 39.8171 20.4085 40.4108 22.8388C41.0403 25.4155 39.0365 27.7952 37.0779 29.1559C35.0897 30.5371 32.7486 31.3739 30.5746 32.4102C28.5017 33.3984 26.4802 34.4963 24.5639 35.7636C20.9367 38.1622 17.6979 41.3339 16.0034 45.402C15.0098 47.7875 14.543 50.3181 14.1211 52.8552C13.6391 55.7534 13.1637 58.6528 12.6851 61.5516C12.4847 62.7653 12.0634 63.9564 12.8891 65.0021C13.187 65.3793 13.8188 65.5114 14.2593 65.584C14.999 65.7058 15.746 65.794 16.4883 65.8989C19.4119 66.312 22.3355 66.7251 25.2591 67.1382C25.2803 67.1414 25.301 67.1453 25.323 67.1475C25.3251 67.1477 25.3271 67.1479 25.3292 67.1481C25.3542 67.1516 25.3793 67.1551 25.4043 67.1587C25.4597 67.1665 25.5158 67.1701 25.5719 67.1713L31.9545 67.784C32.4691 67.8334 32.8875 67.3196 32.8932 66.8453C32.9543 61.8135 35.8667 57.495 39.4115 54.1474C43.3937 50.3868 48.3901 47.8832 52.9427 44.9089C57.1851 42.1373 61.1179 38.825 63.6496 34.3642C64.8244 32.2942 65.5555 30.0231 65.8052 27.6588C66.0943 24.9223 65.3924 22.1901 64.5063 19.625ZM26.3476 17.252C23.8277 19.6767 22.496 23.0905 21.6105 26.4233C19.9197 26.2862 18.2289 26.1492 16.5381 26.0122C16.553 25.9455 16.5673 25.8783 16.581 25.8104C16.7335 25.0532 16.9961 24.3311 17.3228 23.6331C17.8683 22.468 18.6077 21.3959 19.3336 20.3386C20.1205 19.1926 20.9108 18.0557 21.8651 17.0406C24.2168 14.539 27.4144 13.9275 30.4889 14.5261C28.9015 15.1694 27.4293 16.2111 26.3476 17.252ZM24.9331 65.2112C22.1607 64.8195 19.3883 64.4278 16.6159 64.0361C15.9107 63.9364 15.2032 63.8469 14.5004 63.7311C14.1022 63.6655 14.2561 63.5005 14.3153 63.1418C14.3754 62.7781 14.4354 62.4144 14.4955 62.0506L15.2762 57.3223C16.1596 51.9722 16.6587 46.3689 20.2276 42.023C23.2488 38.3441 27.5456 35.927 31.7802 33.9083C36.1778 31.8119 41.6321 29.8612 42.3539 24.3204C42.862 20.4192 39.2289 16.8254 36.0969 14.7794C36.0333 14.5959 35.89 14.4325 35.6455 14.3245C35.4105 14.2207 35.1709 14.139 34.9284 14.0733C31.2167 12.0429 26.6337 11.7804 22.8806 13.8588C20.9102 14.95 19.5194 16.8028 18.2527 18.6104C16.9195 20.5131 15.5949 22.4424 14.9213 24.6904C14.8089 25.0653 14.7811 25.4863 14.6484 25.859C14.5144 25.8482 14.3805 25.8373 14.2465 25.8265C13.887 25.7973 13.6363 25.944 13.4918 26.166C13.1122 26.1362 12.7535 26.0852 12.643 26.0794C11.3025 26.0087 9.96442 25.8956 8.62914 25.7584C7.25563 25.6172 5.88779 25.4301 4.52409 25.2148C4.14361 25.1547 1.42602 24.9055 1.94272 24.0781C2.01138 23.9682 2.05284 23.8594 2.07376 23.7538C2.25624 23.6484 2.39966 23.4642 2.45631 23.1861C3.46086 18.2544 4.59451 13.0296 8.22962 9.30442C11.9657 5.47574 17.6912 3.86573 22.7775 2.84192C32.3929 0.906479 44.4051 1.50584 52.2404 8.12358C56.3014 11.5536 57.9915 16.3945 58.4283 21.5744C58.8522 26.6012 58.4627 32.2415 55.2375 36.3655C52.6631 39.6573 48.7112 41.4568 44.9438 43.009C41.0645 44.6072 37.0356 46.0376 33.6498 48.582C28.3024 52.6004 26.397 58.9768 24.9331 65.2112ZM57.3899 39.1832C53.3775 42.9449 48.3479 45.4468 43.7826 48.4453C37.7043 52.4373 31.6555 58.198 31.0656 65.8213C29.6474 65.6851 28.2292 65.549 26.8111 65.4129C27.8685 60.8709 29.1098 56.1756 32.1485 52.5386C34.896 49.2502 38.9585 47.4624 42.8341 45.8786C46.6959 44.3006 50.6296 42.8324 53.9601 40.2559C57.8036 37.2824 59.6606 32.8537 60.2436 28.1315C60.8799 22.9778 60.3123 17.19 58.0458 12.4839C57.395 11.1324 56.5519 9.90052 55.5739 8.78296C56.4128 9.4726 57.2216 10.1928 57.9814 10.935C60.0013 12.9084 60.9959 15.5834 61.9767 18.1683C62.9964 20.8555 63.9825 23.5989 63.9878 26.5081C63.9969 31.4874 60.8803 35.9109 57.3899 39.1832Z" fill="black"/>
<path d="M31.978 73.5387C30.2435 72.0529 28.2256 70.9649 26.0817 70.1975C23.929 69.427 21.6014 69.1044 19.3207 69.1554C18.1839 69.1808 17.0457 69.3409 15.9343 69.5747C15.1034 69.7494 14.105 69.774 13.6049 70.4414C12.2291 70.7533 10.9679 71.4774 9.9657 72.8032C9.91572 72.8694 9.87772 72.9353 9.8488 73.0005C7.18442 74.9291 6.1099 78.7741 6.95204 82.1239C8.02924 86.4085 12.0272 89.5849 16.3562 89.9756C16.7653 90.0125 17.1744 90.0212 17.5816 90.0043C18.7425 90.4539 20.4422 90.4379 21.2351 90.4512C23.446 90.4883 25.6162 89.9547 27.6376 89.0919C31.5015 87.4427 35.3533 83.6157 35.2843 79.1582C35.2482 76.8227 33.6583 74.9781 31.978 73.5387ZM9.97171 84.2371C8.75997 82.4907 8.25468 80.3433 8.64195 78.2489C9.08651 75.8448 10.9527 73.7456 13.4912 73.6431C14.3128 73.61 14.5765 72.7287 14.2788 72.1853C15.6007 71.9575 17.0607 72.1936 18.3003 72.5599C20.6085 73.2421 22.9911 74.3437 24.6555 76.1197C28.3151 80.0249 24.756 85.3587 20.8102 87.2759C19.9724 87.6829 19.1043 87.934 18.2335 88.0438C17.9941 87.6442 17.493 87.3855 16.9616 87.6634C16.9253 87.6824 16.8889 87.7014 16.8526 87.7204C16.6988 87.8008 16.5841 87.9287 16.5067 88.0776C13.9426 87.8614 11.5193 86.4675 9.97171 84.2371ZM27.9312 86.8551C26.4706 87.6877 24.848 88.1858 23.1937 88.4495C22.9552 88.4875 22.7144 88.5142 22.4728 88.5337C24.4812 87.3735 26.1617 85.6175 27.1538 83.5754C28.2893 81.238 28.3862 78.7164 27.1591 76.4073C25.9804 74.1894 23.7161 72.7641 21.4908 71.7743C20.882 71.5035 20.2408 71.2488 19.5822 71.0273C19.5909 71.0271 19.5997 71.0266 19.6084 71.0264C21.3563 70.9873 23.0839 71.2599 24.76 71.7425C26.4405 72.2265 28.0121 73.0035 29.4641 73.9716C31.0159 75.0063 32.6968 76.4395 33.2643 78.2742C34.3608 81.8193 30.6549 85.3022 27.9312 86.8551Z" fill="black"/>
</svg>
