<svg width="84" height="90" viewBox="0 0 84 90" fill="none" xmlns="http://www.w3.org/2000/svg">
<path d="M82.6687 55.7031C82.2432 55.5306 81.9147 55.1865 81.7491 54.7604C81.5042 54.1301 80.8221 54.0064 80.3471 54.2196C80.3524 53.9897 80.2709 53.7602 80.0713 53.5773C76.1925 50.0231 73.1035 45.7495 70.9321 40.958C70.7274 40.5063 70.0344 40.3539 69.6368 40.6184C63.099 44.9667 56.5611 49.315 50.0233 53.6633C51.743 44.8759 53.4627 36.0885 55.1824 27.3011C56.1258 22.4804 57.0693 17.6597 58.0127 12.8389L58.7384 9.1307C58.9203 8.2011 59.2398 7.13624 58.8173 6.22604C58.3943 5.31489 57.5288 4.95373 56.6704 4.54123C56.1712 4.30134 55.6719 4.06145 55.1727 3.82156C55.2051 3.26659 54.8126 2.8507 54.2376 2.79763C49.5795 2.36769 44.9922 1.4324 40.5283 0.0356496C40.0658 -0.109069 39.4571 0.201806 39.3637 0.696902C38.8692 3.31668 38.3746 5.93646 37.8801 8.55623C37.8449 8.74264 37.8598 8.91235 37.9108 9.06146C34.846 22.542 32.1855 36.1125 29.9315 49.752C25.3765 42.9908 20.2789 36.6031 14.6897 30.6661C14.4251 30.385 13.8689 30.2697 13.5424 30.5181L0.48054 40.4539C0.0972828 40.7454 -0.180551 41.2892 0.1409 41.7492C5.52643 49.4564 10.912 57.1636 16.2975 64.8707C18.9543 68.6729 21.6112 72.4751 24.2681 76.2773C24.9143 77.2022 25.5606 78.127 26.2069 79.0519C26.5659 79.5657 26.9249 80.0795 27.284 80.5933C27.5613 80.9902 27.8391 81.6055 28.2699 81.8579C28.575 82.0366 28.9594 82.0891 29.2811 82.2447C29.7025 82.4487 30.0579 82.7396 30.3923 83.062C31.0547 83.7007 31.489 84.6088 31.5924 85.5203C31.6682 86.1886 32.3518 86.7583 33.017 86.3378C33.1919 86.2272 33.3658 86.1151 33.5407 86.0044C34.6346 87.2262 35.7284 88.448 36.8224 89.6698C37.0995 89.9794 37.623 90.0309 37.9697 89.8179C53.7829 80.099 68.8674 69.2155 83.0865 57.2855C83.6923 56.7773 83.2597 55.9427 82.6687 55.7031ZM56.5858 6.59789C57.1884 6.89506 57.1695 7.27604 57.0576 7.88568C56.6256 10.2389 56.1383 12.5833 55.6788 14.9313C54.7838 19.5048 53.8887 24.0784 52.9937 28.6519C51.2661 37.4795 49.5385 46.3072 47.811 55.1348C46.4806 56.0196 45.1503 56.9044 43.82 57.7892C47.4751 40.436 51.1303 23.0829 54.7854 5.72968C54.9903 5.82816 55.1953 5.92663 55.4002 6.02511C55.7958 6.21521 56.1921 6.40376 56.5858 6.59789ZM33.4529 83.072C33.1785 82.7654 32.8455 82.7147 32.5551 82.816C31.8254 81.6361 30.7174 80.7184 29.339 80.2387C20.309 67.316 11.279 54.3933 2.24903 41.4706C6.13505 38.5146 10.0211 35.5586 13.9071 32.6026C19.7281 38.8544 24.9967 45.5922 29.6542 52.7546C30.0561 53.3726 31.2438 53.3984 31.3846 52.5284C33.8689 37.1786 36.8689 21.9149 40.3788 6.76662C40.4433 6.48838 40.3916 6.2483 40.2726 6.05801C40.5178 4.75874 40.7631 3.45949 41.0083 2.16023C44.7038 3.25454 48.4801 4.02147 52.3046 4.48061C52.3746 4.55052 52.462 4.61317 52.5698 4.66497C52.7235 4.73885 52.8773 4.81274 53.0311 4.88664L41.5056 59.6049C41.3464 60.3608 42.1559 61.1667 42.8964 60.6741C44.2909 59.7467 45.6853 58.8192 47.0798 57.8917C47.183 58.0091 47.3178 58.1106 47.4925 58.187C48.8847 58.7953 50.0607 57.3501 49.5957 56.2184C56.3059 51.7554 63.0161 47.2924 69.7263 42.8295C71.7684 47.0466 74.5454 50.8774 77.9093 54.1386C63.4624 64.2811 48.7796 74.0853 33.8772 83.5459L33.4529 83.072ZM37.6662 87.7779C36.8298 86.8438 35.9935 85.9097 35.1572 84.9755C50.2931 75.3596 65.2037 65.3912 79.869 55.0717C79.8801 55.1334 79.8975 55.1974 79.9232 55.2637C80.1483 55.843 80.4535 56.3122 80.8485 56.6939C67.2115 68.0628 52.7733 78.4507 37.6662 87.7779Z" fill="black"/>
</svg>
