<svg class="icon-faq"version="1.1" xmlns="http://www.w3.org/2000/svg" xmlns:xlink="http://www.w3.org/1999/xlink" width="82" height="89" viewBox="0 0 100 100" style="enable-background:new 0 0 100 125;" xml:space="preserve"><g id="Calque_2"><path class="st0" d="M54.2,5.5c-4.9-0.1-11.1-0.3-17.9,2.9c-4.4,2-8.3,3.8-10.1,7.8c-1.6,3.6-0.5,6.6-3.2,10.5
		c-0.5,0.7-1.6,2.1-1.1,3c0.4,0.7,1.5,0.7,2.2,0.8c5.5,0.3,3.7,1.1,9.8,1.2c3.9,0.1,4.1-0.3,6.3,0.1c1.8,0.3,2.3,0.7,3.1,0.3
		c1.8-0.8,0.5-3.7,2.5-6.9c1.2-1.9,2.8-2.9,4.7-4.2c1.5-1,2.4-1.5,3.6-1.5c1.8,0,3.1,1,4.3,2c1.4,1.2,4.1,3.4,4.2,6.6
		c0.1,2.9-2.1,5-3.2,6.2c-3.2,3.2-5.5,2.4-10.5,5.2c-1.4,0.8-5.4,3-8.6,7.3c-3.2,4.3-4,9-4.4,10.9c-0.6,3-0.2,3.4-1,6.5
		c-0.6,2.3-1.2,3.6-0.6,4.6c0.6,0.8,1.7,0.8,3.4,1c4.2,0.4,5.1,1.2,13.3,1.9c0.7,0.1,1.4,0.1,2-0.3c1.4-1,0.4-3.1,1.2-5.9
		c0.5-1.7,1.6-2.9,3.9-5.5c2.2-2.5,4.3-4.1,4.8-4.5c1.9-1.4,3.2-2,5-3c3-1.6,7.1-3.9,10.8-7.4c2-1.9,4.1-3.9,5.5-7.3
		c1.3-3,1.4-5.7,1.4-6.9c0.2-7.2-3.3-12.4-4.1-13.5c-3.4-4.8-7.7-6.8-10.7-8.3C64.5,5.7,58.9,5.6,54.2,5.5z"></path><path class="st0" d="M38.2,74.9c-1.3,0.3-3.9,0.9-6.2,3.2c-0.8,0.8-3.6,3.6-3.3,7.2c0.4,4.4,5.2,6.8,6.6,7.5
		c4.1,2,9.5,2.1,13.9-0.4c1.1-0.7,6.2-3.6,6.1-8.1c-0.1-5.2-7-8-8.1-8.5C45.9,75.2,42.4,74,38.2,74.9z"></path></g><g id="Calque_1"><path d="M85.5,24.3c-0.8-2.3-1.6-4.6-2.7-6.7c-1.2-2.3-3-3.9-4.9-5.5c-3.6-2.9-7.6-5.9-12.4-5.7c-0.1,0-0.2,0-0.2,0
		c-8.6-2.8-18.5-2.1-27,0.5c-4.4,1.4-8.8,3.5-11.6,7.2c-2.9,3.8-4,8.6-4.9,13.2c0,0,0,0.1,0,0.1c-0.1,0.1-0.2,0.2-0.3,0.3
		c-0.5,0.8-0.4,2,0.3,2.7c0.9,0.9,2.2,1,3.4,1.2c3,0.5,6,0.8,9,1c0.7,0,1.6,0.1,2.2-0.2c2.4,0.2,4.7,0.4,7.1,0.6
		c0.4,0,0.8-0.3,0.9-0.7c0.8-3,1.8-6.1,3.8-8.5c0.9-1.1,2-1.9,3.2-2.5c0.9-0.5,2.5-1.1,3.7-0.9c0.6,0.3,1.2,0.7,1.8,1.1
		c2,1.4,4,3.5,4.6,6c0.6,2.6-1.4,5-3.3,6.3c-2,1.4-4.3,2.2-6.5,3.3c-2.1,1-4.1,2.1-6,3.4C41.9,42.8,38.7,46,37,50
		c-1,2.4-1.5,4.9-1.9,7.5c-0.5,2.9-1,5.8-1.4,8.7c-0.2,1.2-0.6,2.4,0.2,3.5c0.3,0.4,0.9,0.5,1.4,0.6c0.7,0.1,1.5,0.2,2.2,0.3
		c2.9,0.4,5.8,0.8,8.8,1.2c0,0,0,0,0.1,0c0,0,0,0,0,0c0,0,0.1,0,0.1,0c0.1,0,0.1,0,0.2,0l6.4,0.6c0.5,0,0.9-0.5,0.9-0.9
		c0.1-5,3-9.4,6.5-12.7c4-3.8,9-6.3,13.5-9.2c4.2-2.8,8.2-6.1,10.7-10.5c1.2-2.1,1.9-4.3,2.2-6.7C87.1,29.6,86.4,26.8,85.5,24.3z
		 M47.3,21.9c-2.5,2.4-3.9,5.8-4.7,9.2c-1.7-0.1-3.4-0.3-5.1-0.4c0-0.1,0-0.1,0-0.2c0.2-0.8,0.4-1.5,0.7-2.2c0.5-1.2,1.3-2.2,2-3.3
		c0.8-1.1,1.6-2.3,2.5-3.3c2.4-2.5,5.5-3.1,8.6-2.5C49.9,19.8,48.4,20.9,47.3,21.9z M45.9,69.9c-2.8-0.4-5.5-0.8-8.3-1.2
		c-0.7-0.1-1.4-0.2-2.1-0.3c-0.4-0.1-0.2-0.2-0.2-0.6c0.1-0.4,0.1-0.7,0.2-1.1l0.8-4.7c0.9-5.4,1.4-11,5-15.3
		c3-3.7,7.3-6.1,11.6-8.1c4.4-2.1,9.9-4,10.6-9.6c0.5-3.9-3.1-7.5-6.3-9.5c-0.1-0.2-0.2-0.3-0.5-0.5c-0.2-0.1-0.5-0.2-0.7-0.3
		c-3.7-2-8.3-2.3-12-0.2c-2,1.1-3.4,2.9-4.6,4.8c-1.3,1.9-2.7,3.8-3.3,6.1c-0.1,0.4-0.1,0.8-0.3,1.2c-0.1,0-0.3,0-0.4,0
		c-0.4,0-0.6,0.1-0.8,0.3c-0.4,0-0.7-0.1-0.8-0.1c-1.3-0.1-2.7-0.2-4-0.3c-1.4-0.1-2.7-0.3-4.1-0.5c-0.4-0.1-3.1-0.3-2.6-1.1
		c0.1-0.1,0.1-0.2,0.1-0.3c0.2-0.1,0.3-0.3,0.4-0.6c1-4.9,2.1-10.2,5.8-13.9c3.7-3.8,9.5-5.4,14.5-6.5c9.6-1.9,21.6-1.3,29.5,5.3
		c4.1,3.4,5.8,8.3,6.2,13.5c0.4,5,0,10.7-3.2,14.8c-2.6,3.3-6.5,5.1-10.3,6.6c-3.9,1.6-7.9,3-11.3,5.6
		C49.3,57.2,47.4,63.6,45.9,69.9z M78.4,43.8c-4,3.8-9,6.3-13.6,9.3c-6.1,4-12.1,9.8-12.7,17.4c-1.4-0.1-2.8-0.3-4.3-0.4
		c1.1-4.5,2.3-9.2,5.3-12.9c2.7-3.3,6.8-5.1,10.7-6.7c3.9-1.6,7.8-3,11.1-5.6c3.8-3,5.7-7.4,6.3-12.1c0.6-5.2,0.1-10.9-2.2-15.6
		c-0.7-1.4-1.5-2.6-2.5-3.7c0.8,0.7,1.6,1.4,2.4,2.2c2,2,3,4.6,4,7.2c1,2.7,2,5.4,2,8.3C85,36.1,81.9,40.6,78.4,43.8z"></path><path d="M53,78.2c-1.7-1.5-3.8-2.6-5.9-3.3c-2.2-0.8-4.5-1.1-6.8-1c-1.1,0-2.3,0.2-3.4,0.4c-0.8,0.2-1.8,0.2-2.3,0.9
		c-1.4,0.3-2.6,1-3.6,2.4c0,0.1-0.1,0.1-0.1,0.2c-2.7,1.9-3.7,5.8-2.9,9.1c1.1,4.3,5.1,7.5,9.4,7.9c0.4,0,0.8,0,1.2,0
		c1.2,0.4,2.9,0.4,3.7,0.4c2.2,0,4.4-0.5,6.4-1.4c3.9-1.6,7.7-5.5,7.6-9.9C56.2,81.5,54.7,79.6,53,78.2z M31,88.9
		c-1.2-1.7-1.7-3.9-1.3-6c0.4-2.4,2.3-4.5,4.8-4.6c0.8,0,1.1-0.9,0.8-1.5c1.3-0.2,2.8,0,4,0.4c2.3,0.7,4.7,1.8,6.4,3.6
		c3.7,3.9,0.1,9.2-3.8,11.2c-0.8,0.4-1.7,0.7-2.6,0.8C39,92.3,38.5,92,38,92.3c0,0-0.1,0-0.1,0.1c-0.2,0.1-0.3,0.2-0.3,0.4
		C34.9,92.5,32.5,91.1,31,88.9z M48.9,91.5c-1.5,0.8-3.1,1.3-4.7,1.6c-0.2,0-0.5,0.1-0.7,0.1c2-1.2,3.7-2.9,4.7-5
		c1.1-2.3,1.2-4.9,0-7.2c-1.2-2.2-3.4-3.6-5.7-4.6c-0.6-0.3-1.2-0.5-1.9-0.7c0,0,0,0,0,0c1.7,0,3.5,0.2,5.2,0.7
		c1.7,0.5,3.3,1.3,4.7,2.2c1.6,1,3.2,2.5,3.8,4.3C55.4,86.5,51.6,89.9,48.9,91.5z"></path></g></svg>