<svg width="94" height="95" viewBox="0 0 94 95" fill="none" xmlns="http://www.w3.org/2000/svg">
<path d="M92.5575 15.8687C91.9665 13.1905 90.7491 10.7213 88.7607 8.81204C86.9878 7.10965 84.7121 6.02758 82.4098 5.24434C79.9895 4.42099 77.4405 4.00423 74.9149 3.6597C71.512 3.19549 68.0996 2.80263 64.6826 2.45736C50.8277 1.05734 36.8995 0.565709 22.9856 0.185869C20.6483 0.12205 18.311 0.0558206 15.9734 0.00295029C14.0931 -0.039591 12.3926 0.367484 11.1919 1.90584C9.92268 3.53186 9.18508 5.67013 8.34421 7.53666C7.63528 9.11032 6.95491 10.697 6.29573 12.2922C5.961 12.4364 5.70266 12.745 5.69925 13.219C5.69796 13.4019 5.69445 13.5849 5.69275 13.7678C5.68618 13.7841 5.67939 13.8003 5.67282 13.8166C5.5532 14.1128 5.57499 14.3687 5.68324 14.5721C5.52161 28.0178 4.39338 41.4423 2.27705 54.7225C1.21036 61.4161 -0.392852 68.1494 0.0876231 74.9717C0.281954 77.7309 0.795053 80.5931 2.28677 82.9683C3.83669 85.4363 6.45287 86.3563 9.08945 87.2176C21.5588 91.2907 34.7451 92.6511 47.7844 93.3304C54.4472 93.6775 61.1287 93.9162 67.7999 94.0154C71.2275 94.0663 74.659 93.9968 78.0719 93.6583C80.9337 93.3745 83.6288 92.7146 85.886 90.8539C89.9192 87.5291 90.754 81.5747 91.4483 76.7355C92.4193 69.9661 92.9434 63.1423 93.2505 56.3131C93.5599 49.431 93.6323 42.5405 93.7085 35.6527C93.7812 29.0922 93.9798 22.3157 92.5575 15.8687ZM7.60137 22.3577C7.71183 19.6251 7.77398 16.8908 7.80184 14.1562C9.07134 11.026 10.4361 7.93717 11.8915 4.8889C12.5057 3.60255 13.1102 2.47992 14.602 2.16856C15.2765 2.02779 16.0384 2.11633 16.7214 2.13393C17.6957 2.15905 18.6701 2.18426 19.6444 2.20968C26.6061 2.39136 33.5676 2.59143 40.5251 2.89805C47.478 3.20445 54.4263 3.63056 61.3584 4.25315C64.8231 4.56434 68.2826 4.93385 71.7351 5.35964C74.5382 5.70533 77.3445 6.0636 80.0855 6.76218C82.4979 7.37703 84.8981 8.31786 86.8334 9.91983C89.0607 11.7636 90.101 14.3595 90.6685 17.1271C92.0154 23.6965 91.6523 30.6414 91.5774 37.3051C91.5701 37.9528 91.5625 38.6008 91.5547 39.2489C88.2694 38.9716 84.9924 38.6098 81.7279 38.1467C79.9545 37.8952 78.1861 37.6097 76.4215 37.3032C75.607 37.1617 74.7941 37.0114 73.9818 36.8583C73.5756 36.7817 73.17 36.7022 72.7644 36.6227C72.5382 36.5781 72.3121 36.5327 72.0861 36.4872C72.0194 36.4018 71.9506 36.3179 71.8827 36.2333C71.8054 35.8385 71.5105 35.4946 71.1539 35.3594C68.1568 31.9251 64.2652 29.1718 60.1441 27.0567C56.9182 25.4011 53.3405 24.1101 49.6962 23.8194C49.8593 23.7891 50.0227 23.7602 50.1866 23.7334C51.5286 23.5134 50.9573 21.4777 49.6249 21.6961C42.5773 22.8514 36.3939 26.9421 32.1118 32.5255C32.0736 32.5137 32.0335 32.5034 31.9915 32.495C27.8813 31.6689 23.771 30.8429 19.6608 30.0168C17.6057 29.6038 15.5506 29.1908 13.4955 28.7777C12.5364 28.585 11.5774 28.3922 10.6183 28.1995C9.73973 28.0229 8.817 27.8571 8.1333 27.2352C7.89553 27.0189 7.63033 26.9384 7.37709 26.9517C7.46342 25.4209 7.53945 23.8896 7.60137 22.3577ZM69.6993 36.817C69.7654 37.3828 70.2181 37.8727 70.7923 38.2006C72.9792 41.1947 74.398 44.666 74.7564 48.488C75.2893 54.1713 73.6045 59.9221 70.62 64.73C67.642 69.5275 63.1085 73.4527 57.4989 74.6538C52.0856 75.8129 46.2552 74.3368 41.5489 71.6022C32.8837 66.5673 27.3157 56.6206 28.4127 46.5671C29.0116 41.0781 31.5739 35.9398 35.3293 31.9061C35.7858 32.2868 36.5362 32.3365 36.9242 31.6736C39.796 26.7661 45.8694 25.2548 51.1757 26.1281C56.9476 27.0782 62.6427 30.3331 67.026 34.1295C67.9916 34.9658 68.8858 35.8636 69.6993 36.817ZM89.0599 78.5128C88.275 83.4706 86.7452 89.2387 81.3985 90.9298C78.2954 91.9113 74.7426 91.8478 71.5205 91.9039C68.0877 91.9636 64.6536 91.8391 61.223 91.7331C48.0438 91.3258 34.7949 90.8589 21.8217 88.313C18.6096 87.6826 15.4267 86.907 12.2837 85.9925C9.5741 85.2041 6.06233 84.5596 4.28519 82.1576C2.55618 79.8206 2.25592 76.5534 2.13012 73.7521C1.97502 70.2974 2.40381 66.8355 2.94154 63.4302C4.01331 56.6433 5.20222 49.896 5.99643 43.0668C6.53285 38.4545 6.94291 33.828 7.24105 29.1942C8.55265 30.0609 10.1578 30.2571 11.7008 30.5672L18.2771 31.8889C22.4452 32.7266 26.6132 33.5643 30.7812 34.4019C29.6365 36.1516 28.6675 38.0178 27.9056 39.9656C24.1757 49.5024 26.7588 60.0311 33.3987 67.5911C40.3386 75.4926 52.3256 79.8458 62.2947 75.2643C67.2612 72.9819 71.1167 68.4961 73.6236 63.737C76.2237 58.8011 77.4459 53.0456 76.761 47.4917C76.3727 44.3427 75.3183 41.5059 73.7906 38.9649C75.4276 39.2714 77.0691 39.5537 78.7138 39.8152C82.9636 40.4908 87.2402 40.9986 91.5278 41.3608C91.3626 53.7768 91.0038 66.2337 89.0599 78.5128Z" fill="black"/>
<path d="M65.6342 42.9431C62.392 34.7608 53.914 29.5347 45.1611 30.0536C44.2816 30.1058 43.9709 31.0156 44.2339 31.6248C40.7253 33.5051 37.8561 36.4484 36.0171 40.0252C33.6465 44.636 33.4198 50.0094 35.1854 54.8592C36.9231 59.6323 40.5885 63.7979 45.3028 65.78C49.7629 67.6551 54.9435 67.6092 59.2974 65.4634C67.3528 61.4934 68.637 50.5211 65.6342 42.9431ZM64.8836 53.3253C64.4906 56.2138 63.3906 59.0948 61.4142 61.2697C59.7941 63.0525 57.5883 64.1303 55.2722 64.6809C50.3673 65.8471 45.1718 64.2053 41.5401 60.8105C37.2516 56.8019 35.2224 50.5444 36.5032 44.8076C37.7675 39.1446 42.1536 34.2899 47.6334 32.4223C47.781 32.3719 47.9033 32.2996 48.004 32.213C52.5102 32.6229 56.7673 34.6308 59.9666 37.9107C63.8578 41.8999 65.6301 47.839 64.8836 53.3253Z" fill="black"/>
<path d="M47.3185 41.2906C45.4759 39.7913 43.1107 40.1223 41.5681 41.4543C41.4815 41.4874 41.3937 41.5342 41.3054 41.5998C38.3406 43.8058 37.5003 47.8305 39.6658 50.9133C41.7723 53.912 46.4754 54.7756 48.2936 51.0516C49.029 49.5454 49.2368 47.6973 49.2559 46.0407C49.2763 44.2686 48.7295 42.4387 47.3185 41.2906ZM46.5809 49.6837C45.6923 52.4741 42.6327 51.4735 41.3138 49.596C40.5891 48.5643 40.3951 47.3089 40.6453 46.1425C41.2878 46.4034 42.1533 46.0976 42.0926 45.2161C41.9258 42.7917 44.9138 41.3134 46.4747 43.4273C47.6916 45.0754 47.1519 47.8904 46.5809 49.6837Z" fill="black"/>
<path d="M85.727 14.3738C83.9003 12.6123 80.6031 12.3706 78.2575 11.8754C75.1186 11.2126 71.9374 10.7054 68.7258 10.6205C68.0972 10.6039 67.739 11.1181 67.6694 11.6769C67.4996 13.0402 67.3298 14.4035 67.16 15.7668C67.1412 15.9182 67.1523 16.0514 67.1849 16.1685C66.926 18.1587 66.6652 20.1488 66.4245 22.1411C66.143 24.4708 66.3368 26.8469 67.9955 28.6391C68.7197 29.4216 69.7783 29.7916 70.7911 30.0071C72.2194 30.3109 73.6859 30.4863 75.127 30.7211C77.9662 31.1837 80.8053 31.6463 83.6444 32.1089C84.2371 32.2055 84.747 31.9622 84.9439 31.3711C85.9235 28.43 86.5529 25.412 86.8797 22.3305C87.1467 19.8122 87.7446 16.3194 85.727 14.3738ZM84.9656 18.8226C84.9561 20.1245 84.863 21.4247 84.7257 22.7189C84.4672 25.1568 83.9238 27.5658 83.1962 29.9071L76.9055 28.8821C75.6887 28.6839 74.4719 28.4856 73.2552 28.2874C72.1662 28.1099 70.9696 28.0361 69.976 27.5219C68.0139 26.5067 68.3707 23.5197 68.584 21.754C68.8885 19.2343 69.2294 16.7184 69.5522 14.2009C69.5732 14.0375 69.56 13.8946 69.5213 13.7712C69.5628 13.4379 69.6043 13.1045 69.6459 12.7712C72.0878 12.8996 74.497 13.2714 76.8982 13.7488C78.2291 14.0134 79.5531 14.3132 80.8767 14.612C81.9673 14.8582 83.0474 15.1029 84.0082 15.6973C85.0983 16.3717 84.9738 17.7068 84.9656 18.8226Z" fill="black"/>
</svg>
