<svg width="89" height="64" viewBox="0 0 89 64" fill="none" xmlns="http://www.w3.org/2000/svg">
<path d="M87.0761 2.84907C86.991 2.84292 86.9058 2.83677 86.8207 2.83063C87.0384 1.68098 85.8162 0.335605 84.4957 1.10539C83.7093 1.56375 82.9269 2.02845 82.1448 2.49382C57.5651 0.732659 32.9191 -0.829741 8.27886 0.495114C6.61718 0.584464 6.2597 2.49952 7.48452 3.4278C8.08798 3.8851 8.68598 4.34959 9.28299 4.81527C6.91556 13.5019 4.91922 22.2839 3.30081 31.1423C2.39888 36.0793 1.63759 41.0399 0.969577 46.0136C0.644911 48.4306 0.355976 50.8523 0.0886344 53.2763C-0.108318 55.0614 -0.16695 57.2438 2.03572 57.7831C4.12742 58.2952 6.47187 58.0974 8.61352 58.1759C11.321 58.2753 14.0279 58.3893 16.7344 58.5124C21.9391 58.7492 27.1415 59.0351 32.3416 59.3596C42.7416 60.0086 53.1299 60.8435 63.5021 61.8428C70.1404 62.4824 76.771 63.2003 83.3938 63.9831C84.3151 64.092 84.8787 63.179 84.9676 62.4093C87.191 43.1552 87.929 23.7792 88.6499 4.42284C88.6835 3.51967 87.906 2.90905 87.0761 2.84907ZM50.2865 34.0691C48.9776 33.2035 47.6688 32.3379 46.36 31.4724C54.8293 24.5002 63.6769 18.0037 72.8547 12.0021C64.6373 18.6007 57.0732 25.9859 50.2865 34.0691ZM12.934 3.42696C34.4732 2.57742 56.0133 3.80384 77.5063 5.31218C64.6165 13.299 52.3374 22.2472 40.7725 32.0607C32.5998 21.5256 23.2505 12.017 12.8645 3.67532C12.8877 3.59254 12.9108 3.50972 12.934 3.42696ZM82.0117 60.6781C61.771 58.3162 41.4577 56.6114 21.1058 55.5755C15.9024 55.3107 10.6965 55.095 5.48941 54.918C4.86451 54.8967 4.23961 54.8768 3.61472 54.8568C3.48508 54.8495 3.35544 54.8422 3.22573 54.8349C3.16602 54.8145 3.11769 54.799 3.07465 54.7858C3.04822 53.7027 3.31779 52.5306 3.44028 51.4587C3.74743 48.7717 4.09745 46.0898 4.4786 43.4123C5.91044 33.352 7.86652 23.3683 10.2785 13.4979C10.8137 11.308 11.3792 9.12566 11.9651 6.94879C22.1112 15.2093 31.2756 24.6875 39.1818 35.1091C39.822 35.953 40.8189 36.1441 41.6535 35.4276C42.3784 34.8053 43.107 34.1879 43.8377 33.5727L49.7905 37.5095C50.3356 37.87 51.2701 37.7809 51.6976 37.2634C60.9563 26.0564 71.6955 16.1351 83.6402 7.84697C84.403 7.31772 84.4794 6.45307 84.1776 5.78762C84.601 5.8181 85.0244 5.8485 85.4478 5.87906C84.765 24.1709 84.0299 42.4768 82.0117 60.6781Z" fill="black"/>
</svg>
