<svg version="1.1" xmlns="http://www.w3.org/2000/svg" xmlns:xlink="http://www.w3.org/1999/xlink" x="0px" y="0px" viewBox="0 0 100 125" style="enable-background:new 0 0 100 125;" xml:space="preserve"><style type="text/css">
	.st0{fill:#ED2E69;}
</style><g id="Calque_2"><path class="st0" d="M20.1,13.7c-1.7,0.2-8.1,2.3-7.9,6.1s-0.7,7.4,0.8,7.9c1.5,0.5,48.2,7.8,48.2,7.8s16.9,1,17.7,1.3
		c0.8,0.3,7.6,1.1,7.6,1.1s5.3,0.2,5.7-1.1s1.4-6,0-7.5C90.8,27.9,79.6,25,79.6,25L34.9,16L20.1,13.7z"></path><path class="st0" d="M9.9,41.4l-2.1,4l4.2,4.6l30.5,8.3l25.6,4.3h12.5l4.9-4.3v-4.8l-4.9-4.8c0,0-5.9,0.5-7.1,0.5s-7.8,0-8.6,0
		c-0.8,0-32.4-4.1-34.5-4.3S9.9,41.4,9.9,41.4z"></path><path class="st0" d="M12.1,67.5l-2.2,2.3v1.7l2.2,3.6l27,6.6l19,7.1l8.9,1.5l2.8-0.7l6-1.5l3.9-2.3L78.9,81l-4.5-3.5l-7.3,0.2
		l-16-2c0,0-23.1-4.5-23.6-4.5C27,71.3,12.1,67.5,12.1,67.5z"></path></g><g id="Calque_1"><path d="M90.3,27.6c-3.7-2-8.1-3-12-4.4c-0.3-0.1-0.6-0.1-0.8,0.1c-0.6-0.1-1.3-0.3-1.9-0.4c-4.5-0.9-8.9-1.8-13.4-2.7
		c-8.9-1.8-17.9-3.5-26.8-5.3c-5.9-1.2-13.9-4.1-19.7-1.4c-4.2,1.9-6.3,6.3-4.4,10.6c0,0,0,0,0,0L11,27.8c0,0.4,0.3,0.9,0.7,1
		c17.9,3.1,35.9,5.6,53.9,7.3c3,0.3,7.4,1.3,11.5,1.4c0.1,0.4,0.4,0.7,0.9,0.7c4.6-0.3,15.3,3,16.2-4.7
		C94.5,30.9,92.5,28.9,90.3,27.6z M63.7,33.9c-6.1-0.6-12.2-1.3-18.3-2.1c-6.6-0.8-13.2-1.8-19.9-2.8c-3.1-0.5-6.5-0.7-9.5-1.6
		c-3.9-1.1-2.7-3.6-2.4-7.2c0.1-0.6-0.3-0.9-0.7-0.9c0.7-1.8,2.2-3.4,3.9-4.1c1.9-0.8,3.8-0.8,5.8-0.7c3.1,0.2,6.3,1.1,9.4,1.7
		c6.1,1.2,12.1,2.4,18.2,3.6c6.1,1.2,12.1,2.4,18.2,3.6c2.7,0.5,5.4,1,8.1,1.6c1.3,0.3,2.7,0.6,3.9,1.3c2.9,1.6,7.9,7.2-0.5,8.9
		C75.1,36.1,68.5,34.4,63.7,33.9z M83,36.6c0.4-0.2,0.9-0.4,1.3-0.7c2.7-2.1,2.6-5.6,0.9-8.2c0.1,0,0.2,0.1,0.2,0.1
		c2.4,0.8,6.1,1.8,6.7,4.7C93,37,87.6,37,83,36.6z"></path><path d="M70.6,48c-0.4,0-0.6,0.2-0.8,0.5c-0.6-0.1-1.2-0.1-1.8-0.2c-19.7-1.8-39.1-4-58.4-8.1c-0.9-0.2-1.4,0.8-1.2,1.4
		C6.3,42.9,6,46,7.8,48.3c1.3,1.6,3.4,2.3,5.2,3c4.5,1.6,9.2,2.7,13.7,3.9c8.5,2.3,17,4.5,25.7,6.1c4.4,0.8,8.8,1.5,13.3,1.9
		c3.4,0.3,7.6,1.1,10.9,0.2c0,0,0.1,0,0.1,0c4.6,0.7,9.5-2,10.6-6.8C89.4,48.3,75.9,47.5,70.6,48z M63,60.9
		c-6.5-0.7-12.9-2-19.2-3.5c-5.5-1.3-11-2.7-16.5-4.2c-2.9-0.8-5.8-1.5-8.6-2.4c-1.1-0.3-2.3-0.7-3.4-1c-1-0.3-1.9-0.6-2.8-1
		c-2.4-0.6-3.1-2.6-2.1-6c0.3,0,0.6-0.2,0.7-0.4c10.5,2.2,21,4,31.6,5.4c6.1,0.8,12.1,1.4,18.2,1.9c5,0.4,15.6-0.5,17.6,5.6
		c1.1,3.3-0.3,5-2.6,5.7c-0.1,0-0.3-0.1-0.4-0.1c-0.6-0.3-1.2,0.1-1.4,0.5C70.4,62,65.5,61.2,63,60.9z M85.5,56
		c-0.4,2.8-3,4.8-5.7,5.3c1.4-1.8,1.6-4.5,0.6-6.9c-0.9-2.2-2.6-3.6-4.6-4.5C80.5,50.2,86.1,51.5,85.5,56z"></path><path d="M78.1,78.9c-3.6-2.2-8-1.2-11.9-2.1c-0.1,0-0.1,0-0.2,0c-1-0.3-2-0.4-3-0.6c-17.7-2.6-35.2-5.2-52.6-9.6
		c-1.2-0.3-1.8,1.6-0.5,1.9c0.1,0,0.1,0,0.2,0c-1.7,0-3.2,1.5-2.9,3.6c0.8,5.3,11,5.7,14.6,6.5c7.8,1.8,15.7,3.5,23.4,6
		c6.3,2,13.6,6.9,20.5,7c0,0.8,1,1.6,1.6,0.8c0.3-0.4,0.7-0.8,1.2-1c0.9-0.2,1.7-0.5,2.5-0.9c4.2-1,9.9-0.4,10.6-5.6
		C81.9,82.3,80.1,80.1,78.1,78.9z M40.4,81.1c-5.1-1.4-10.2-2.6-15.3-3.7c-2.4-0.5-4.8-1.1-7.3-1.7c-1.2-0.3-2.4-0.6-3.6-0.9
		c-0.5-0.1-1-0.3-1.5-0.4c-1.5-0.2-2.1-1.4-1.7-3.6c1.1,0.7,2.1-1,1-1.7c-0.1-0.1-0.3-0.2-0.4-0.2c9.7,2.4,19.5,4.5,29.4,6.2
		c4.5,0.8,9,1.4,13.6,2c1.9,0.2,6.8,0.5,11.1,1.5c0,0,0.1,0,0.1,0.1c0.1,0,0.2,0,0.4,0.1c4,1.1,7.2,2.9,6.4,6.4
		c-0.4,1.6-1.2,2.7-2.2,3.5c-0.9,0.2-1.8,0.5-2.6,1c-4.2,0.6-10-2.2-13.2-3.5C49.8,84,45.2,82.5,40.4,81.1z M77.5,87.1
		c-1.3,0.7-2.7,0.9-4.1,1.1c0.8-1.2,1.1-2.7,0.7-4.5c-0.4-1.9-1.4-3.3-2.7-4.4c0.9,0.1,1.8,0.1,2.7,0.3
		C77.6,80.2,82.4,84.5,77.5,87.1z"></path></g></svg>