<svg class="icon-shop" version="1.1" xmlns="http://www.w3.org/2000/svg" xmlns:xlink="http://www.w3.org/1999/xlink" x="0px" y="0px" viewBox="0 0 100 125" style="enable-background:new 0 0 100 125;" xml:space="preserve"><g id="Calque_2"><polygon class="st0" points="21.1,23.8 13,84.7 72.9,90.8 79.3,88 85,90.8 90.4,33.4 85,31.4 74.5,28.7 24.9,22.6 	"></polygon></g><g id="Calque_1"><path d="M91.1,32.1c-4.5-1.3-8.8-2.9-13.2-4.6c-0.2-0.1-0.4-0.1-0.6-0.1c-0.3-1.8-0.6-3.5-0.9-5.3c-0.4-2.2-0.6-4.5-1.4-6.6
		c-1.4-3.6-5.4-4.5-8.9-4.3c-1,0.1-2,0.2-2.9,0.5c-1.6-3.2-4.1-5.8-8-6c-6.2-0.5-11,4.7-13.4,10c-1,2.2-1.7,4.6-2.2,7.1
		c-2.7-0.2-5.4-0.4-8.1-0.6c-2.6-0.2-5.3-0.3-7.9-0.4c-0.8,0-1.7,0.1-2.5,0.5c-0.7-0.2-1.5,0.1-1.6,1c-3.1,20.4-6,40.9-8.6,61.4
		c-0.1,0.6,0.5,1.3,1.1,1.4c19.7,3.3,39.6,5.5,59.5,6.7c0.2,0.5,0.6,0.8,1.2,0.9c4.4,0.5,8.9,0.6,13.3,0.5c0.8,0,1.4-0.6,1.4-1.4
		c1.8-19.6,3.3-39.3,4.6-59C92.3,32.9,91.7,32.3,91.1,32.1z M65.8,14.2c1.4-0.2,2.8-0.1,4.2,0.3c1.8,0.5,2.5,1.9,2.9,3.6
		c0.7,3.1,1.2,6.2,1.7,9.3c-3-0.6-6.1-1.1-9.1-1.5c0.1-2.5,0-5-0.2-7.5c-0.1-1.2-0.4-2.6-0.8-3.8C64.9,14.4,65.3,14.3,65.8,14.2z
		 M62.5,22.6c0,0.9,0,1.9,0,2.8c-3.1-0.5-6.1-0.9-9.2-1.2c1.4-3.9,4.6-7.1,8.4-8.8C62.3,17.8,62.5,20.5,62.5,22.6z M43.9,18.6
		c1.6-4.8,6.1-11.1,11.9-9.8c2.3,0.5,3.8,2,4.8,3.9c-4.8,2.1-8.6,6.2-10.3,11.2c-1-0.1-2-0.2-3-0.3c-1.6-0.2-3.1-0.3-4.7-0.5
		C43,21.5,43.4,20,43.9,18.6z M72.5,89.3L72,89.7c-19.4-1.1-38.7-3.2-57.9-6.4c2.5-19.4,5.2-38.7,8.2-58c0.1-0.1,0.2-0.3,0.2-0.5
		c0.2-0.6,4.6,0,5.2,0c2.4,0.1,4.9,0.3,7.3,0.5c1.4,0.1,2.8,0.2,4.2,0.3c-0.6,3.6-0.9,7.2-1.4,10.7c-0.3,1.8,2.5,2.6,2.8,0.8
		c0.5-3.7,0.9-7.5,1.5-11.2c2.5,0.2,5,0.5,7.5,0.8c4.3,0.5,8.5,1,12.8,1.7c-0.1,1.3-0.2,2.5-0.3,3.8c-0.2,1.7-0.4,3.4-0.7,5.2
		c-0.2,1.1-0.5,2.3,0.4,3.2c0.3,0.3,0.9,0.6,1.4,0.4c0.7-0.3,1.1-0.6,1.2-1.3c0.1-0.4,0-0.9-0.2-1.3c0.1-0.4,0.1-1.1,0.1-1.3
		c0.1-0.9,0.2-1.7,0.3-2.6c0.2-1.8,0.4-3.7,0.6-5.5c3.3,0.5,6.6,1.1,9.8,1.7c0.3,0.9,1.3,1,2,0.6C75.5,50.4,74,69.8,72.5,89.3z
		 M75.6,86.8c1.4-18.5,2.9-37,4.3-55.4c1,0.4,2.1,0.8,3.1,1.1c0,0,0,0,0,0.1c-1.7,17.4-3.3,34.9-5,52.3L75.6,86.8z M85,89.5
		c-0.7-0.4-1.3-0.8-2-1.2c-0.7-0.6-1.4-1.3-2.2-1.8c1.7-17.7,3.4-35.4,5.1-53.1c1.1,0.4,2.3,0.7,3.4,1.1
		C88.1,52.9,86.6,71.2,85,89.5z"></path></g></svg>