<svg width="93" height="88" viewBox="0 0 93 88" fill="none" xmlns="http://www.w3.org/2000/svg">
<path d="M91.856 42.2914C90.9761 38.3475 86.9045 36.625 83.3333 35.928C79.0107 35.0844 74.5122 34.8744 70.1004 35.0616C73.3327 29.413 74.577 22.7099 73.7055 16.2581C73.2282 12.7249 72.1462 9.22804 70.357 6.13222C69.8645 5.28001 69.2809 4.45372 68.6127 3.71211C68.6336 3.61695 68.6557 3.52213 68.6757 3.42674C68.8746 2.47998 67.7777 1.9612 67.1753 2.36842C65.8906 1.37481 64.3832 0.720944 62.676 0.676361C62.1739 0.663245 61.6922 1.12215 61.7184 1.63395C62.1255 9.57769 58.0716 16.914 52.5647 22.377C47.8897 27.0148 42.1661 30.3822 36.3438 33.4388C35.5473 32.1337 34.1839 31.2906 32.6395 30.9587C31.5349 30.7214 30.4708 30.8034 29.4649 31.1089C29.3325 30.8209 29.0554 30.6118 28.6326 30.6357C25.5306 30.8105 22.4498 30.5791 19.4138 29.9163C18.1087 29.6313 16.8301 29.19 15.478 29.36C14.1626 29.5254 13.0579 30.3234 12.02 31.0909C8.06162 34.0176 4.99638 38.0294 2.95021 42.4879C0.716531 47.355 -0.182335 52.7121 0.0317212 58.0472C0.146768 60.9141 0.620538 63.7711 1.33766 66.5462C2.02972 69.2242 2.93966 72.0173 4.34173 74.4147C6.12995 77.4724 9.56076 78.5068 12.6569 79.7475C15.7788 80.9985 18.9008 82.2495 22.0227 83.5005C22.4635 83.7931 22.9292 84.0494 23.4224 84.2581C25.5372 85.1529 27.9859 84.9079 29.7041 83.4942C31.0005 84.2823 32.4127 84.8974 33.8127 85.4331C36.4606 86.4462 39.2528 87.0678 42.0583 87.4424C46.8925 88.088 51.773 87.9768 56.6254 87.6127C61.4261 87.2524 66.3184 86.8363 70.9638 85.5108C73.0629 84.9119 75.1305 84.1464 76.7771 82.6735C78.0993 81.4909 79.032 79.4685 78.098 77.7709C77.51 76.7022 76.4998 76.0125 75.3857 75.5026C76.3505 75.416 77.3143 75.3007 78.2766 75.1547C81.1194 74.7233 84.539 73.2102 83.8475 69.7355C83.4269 67.6218 81.4117 66.3917 79.334 65.5965C83.0976 65.0942 86.5 63.1179 87.9235 59.4211C89.3321 55.763 86.9094 52.4207 83.7392 50.8131C82.9667 50.4214 82.1598 50.117 81.3359 49.8639C82.8447 49.761 84.3522 49.6355 85.8569 49.4801C87.8023 49.2792 89.8959 48.8312 91.0972 47.1339C92.1033 45.7126 92.2263 43.9508 91.856 42.2914ZM63.6601 2.71391C64.7453 2.95499 65.6899 3.53475 66.5082 4.29041C65.8228 6.96649 64.7998 9.52293 63.4405 11.9347C62.9948 11.8277 62.5491 11.7207 62.1034 11.6137C62.0714 11.606 62.0399 11.5983 62.0085 11.5905C63.0684 8.75574 63.6711 5.76672 63.6601 2.71391ZM15.2594 78.7395L11.0727 77.0619C9.73339 76.5252 8.37611 75.9606 7.2695 75.012C5.18341 73.2239 4.3282 69.9076 3.56161 67.3802C2.70948 64.5707 2.18434 61.6691 1.98455 58.7412C1.29207 48.5924 5.45634 37.1641 14.5062 31.71C15.6051 31.0477 16.6802 31.2226 17.8648 31.5136C19.0442 31.8034 20.2274 32.0471 21.4286 32.2284C23.1561 32.4891 24.8973 32.6106 26.6408 32.6073C26.6122 32.6291 26.583 32.6497 26.5545 32.6718C24.5471 34.2276 23.1821 36.6157 22.0199 38.8243C20.7551 41.228 19.7795 43.7851 18.9961 46.3824C17.4009 51.6711 16.7305 57.2125 16.3219 62.7049C15.9504 67.6982 15.6721 73.0029 17.5952 77.7382C17.9349 78.5747 18.3547 79.4011 18.8525 80.1794C17.6548 79.6994 16.4571 79.2195 15.2594 78.7395ZM24.4019 82.5424C24.3002 82.4145 24.1617 82.3068 23.9817 82.2347C23.6369 82.0965 23.2921 81.9583 22.9473 81.8202C22.9196 81.8018 22.8905 81.7846 22.8632 81.766C20.8065 80.3617 19.5566 77.8782 18.8538 75.5632C17.3546 70.6249 17.9903 65.0969 18.4584 60.0461C18.9713 54.5115 19.941 48.9895 21.8947 43.769C22.8475 41.223 24.0875 38.7435 25.6337 36.5049C26.9717 34.5678 28.9415 32.7209 31.4299 32.7354C32.6656 32.7427 33.9635 33.2957 34.6461 34.321C33.6189 34.8503 32.5916 35.3731 31.5692 35.8941C31.4987 35.868 31.4249 35.8491 31.3485 35.8361C31.0245 35.4396 30.3981 35.2451 29.8954 35.6767C29.8727 35.6961 29.8509 35.7162 29.8283 35.7358C29.5556 35.8088 29.3295 36.03 29.2134 36.2917C25.5279 39.7681 23.5763 44.3227 22.9153 49.3465C22.1141 55.4353 22.1242 61.7513 22.4605 67.8736C22.7248 72.6829 23.5921 77.7609 27.0315 81.3814C27.3643 81.7317 27.7191 82.0565 28.0908 82.3604C27.0119 83.0276 25.6407 82.976 24.4019 82.5424ZM89.446 46.156C88.2452 47.6449 85.7817 47.582 84.0598 47.7374C79.5857 48.1415 75.091 48.3031 70.5994 48.2589C69.3605 48.2466 69.3699 50.1272 70.5994 50.174C74.4147 50.3195 78.4405 50.7363 82.0256 52.1303C84.9428 53.2646 87.3786 55.9198 85.9695 59.1821C84.4167 62.7772 80.4282 63.7925 76.8639 63.8406C74.7504 63.8691 72.6325 63.6193 70.5299 63.4378C70.4186 63.4282 70.3073 63.4186 70.196 63.409C68.0457 63.0984 65.8767 62.9142 63.7091 62.8489C62.4593 62.8112 62.4979 64.6595 63.7091 64.7641C65.7162 64.9374 67.7233 65.1106 69.7303 65.2839C71.1619 65.4875 72.5866 65.7449 74.003 66.0634C76.5471 66.6353 80.22 67.2284 81.7503 69.6367C82.4216 70.6932 81.8266 71.7815 80.8741 72.3803C79.6308 73.162 77.9586 73.3012 76.5413 73.4787C74.1305 73.7805 71.6952 73.8563 69.2695 73.7362C68.0972 73.5537 66.9117 73.453 65.7309 73.4242C64.4624 73.3933 64.5448 75.189 65.7309 75.3394C66.7724 75.4715 67.8145 75.5654 68.8568 75.6225C70.6985 75.9114 72.4985 76.4132 74.2471 77.118C75.3231 77.5517 76.5863 78.1752 76.553 79.5011C76.5233 80.6833 75.078 81.6808 74.1954 82.2178C71.8394 83.6511 68.7345 84.189 66.0561 84.6538C63.1708 85.1546 60.2368 85.4024 57.3203 85.6427C51.5398 86.1189 45.6614 86.266 39.9403 85.1668C36.8493 84.5729 33.5864 83.6395 30.8984 81.943C30.9548 81.3187 30.2175 80.8388 29.5984 81.0238C28.2935 79.9876 27.1833 78.7194 26.3779 77.1562C24.9674 74.4183 24.5901 71.2002 24.3934 68.1705C24.1396 64.2591 24.1577 60.3202 24.312 56.4054C24.4608 52.6278 24.597 48.7165 25.7634 45.0921C26.6779 42.2505 28.3858 39.7127 30.546 37.67C30.7814 37.6917 31.0168 37.7134 31.2521 37.7351C31.4175 37.7504 31.5742 37.708 31.7114 37.628C31.9402 37.7148 32.2078 37.7149 32.4841 37.5741C33.6727 36.9684 34.8648 36.3598 36.0538 35.741C36.3017 35.7069 36.5375 35.5892 36.6966 35.4052C43.05 32.0745 49.2792 28.4145 54.358 23.2921C57.1458 20.4804 59.5427 17.1531 61.2058 13.5214C61.2919 13.4853 61.3727 13.4367 61.4474 13.379C61.7401 13.4754 62.2133 13.6091 62.2821 13.6256C62.7408 13.7357 63.1993 13.8458 63.658 13.9559C64.0796 14.0571 64.5148 13.8943 64.7394 13.5158C66.1359 11.1628 67.2357 8.65397 68.0134 6.0399C68.427 6.62693 68.7946 7.24009 69.1157 7.84007C70.6392 10.6861 71.5316 13.9145 71.896 17.1123C72.6319 23.5703 71.0878 30.2087 67.5025 35.6316C67.1147 36.2181 67.6196 37.1194 68.3293 37.0725C72.675 36.7853 77.042 36.9231 81.3557 37.5329C84.5542 37.9851 88.6647 38.8808 89.8724 42.3223C90.3046 43.5539 90.2984 45.0992 89.446 46.156Z" fill="black"/>
</svg>
