<svg width="89" height="81" viewBox="0 0 89 81" fill="none" xmlns="http://www.w3.org/2000/svg">
<path d="M84.4533 15.6319C80.7988 13.5823 76.3864 12.5836 72.4446 11.2392C72.1436 11.1365 71.8861 11.1786 71.6854 11.3033C71.0475 11.1571 70.4103 11.0237 69.7868 10.8924C65.336 9.95505 60.8598 9.12528 56.3979 8.24204C47.472 6.47513 38.546 4.70829 29.6201 2.94138C23.742 1.77781 15.7549 -1.15206 9.91599 1.49753C5.75321 3.38651 3.5731 7.82639 5.47239 12.0524C5.47764 12.0641 5.48667 12.0684 5.49216 12.0797L5.1265 15.8429C5.08787 16.2406 5.46207 16.7378 5.86063 16.8072C23.7407 19.9203 41.7273 22.3868 59.7935 24.1277C62.7785 24.4154 67.2112 25.466 71.2539 25.5729C71.3413 25.9726 71.639 26.3027 72.1759 26.2646C76.7371 25.9405 87.5196 29.3036 88.3619 21.5987C88.6586 18.8849 86.6546 16.8665 84.4533 15.6319ZM57.868 21.9395C51.7712 21.3349 45.6824 20.6492 39.6037 19.8841C32.9738 19.0497 26.3564 18.117 19.7535 17.0904C16.6501 16.6079 13.2347 16.3865 10.2054 15.537C6.31175 14.4453 7.5034 11.9635 7.85435 8.35166C7.90836 7.79545 7.55686 7.49747 7.13682 7.4257C7.80003 5.58268 9.38126 3.99003 11.0083 3.3234C12.8609 2.56437 14.8181 2.49747 16.8048 2.61722C19.9539 2.80704 23.1332 3.69114 26.2194 4.30204C32.2762 5.50095 38.3331 6.69993 44.39 7.8989C50.4469 9.09782 56.5038 10.2968 62.5606 11.4958C65.2527 12.0287 67.9698 12.4875 70.6438 13.1051C71.9766 13.4129 73.3284 13.6903 74.5367 14.3649C77.404 15.9659 82.4527 21.5764 74.029 23.221C69.255 24.1532 62.6791 22.4166 57.868 21.9395ZM77.1537 24.6391C77.5992 24.4338 78.0264 24.2037 78.4084 23.9147C81.1579 21.8341 80.9876 18.3002 79.2977 15.6864C79.3751 15.7131 79.4527 15.739 79.5301 15.7657C81.8947 16.5817 85.6058 17.608 86.2068 20.4209C87.1949 25.0459 81.7102 25.0342 77.1537 24.6391Z" fill="black"/>
<path d="M64.7904 35.998C64.4392 36.0342 64.1944 36.2192 64.0366 36.4573C63.4447 36.3849 62.8581 36.3261 62.2855 36.2749C42.5946 34.5142 23.1988 32.3111 3.83925 28.1481C2.93263 27.9532 2.41292 28.9008 2.66249 29.5464C0.502272 30.9072 0.138137 33.9806 1.97597 36.2622C3.27504 37.875 5.34669 38.558 7.22493 39.2357C11.6974 40.8495 16.383 41.9628 20.974 43.18C29.4859 45.4367 38.0118 47.6863 46.6724 49.306C51.0714 50.1286 55.5088 50.7927 59.9666 51.1997C63.3569 51.5092 67.5681 52.3313 70.8702 51.3866C70.9107 51.375 70.9464 51.3585 70.9863 51.3463C75.5642 52.0141 80.5147 49.3193 81.6294 44.5259C83.5495 36.2695 70.0647 35.4546 64.7904 35.998ZM57.1633 48.904C50.7023 48.1554 44.31 46.8987 37.9772 45.4301C32.4589 44.1503 26.9808 42.703 21.5057 41.2514C18.6248 40.4877 15.7418 39.728 12.8804 38.8932C11.737 38.5596 10.5903 38.2272 9.45778 37.8577C8.4908 37.5829 7.54439 37.2505 6.61861 36.8605C4.18965 36.2825 3.50014 34.2925 4.55 30.8906C4.87038 30.8506 5.10841 30.6902 5.26717 30.4776C15.7211 32.6747 26.2459 34.4935 36.8433 35.8515C42.9049 36.6283 48.9845 37.2635 55.076 37.7538C60.1096 38.1589 70.695 37.2507 72.679 43.357C73.7595 46.6823 72.3878 48.3426 70.0291 49.1018C69.8957 49.0547 69.759 49.0137 69.6309 48.9573C69.0199 48.6886 68.4586 49.035 68.2225 49.4982C64.5284 50.0035 59.6603 49.1933 57.1633 48.904ZM79.7009 43.9942C79.3324 46.8435 76.7416 48.7477 73.9732 49.3059C75.3598 47.4681 75.5506 44.8451 74.5393 42.4359C73.6018 40.2024 71.9088 38.8136 69.9044 37.9177C74.6606 38.1947 80.2759 39.5477 79.7009 43.9942Z" fill="black"/>
<path d="M72.3002 66.8642C68.7333 64.6864 64.2546 65.6731 60.3526 64.7377C60.2782 64.7198 60.2155 64.7331 60.1464 64.7303C59.1386 64.4797 58.1214 64.2928 57.1445 64.1517C39.4254 61.5931 21.9756 58.9782 4.58838 54.5815C3.34015 54.2659 2.80768 56.1942 4.0567 56.5101C4.12158 56.5265 4.18695 56.5411 4.25183 56.5575C2.5249 56.5636 1.03839 58.0628 1.3374 60.1705C2.08759 65.4587 12.3676 65.8841 15.9814 66.7025C23.8221 68.4783 31.7026 70.1681 39.3553 72.6621C45.6386 74.7098 52.9235 79.5954 59.8789 79.613C59.8778 80.4457 60.8886 81.1749 61.5244 80.3772C61.8611 79.9547 62.2712 79.6157 62.7319 79.3343C63.6236 79.1308 64.4581 78.8089 65.2056 78.3876C69.4533 77.3782 75.124 77.9729 75.7651 72.7911C76.0713 70.3162 74.3057 68.0886 72.3002 66.8642ZM34.5701 69.131C29.5034 67.7071 24.3678 66.5443 19.2352 65.3867C16.8164 64.8412 14.3964 64.301 11.982 63.7366C10.7764 63.4547 9.56977 63.1748 8.36908 62.8725C7.8537 62.7534 7.34143 62.6222 6.83222 62.4791C5.32013 62.2612 4.74689 61.0634 5.11261 58.886C6.17365 59.6199 7.17469 57.8872 6.12201 57.159C5.98426 57.0638 5.84424 56.982 5.70325 56.9101C15.413 59.3247 25.1984 61.4084 35.0666 63.0706C39.5763 63.8302 44.0994 64.5058 48.6331 65.1057C50.506 65.3535 55.4655 65.5663 59.7138 66.6161C59.7528 66.6302 59.7777 66.6558 59.8209 66.6662C59.9418 66.6952 60.0633 66.7135 60.1843 66.7392C64.1974 67.8057 67.4299 69.6678 66.5399 73.0972C66.1133 74.7411 65.3405 75.8448 64.3432 76.5519C63.4247 76.7362 62.5447 77.0268 61.7336 77.5267C57.5104 78.0925 51.7415 75.3392 48.5516 73.9808C44.0044 72.0442 39.3267 70.4678 34.5701 69.131ZM71.6982 75.0658C70.4246 75.7343 69.0358 75.9661 67.6395 76.1251C68.3979 74.9083 68.7122 73.4083 68.35 71.6656C67.9566 69.7724 66.9859 68.3607 65.697 67.2906C66.59 67.3517 67.4819 67.4333 68.3692 67.5934C71.7169 68.1973 76.5873 72.4998 71.6982 75.0658Z" fill="black"/>
</svg>
