<svg class="icon-mail" version="1.1" xmlns="http://www.w3.org/2000/svg" xmlns:xlink="http://www.w3.org/1999/xlink" width="82" height="89" viewBox="0 0 100 100" style="enable-background:new 0 0 100 125;" xml:space="preserve"><g id="Calque_2"><polygon class="st0" points="17,19.8 9.7,52.1 5.6,73.3 18.4,74.4 54.9,77 88.6,80.3 88.6,72.6 93,23.8 88.6,21.1 	"></polygon></g><g id="Calque_1"><path d="M92.6,20.8c-0.1,0-0.2,0-0.3,0c0.2-1.1-1-2.5-2.3-1.7c-0.8,0.5-1.6,0.9-2.4,1.4c-24.6-1.8-49.2-3.3-73.9-2
		c-1.7,0.1-2,2-0.8,2.9c0.6,0.5,1.2,0.9,1.8,1.4c-2.4,8.7-4.4,17.5-6,26.3C7.9,54.1,7.2,59,6.5,64c-0.3,2.4-0.6,4.8-0.9,7.3
		c-0.2,1.8-0.3,4,1.9,4.5c2.1,0.5,4.4,0.3,6.6,0.4c2.7,0.1,5.4,0.2,8.1,0.3c5.2,0.2,10.4,0.5,15.6,0.8C48.3,78,58.6,78.8,69,79.8
		c6.6,0.6,13.3,1.4,19.9,2.1c0.9,0.1,1.5-0.8,1.6-1.6c2.2-19.3,3-38.6,3.7-58C94.2,21.5,93.4,20.9,92.6,20.8z M55.8,52.1
		c-1.3-0.9-2.6-1.7-3.9-2.6c8.5-7,17.3-13.5,26.5-19.5C70.2,36.6,62.6,44,55.8,52.1z M18.5,21.4C40,20.6,61.5,21.8,83,23.3
		c-12.9,8-25.2,16.9-36.7,26.7c-8.2-10.5-17.5-20-27.9-28.4C18.4,21.6,18.4,21.5,18.5,21.4z M87.5,78.7c-20.2-2.4-40.6-4.1-60.9-5.1
		c-5.2-0.3-10.4-0.5-15.6-0.7c-0.6,0-1.2,0-1.9-0.1c-0.1,0-0.3,0-0.4,0c-0.1,0-0.1,0-0.2,0c0-1.1,0.2-2.3,0.4-3.3
		c0.3-2.7,0.7-5.4,1-8c1.4-10.1,3.4-20,5.8-29.9c0.5-2.2,1.1-4.4,1.7-6.5c10.1,8.3,19.3,17.7,27.2,28.2c0.6,0.8,1.6,1,2.5,0.3
		c0.7-0.6,1.5-1.2,2.2-1.9l6,3.9c0.5,0.4,1.5,0.3,1.9-0.2c9.3-11.2,20-21.1,31.9-29.4c0.8-0.5,0.8-1.4,0.5-2.1
		c0.4,0,0.8,0.1,1.3,0.1C90.3,42.2,89.5,60.5,87.5,78.7z"></path></g></svg>