<svg class="icon-flagFr" version="1.1" id="Calque_1" xmlns="http://www.w3.org/2000/svg" xmlns:xlink="http://www.w3.org/1999/xlink"  width="82" height="89" viewBox="0 0 100 100" style="enable-background:new 0 0 100 125;" xml:space="preserve"><g id="Calque_2_1_"><path class="st0" d="M31.6,14.6L20.9,62.5l10.7,4.2l13.2-31l5.5-21.1c0,0-7.4-1.3-9.7-0.7C38.5,14.5,31.6,14.6,31.6,14.6z"></path><polygon class="st1" points="69.4,31.7 49.4,82 56.3,85.1 66.2,84.7 73.2,82.5 76.1,77.1 94.3,31.4 92.6,31.4 86.2,34.2 76,34.5 	
		"></polygon></g><g id="Calque_1_1_"><path d="M94.7,28.5c-4.8,3.2-10.6,5.9-16.6,4.8c-2.8-0.5-5.3-1.8-7.6-3.4c-0.1-0.1-0.2-0.2-0.3-0.2C68,28,65.9,26.2,64,24.3
		c-4.1-3.9-8.3-7.7-13.6-9.9c-5.1-2-10.8-2.4-16.1-1.2c-0.5,0.1-1,0.2-1.5,0.4c0.2-1.2,0.5-2.3,0.7-3.5s0.8-2.9-0.3-3.9
		c-0.8-0.7-1.7-0.9-2.7-1C28.9,5.1,27.3,5,25.8,5c-1.2,0-1.9,0.9-2.3,2c-0.6,1.5-0.9,3.1-1.2,4.6c-0.7,3.1-1.1,6.2-1.6,9.4
		c-2.1,12.7-5.1,25.3-8.4,37.8C9.7,68.7,6.8,78.5,4,88.3c-0.4,1.2,1.6,1.8,1.9,0.5C9.4,76.4,13,64,16.2,51.5
		c1.6-6.3,3-12.6,4.3-18.9s2.2-12.6,3.4-18.9c0.3-1.5,0.6-3,1-4.4c0.2-0.7,0.3-1.4,0.6-2c0.3-0.6,1.9-0.2,2.4-0.2
		C29,7.2,30.5,7,31.5,7.5c0.5,0.3,0,1.7-0.1,2.1c-0.2,0.9-0.3,1.8-0.5,2.7c-1.3,6.4-2.6,12.8-3.9,19.2c-2.2,10.3-4.6,20.6-7,30.8
		c-0.2,0.3-0.3,0.6-0.2,0.9c-0.5,2.2-1.1,4.3-1.6,6.5c-1.7,7-3.6,13.9-5.4,20.9c-0.3,1.2,1.6,1.8,1.9,0.5c2.4-9,4.7-18,6.9-27.1
		c3.1,0.6,6.1,1.6,8.9,3c0,0.7,0.8,1,1.4,0.8c1.2,0.7,2.4,1.5,3.5,2.3c4.7,3.4,7.9,8.4,12.6,11.8c0.1,0.1,0.3,0.2,0.4,0.3
		c0,0.7,0.7,1.1,1.4,0.9c4,2.3,8.7,3.5,13.3,3.4c2.6-0.1,5.4-0.5,7.8-1.6c2.5-1.1,4.2-2.9,5.4-5.3c0.8-1.6,1.3-3.3,1.9-5
		c0.7-2.2,1.4-4.3,2.2-6.5c1.5-4.3,3.1-8.6,4.7-12.9c3.3-8.6,7-17,10.9-25.4C96.5,29,95.6,27.9,94.7,28.5z M31.1,65.2
		c-2.8-1.4-5.8-2.4-8.9-3c0-0.1-0.1-0.2-0.1-0.2c3.7-15.3,7.1-30.7,10.2-46.1c0.1,0,0.2,0,0.3,0c5.4-1.7,11.1-1.5,16.4,0.3
		c0.3,0.1,0.5,0.2,0.8,0.3c-1.2,4.1-2.3,8.1-3.5,12.2c-1.3,4.4-3,8.7-5,12.9C37.4,49.2,34.2,57.1,31.1,65.2z M40.2,71.7
		c-2.2-2.1-4.6-4-7.3-5.5c1.4-3.8,2.9-7.7,4.4-11.5C39.1,50.4,41,46.2,43,42c2-4.1,3.6-8.3,4.9-12.6c1.2-4.1,2.4-8.2,3.6-12.3
		c4.3,2.1,7.8,5.5,11.3,8.8c1.8,1.7,3.7,3.4,5.7,4.9c-3.8,8-6.9,16.2-10,24.4c-3.2,8.3-6.3,16.7-9.5,25c-0.2-0.1-0.4-0.3-0.6-0.4
		C45.4,77.6,43,74.4,40.2,71.7z M79.8,64c-1.1,3-2.1,6-3.1,9c-0.9,2.6-1.6,5.2-3.1,7.5c-1.6,2.3-4.4,3.2-7.1,3.7
		c-2.7,0.5-5.5,0.4-8.1,0c-2.6-0.5-5.1-1.4-7.4-2.7c3.1-8.3,6.3-16.6,9.4-24.8c3.1-8.3,6.2-16.6,10-24.5c2,1.3,4.1,2.3,6.4,2.9
		c5.6,1.5,11.4-0.3,16.3-3C88,42.4,83.7,53.1,79.8,64z"></path></g></svg>