<svg class="icon-cgv" version="1.1" xmlns="http://www.w3.org/2000/svg" xmlns:xlink="http://www.w3.org/1999/xlink" width="82" height="89" viewBox="0 0 100 100" style="enable-background:new 0 0 100 125;" xml:space="preserve"><g id="Calque_2"><path class="st0" d="M27.6,12.5c0,0-8.4,38.9-9.1,70.9c0,0,42.9,2,56.6,7.7c0,0,7.6-47.3,5.9-52l-19.2-28L27.6,12.5z"></path></g><g id="Calque_1"><path d="M79.4,34.5c-0.1-0.1-0.2-0.1-0.4-0.2C74,27,69.2,19.4,64.7,11.7c0-0.4,0-0.7,0-1.1c0-0.9-0.8-1.8-1.8-1.8
		c-0.7-0.7-1.8-0.5-2.4,0.1C49.8,9.4,39,9.7,28.3,9.8c-0.6,0-1,0.3-1.3,0.6c-0.8-0.1-1.7,0.2-1.8,1.3c-4.3,23.7-7.2,47.7-8.7,71.8
		c-0.1,1,0.9,1.8,1.8,1.8c19.1,0.4,38.1,2.9,56.7,7.5c0.9,0.2,2-0.3,2.2-1.2C79.3,78.2,81,64.8,82,51.4c0.3-3.3,0.5-6.5,0.7-9.8
		C82.9,38.4,82.3,36.3,79.4,34.5z M64.5,18.4c2.7,4.4,5.5,8.8,8.4,13.1c-2.9-0.9-5.9-1.5-9-1.7C64.1,26,64.3,22.2,64.5,18.4z
		 M78.9,45.1c-0.2,3-0.4,6.1-0.7,9.1c-1,11.6-2.4,23.1-4.3,34.6c-17.6-4.2-35.7-6.6-53.8-7.1c1.4-22.9,4.2-45.8,8.3-68.4
		C39.3,13.3,50.1,13,61,12.5c0,0,0.1,0.1,0.1,0.1c-0.1,2.7-0.2,5.3-0.3,8c-8.4-0.7-16.9-0.8-25.3-0.2c-2.3,0.1-2.3,3.7,0,3.6
		c8.4-0.5,16.8-0.5,25.2,0.2c-0.1,1.3-0.1,2.6-0.2,3.9c-9.1-0.9-18.2-0.5-27.2,0.9c-2.3,0.4-1.3,3.8,1,3.4c8.6-1.4,17.3-1.6,26-0.8
		c0,0.9,0.9,1.7,1.8,1.7c5.2,0,10.2,1.3,14.7,3.7c0.3,0.4,0.5,0.8,0.8,1.2c0.4,0.6,1,0.8,1.5,0.8c0.2,0.4,0.2,0.8,0.2,1.3
		C79.2,41.9,79,43.5,78.9,45.1z"></path><path d="M70,42.9c-11.2-4.1-23.3-5.8-35.2-5c-2.3,0.2-2.3,3.7,0,3.6C46.4,40.6,58,42.3,69,46.3C71.2,47.1,72.1,43.7,70,42.9z"></path><path d="M70.7,50.7c-12.5-2.8-25.3-3.8-38-2.8c-2.3,0.2-2.3,3.8,0,3.6c12.4-1,24.9-0.1,37.1,2.7C72,54.6,72.9,51.2,70.7,50.7z"></path><path d="M70.8,64.2c-0.8-1.2-2.1-1.4-3.5-1.8c-1.7-0.5-3.5-1-5.3-1.4c-3.6-0.9-7.2-1.5-10.8-2.2c-7.2-1.3-14.4-2.6-21.7-1.5
		c-2.3,0.4-1.3,3.8,1,3.4c6.4-1,12.8,0.3,19.1,1.4c3.2,0.6,6.3,1.1,9.4,1.8c1.6,0.3,3.1,0.7,4.7,1.1c0.7,0.2,1.3,0.4,2,0.5
		c0.1,0,1.2,0.4,1.7,0.5c0.1,0.1,0.1,0.2,0.2,0.3c0,0,0.1,0.1,0.1,0.1c0.4,0.5,1.2,0.6,1.7,0.5c0.6-0.2,1-0.5,1.3-1
		C71.1,65.4,71.2,64.7,70.8,64.2z"></path><path d="M43.4,68.1c-4.8-1-9.6-1.1-14.5-0.4c-2.3,0.3-1.3,3.8,1,3.4c4.2-0.6,8.5-0.5,12.6,0.4C44.7,72.1,45.7,68.6,43.4,68.1z"></path></g></svg>