<svg width="85" height="91" viewBox="0 0 85 91" fill="none" xmlns="http://www.w3.org/2000/svg">
<path d="M84.1762 31.5146C79.6425 30.5167 75.0988 29.5663 70.5472 28.656C70.3835 26.5995 71.7305 25.7324 72.2269 23.7704C72.3777 23.1746 72.4854 22.7217 72.2255 22.1879C71.1791 20.0386 65.8247 20.3236 63.9371 19.9909C62.9868 19.8234 62.0388 19.6451 61.0915 19.4631C63.3459 16.8891 65.6002 14.3153 67.8546 11.7414C68.3797 11.1419 67.9937 10.3387 67.2403 10.2582C65.0311 10.022 63.2609 7.61335 61.0616 9.4151C60.6498 9.75257 60.2786 10.176 59.9338 10.6337C60.5456 8.35061 61.117 6.05617 61.6347 3.74541C61.7248 3.34298 61.5676 2.99256 61.2354 2.76428C60.2183 2.06526 59.2013 1.36629 58.1842 0.667268C57.5365 0.222094 56.9179 0.828898 56.9203 1.44859C54.182 1.45219 51.4437 1.45585 48.7054 1.45946C48.2335 1.4601 47.8396 1.85707 47.8366 2.32828C47.8065 7.0206 47.3433 11.638 46.4423 16.2307C43.3675 15.4549 40.3054 14.6267 37.2581 13.7425C36.1821 13.4304 35.7226 15.1066 36.7962 15.4181C36.9324 15.4576 37.0697 15.4927 37.206 15.532C35.1336 17.433 33.4022 19.6288 32.0621 22.0881C29.3811 21.709 26.6997 21.3328 24.0146 20.9842C20.4173 20.5172 15.6818 19.0837 12.0861 19.9761C8.45353 20.8776 8.46732 23.6821 8.3401 26.5816C8.11786 26.6641 7.92293 26.8299 7.82297 27.1099C4.00127 37.8199 1.58439 48.9628 0.802701 60.3138C0.506591 64.6135 -0.521365 70.5327 1.22067 74.6253C2.8094 78.3579 7.16855 79.1793 10.7125 80.0097C32.186 85.0409 55.0151 81.8363 75.7476 90.337C76.3043 90.5653 76.8194 89.9998 76.8473 89.4992C77.9187 70.3277 80.5701 51.3168 84.783 32.5834C84.8819 32.1439 84.6525 31.6195 84.1762 31.5146ZM61.1802 11.9944C61.6829 11.304 62.4317 10.4486 63.4258 10.5554C63.8922 10.6055 64.5198 11.0998 64.9704 11.3129C65.2129 11.4275 65.4402 11.5231 65.6649 11.6099L59.6114 18.5214C59.4434 18.7133 59.3876 18.9252 59.3955 19.1288C58.7807 19.0063 58.1654 18.886 57.5514 18.7599C57.8192 17.9233 58.0716 17.083 58.3269 16.2432C59.2322 14.7968 60.1756 13.3744 61.1802 11.9944ZM58.4911 2.99643C59.3909 3.68941 59.5525 4.1865 59.3528 5.93675C59.2026 7.25308 58.6964 8.62301 58.3588 9.89628C57.8617 11.7715 57.3136 13.6314 56.7471 15.4858C56.2802 16.2343 55.8234 16.9892 55.3771 17.7507C55.2662 17.9399 55.2517 18.1208 55.2767 18.2898C55.178 18.2696 55.0791 18.2499 54.9806 18.2286C55.2156 17.3338 55.5714 16.3332 55.6692 15.8869C56.0099 14.3306 56.3506 12.7743 56.6912 11.218L58.4911 2.99643ZM49.5574 3.19598C51.9292 3.19285 54.301 3.18967 56.6728 3.18654C55.877 6.82137 55.0814 10.4562 54.2857 14.091C54.0854 15.0059 53.5062 16.4597 53.2038 17.84C51.5075 17.4608 49.8153 17.063 48.1271 16.649C49.0008 12.2032 49.4776 7.73161 49.5574 3.19598ZM38.6084 16.5906C38.81 16.4092 38.8862 16.2001 38.8809 15.9976C41.2959 16.6781 43.722 17.3142 46.1534 17.9286C46.2379 18.717 47.3645 19.0136 47.7345 18.3214C49.4931 18.7542 51.2563 19.1671 53.0239 19.5618C53.0482 19.99 53.1417 20.3762 53.3408 20.6888C53.575 21.0564 54.136 21.2834 54.5295 21.0004C54.5947 20.9535 54.6599 20.9067 54.7252 20.8598C54.9759 20.6796 55.1745 20.3592 55.1623 20.0421C57.1343 20.4636 59.1114 20.8638 61.0953 21.2336C63.2058 21.627 69.896 21.7498 70.0698 23.8365C70.1192 24.4305 68.7934 26.3911 68.7081 27.1848C68.6641 27.5939 68.6725 27.9476 68.7024 28.2923C57.285 26.0402 45.8147 24.0624 34.2951 22.3944C34.1742 22.3769 34.0529 22.362 33.9319 22.3446C35.188 20.1995 36.7376 18.2746 38.6084 16.5906ZM75.1917 88.2604C57.5766 81.3788 38.4841 82.6054 20.037 79.9672C15.7252 79.3504 11.1617 78.6878 7.03656 77.2388C0.489727 74.9393 2.18483 65.0163 2.601 59.5109C3.32929 49.8769 5.27708 40.4228 8.24868 31.253C8.68076 31.4143 9.25156 31.2943 9.45651 30.7362C10.192 28.7337 9.49835 26.8433 10.0102 24.8976C11.3316 19.8738 17.3014 21.8765 20.6603 22.2952C24.2504 22.7428 27.8364 23.2232 31.4187 23.7288C31.5336 24.4638 32.5899 24.9076 32.9875 24.0841C33.0071 24.0436 33.0316 24.0069 33.0513 23.9666C36.3795 24.4446 39.7056 24.9385 43.0264 25.4655C51.7524 26.8503 60.4445 28.4293 69.1085 30.1523C69.3577 30.5685 69.8839 30.6081 70.2675 30.3809C74.49 31.2279 78.7077 32.0989 82.9151 33.0202C78.8745 51.2094 76.297 69.6615 75.1917 88.2604Z" fill="black"/>
<path d="M39.4411 63.1513C37.9411 60.4647 36.5394 57.1626 33.0017 57.5289C29.6137 57.8797 27.9533 60.4413 24.2443 58.512C22.7241 57.7213 21.7237 56.1691 20.1255 55.5331C18.3189 54.8142 16.4953 55.2952 15.8563 56.7591C15.8471 56.7633 15.8384 56.7617 15.829 56.7662C13.0185 58.1242 7.74115 61.2463 7.38315 64.8059C7.0259 68.358 11.8894 68.2275 14.4265 68.7957C20.3518 70.1229 26.2675 71.6157 32.2356 72.7378C34.567 73.1762 39.9321 74.9502 41.767 72.921C43.7266 70.7538 40.5071 65.0605 39.4411 63.1513ZM39.1373 71.848C36.6802 72.6354 32.2818 70.9948 29.7621 70.4497C26.7556 69.7992 23.7577 69.1067 20.756 68.4343C18.0967 67.8387 13.9008 67.7003 11.5355 66.3692C7.19039 63.9238 12.7002 60.3656 15.7377 58.7579C16.1038 59.5701 17.5128 59.4982 17.3869 58.492C17.0141 55.515 23.4784 60.3014 23.9565 60.5134C25.1512 61.0431 26.4537 61.2429 27.7494 61.096C28.6546 60.9934 29.381 60.6824 30.2271 60.3808C33.1147 59.3518 34.7906 59.7749 36.7805 62.0719C38.4399 63.9874 41.8378 70.9827 39.1373 71.848Z" fill="black"/>
<path d="M32.9693 31.0401C27.065 29.5527 23.7521 34.8751 22.1688 39.8362C22.0566 39.9283 21.9567 40.0416 21.8938 40.2025C19.7157 45.7787 20.891 53.0805 27.4061 54.9883C33.8377 56.8717 38.2009 50.685 38.9706 45.0553C39.6482 40.0989 38.8765 32.5284 32.9693 31.0401ZM37.3853 43.5152C37.0704 47.9374 34.7631 53.7515 29.4162 53.6046C23.9389 53.4541 22.2749 48.2531 22.8213 43.7242C22.9344 43.6226 23.0297 43.4925 23.0688 43.2963C23.9641 38.8087 25.3226 33.8317 30.4855 33.0297C36.583 32.0827 37.7095 38.9635 37.3853 43.5152Z" fill="black"/>
<path d="M31.799 48.7163C30.0344 50.4678 28.1444 47.5062 27.401 46.2103C26.8446 45.2406 25.3426 46.1148 25.9006 47.0873C26.6906 48.4643 27.5866 49.9248 29.106 50.5796C30.4445 51.1564 31.9758 50.9891 33.0277 49.945C33.8226 49.1561 32.5939 47.9273 31.799 48.7163Z" fill="black"/>
<path d="M28.2004 40.5278C27.0823 40.5278 27.0805 42.2654 28.2004 42.2654C29.3185 42.2654 29.3204 40.5278 28.2004 40.5278Z" fill="black"/>
<path d="M32.5445 42.2654C31.4264 42.2654 31.4245 44.0031 32.5445 44.0031C33.6626 44.0031 33.6644 42.2654 32.5445 42.2654Z" fill="black"/>
<path d="M75.8545 41.6088C75.8076 41.2069 75.6144 40.8995 75.2167 40.771C67.1962 38.1791 58.9229 35.9508 50.5629 34.7722C48.6356 34.5005 44.4036 35.2344 46.4235 37.7712C45.125 41.7814 48.4407 42.2031 52.4479 43.0634C55.7616 43.7747 59.0916 44.412 62.4623 44.7847C66.496 45.2307 70.542 45.0433 74.3594 46.6153C74.8048 46.7987 75.3009 46.4122 75.4281 46.0085C75.9245 44.4335 76.0502 43.2859 75.8545 41.6088ZM55.3429 41.8972C53.4573 41.5236 46.7112 41.2595 48.2947 37.6755C48.4096 37.4154 48.394 37.1652 48.3033 36.952C49.2597 36.9841 51.9085 36.7793 52.5249 36.8555C53.6013 36.9885 54.6823 37.2488 55.746 37.4595C58.1573 37.937 60.557 38.4718 62.9438 39.0592C65.0656 39.5814 67.1762 40.1466 69.275 40.7547C72.0201 41.55 74.5014 41.6575 73.9738 44.6366C70.5082 43.4369 66.9364 43.4989 63.2841 43.1393C60.6164 42.8766 57.9707 42.4178 55.3429 41.8972Z" fill="black"/>
<path d="M73.7642 52.7912C65.2673 49.2908 56.4567 47.0702 47.3249 46.0703C46.985 46.033 46.763 46.1792 46.6321 46.3909C43.7391 46.6237 44.177 50.3326 46.4657 51.6671C49.5217 53.4489 54.0084 53.8742 57.4036 54.788L71.2741 58.5213C71.8336 58.6719 72.3553 58.2467 72.3739 57.6835C72.4128 56.5052 72.4517 55.3268 72.4906 54.1485C72.7606 54.257 73.0329 54.3559 73.3022 54.4668C74.3353 54.8924 74.7854 53.212 73.7642 52.7912ZM70.7724 53.5612C70.7394 54.5607 70.7064 55.5602 70.6734 56.5597C66.6761 55.4838 62.6788 54.4079 58.6815 53.3321C56.5057 52.7464 54.33 52.1608 52.1542 51.5752C51.0663 51.2824 49.9784 50.9896 48.8906 50.6968C47.5905 50.5919 47.0214 49.7333 47.1832 48.1212C47.4714 48.139 47.6818 48.0343 47.8209 47.8711C55.726 48.7788 63.3773 50.6621 70.7911 53.4821C70.7877 53.5106 70.7734 53.5311 70.7724 53.5612Z" fill="black"/>
<path d="M66.3051 63.6895C66.1986 63.6636 66.0915 63.6402 65.985 63.6143C65.8908 63.0393 65.302 62.5208 64.715 62.9296C64.5867 63.019 64.4719 63.1223 64.3696 63.235C58.352 61.79 52.3177 60.4213 46.2596 59.1542C45.9608 59.0918 45.7154 59.1785 45.5295 59.3326C45.012 59.0967 44.2647 59.3364 44.2735 60.0754C44.2887 61.3414 44.3038 62.6074 44.319 63.8734C44.3236 64.2586 44.5862 64.6054 44.9569 64.7112C51.5803 66.6004 58.29 67.9257 65.1293 68.7264C66.1055 68.8407 66.2126 67.5086 65.4742 67.1005C65.5381 66.7059 65.6021 66.3114 65.6661 65.9168C65.8286 65.7692 65.9373 65.5761 65.9584 65.3696C66.9559 65.4858 67.3512 63.9442 66.3051 63.6895ZM48.2208 63.8161C46.1745 62.9892 46.0418 62.6452 46.019 60.878C51.9879 62.1286 57.9341 63.4771 63.8639 64.9002C63.8895 65.0561 63.9389 65.2067 64.007 65.353C63.9297 65.8298 63.8524 66.3065 63.7751 66.7832C63.7733 66.7948 63.7778 66.8039 63.7763 66.8154C60.2148 66.3632 56.6777 65.7806 53.1683 65.0113C51.5667 64.6602 49.7421 64.4307 48.2208 63.8161Z" fill="black"/>
</svg>
