<svg version="1.1" id="Calque_1" xmlns="http://www.w3.org/2000/svg" xmlns:xlink="http://www.w3.org/1999/xlink" x="0px" y="0px" viewBox="0 0 100 125" style="enable-background:new 0 0 100 125;" xml:space="preserve"><style type="text/css">
	.st0{fill:#3A81D6;}
	.st1{fill:#BE63CE;}
	.st2{fill:#F48D47;}
	.st3{fill:#F26149;}
</style><g id="Calque_2_1_"><path class="st0" d="M14.5,7.5c-2.3,2.8-3.2,6.5-4,10.1c-1.5,6.8,0.1,9.3,0,17.2c0,2.8-1.2,8.9-3.4,20.9c-1,5.1-1.9,9.6-2.3,16.2
		c-0.6,8.4,0.3,10.5,1,11.7c1.4,2.5,4,4.5,13.7,7.1c7.5,2,15.2,3.3,26.4,4.1c14.2,1.1,11.5-0.2,19.5,0.8c4.5,0.6,10.5,1.7,17.7,0
		c2.1-0.5,4.3-1.3,6.3-3.1c2.6-2.6,3.3-5.8,3.6-7.9c2-11.4,2.5-19.8,2.5-19.8c0.5-9.1,0.7-13.8,0.8-19c0.1-6.5-0.1-1.8-0.2-15.5
		c0-3.9,0-6.9-1.2-10.9c-0.7-2.6-1.6-5.5-4.1-7.8c-2.8-2.5-6.2-2.9-7.9-3.1c-24.8-3-20.1-3-23.4-3C29.1,5.8,20.2,0.7,14.5,7.5z"></path><path class="st1" d="M10.4,31.3l24.4,5.1l-3.1,10.7L31,54.4L35.4,68l8.5,7.4l13.3,3.5l11.2-3.5l9.8-12.9l0.9-10.9l-3.6-11l3.6-0.4
		l17,3.1l0.1,4.7l-2.4,31.5L90.6,91l-4.9,3.9l-13.8,0.8c0,0-21.4-0.8-23.7-0.8s-25.9-3.4-25.9-3.4L8,88.2L4.5,76.1l2-16.7L10.4,31.3
		z"></path><path class="st2" d="M48.5,27.2C39.4,29.1,34.9,37.4,34,39.3c-3.8,7.2-2.9,14.1-2.5,16.4c0.5,3,2.2,11.4,9.9,17.4
		c1.9,1.5,8.1,6.3,16.6,5.5C70,77.5,75.8,66.1,76.3,65c4.1-8.4,1.9-16.3,1.3-18.2c-2.1-6.7-6.4-10.6-8.5-12.4
		C66.2,31.9,58.3,25.1,48.5,27.2z"></path><path class="st3" d="M51.5,34.3c-4.5,0.6-7.3,3.6-8.3,4.6c-4.9,5.2-4.4,12-4.3,13.4c0.5,5.6,4,14.4,12.6,16
		c7.3,1.4,14.5-3.2,17.2-9.6c3.3-8-1.8-15.3-2.6-16.5C65.3,41.2,59.5,33.3,51.5,34.3z"></path><path class="st3" d="M72.4,14.6c-2.5,1.4-2.1,5.7-1.5,12.9c0.1,1.2,0.3,2.6,1.3,3.6c1.2,1.2,2.7,1.1,4.8,1.3
		c6.5,0.7,8.7,3,10.2,1.7c0.7-0.6,0.3-1.1,0.8-4.3c0.7-4.7,1.6-5.3,1.5-8.3c0-1-0.2-4.5-1.9-5.2c-0.8-0.3-1.3,0.3-2.8,0.4
		c-1.9,0.2-3.1-0.7-4.6-1.3C79.4,15.1,74.9,13.2,72.4,14.6z"></path></g><g id="Calque_1_1_"><g><path d="M96,18.9c-0.6-2.7-1.8-5.1-3.8-7.1c-1.8-1.7-4-2.8-6.4-3.6s-5-1.2-7.5-1.6c-3.4-0.5-6.8-0.9-10.2-1.2
			C54.2,4,40.3,3.6,26.4,3.2c-2.3-0.1-4.7-0.1-7-0.2c-1.9,0-3.6,0.4-4.8,1.9c-1.3,1.6-2,3.8-2.8,5.6c-0.7,1.6-1.4,3.2-2,4.8
			c-0.3,0.1-0.6,0.5-0.6,0.9c0,0.2,0,0.4,0,0.5l0,0c-0.1,0.3-0.1,0.6,0,0.8C8.9,31,7.8,44.4,5.7,57.7C4.6,64.4,3,71.1,3.5,78
			c0.2,2.8,0.7,5.6,2.2,8c1.5,2.5,4.2,3.4,6.8,4.2c12.5,4.1,25.7,5.4,38.7,6.1c6.7,0.3,13.3,0.6,20,0.7c3.4,0.1,6.9,0,10.3-0.4
			c2.9-0.3,5.6-0.9,7.8-2.8c4-3.3,4.9-9.3,5.6-14.1c1-6.8,1.5-13.6,1.8-20.4c0.3-6.9,0.4-13.8,0.5-20.7C97.2,32.1,97.4,25.3,96,18.9
			z M11,25.3c0.1-2.7,0.2-5.5,0.2-8.2c1.3-3.1,2.6-6.2,4.1-9.3c0.6-1.3,1.2-2.4,2.7-2.7c0.7-0.1,1.4-0.1,2.1,0c1,0,1.9,0.1,2.9,0.1
			c7,0.2,14,0.4,20.9,0.7c7,0.3,13.9,0.7,20.8,1.4c3.5,0.3,6.9,0.7,10.4,1.1c2.8,0.3,5.6,0.7,8.4,1.4c2.4,0.6,4.8,1.6,6.7,3.2
			c2.2,1.8,3.3,4.4,3.8,7.2c1.3,6.6,1,13.5,0.9,20.2c0,0.6,0,1.3,0,1.9c-3.3-0.3-6.6-0.6-9.8-1.1c-1.8-0.3-3.5-0.5-5.3-0.8
			c-0.8-0.1-1.6-0.3-2.4-0.4c-0.4-0.1-0.8-0.2-1.2-0.2c-0.2,0-0.5-0.1-0.7-0.1c-0.1-0.1-0.1-0.2-0.2-0.3c-0.1-0.4-0.4-0.7-0.7-0.9
			c-3-3.4-6.9-6.2-11-8.3c-3.2-1.7-6.8-2.9-10.4-3.2c0.2,0,0.3-0.1,0.5-0.1c1.3-0.2,0.8-2.3-0.6-2c-7,1.2-13.2,5.2-17.5,10.8h-0.1
			c-4.1-0.8-8.2-1.7-12.3-2.5c-2.1-0.4-4.1-0.8-6.2-1.2c-1-0.2-1.9-0.4-2.9-0.6c-0.9-0.2-1.8-0.3-2.5-1c-0.2-0.2-0.5-0.3-0.8-0.3
			C10.9,28.4,10.9,26.9,11,25.3z M73.1,39.8c0.1,0.6,0.5,1.1,1.1,1.4c2.2,3,3.6,6.5,4,10.3c0.5,5.7-1.2,11.4-4.1,16.2
			c-3,4.8-7.5,8.7-13.1,9.9c-5.4,1.2-11.2-0.3-15.9-3.1c-8.7-5-14.2-15-13.1-25c0.6-5.5,3.2-10.6,6.9-14.7c0.5,0.4,1.2,0.4,1.6-0.2
			c2.9-4.9,8.9-6.4,14.3-5.5c5.8,1,11.5,4.2,15.9,8C71.4,38,72.3,38.8,73.1,39.8z M92.5,81.5c-0.8,5-2.3,10.7-7.7,12.4
			c-3.1,1-6.7,0.9-9.9,1c-3.4,0.1-6.9-0.1-10.3-0.2c-13.2-0.4-26.4-0.9-39.4-3.4c-3.2-0.6-6.4-1.4-9.5-2.3c-2.7-0.8-6.2-1.4-8-3.8
			c-1.7-2.3-2-5.6-2.2-8.4c-0.2-3.5,0.3-6.9,0.8-10.3C7.4,59.7,8.6,53,9.4,46.1c0.5-4.6,0.9-9.2,1.2-13.9c1.3,0.9,2.9,1.1,4.5,1.4
			l6.6,1.3c4.2,0.8,8.3,1.7,12.5,2.5C33,39.1,32.1,41,31.3,43c-3.7,9.5-1.1,20.1,5.5,27.6c6.9,7.9,18.9,12.3,28.9,7.7
			c5-2.3,8.8-6.8,11.3-11.5c2.6-4.9,3.8-10.7,3.1-16.2c-0.4-3.1-1.4-6-3-8.5c1.6,0.3,3.3,0.6,4.9,0.9c4.2,0.7,8.5,1.2,12.8,1.5
			C94.8,56.8,94.4,69.2,92.5,81.5z"></path><path d="M69,45.9C65.8,37.7,57.3,32.5,48.6,33c-0.9,0.1-1.2,1-0.9,1.6c-3.5,1.9-6.4,4.8-8.2,8.4c-2.4,4.6-2.6,10-0.8,14.8
			c1.7,4.8,5.4,8.9,10.1,10.9c4.5,1.9,9.6,1.8,14-0.3C70.8,64.5,72,53.5,69,45.9z M68.3,56.3c-0.4,2.9-1.5,5.8-3.5,7.9
			c-1.6,1.8-3.8,2.9-6.1,3.4c-4.9,1.2-10.1-0.5-13.7-3.9c-4.3-4-6.3-10.3-5-16s5.7-10.5,11.1-12.4c0.1-0.1,0.3-0.1,0.4-0.2
			c4.5,0.4,8.8,2.4,12,5.7C67.3,44.9,69,50.8,68.3,56.3z"></path><path d="M50.7,44.3c-1.8-1.5-4.2-1.2-5.8,0.2c-0.1,0-0.2,0.1-0.3,0.1c-3,2.2-3.8,6.2-1.6,9.3c2.1,3,6.8,3.9,8.6,0.1
			c0.7-1.5,0.9-3.4,1-5C52.7,47.3,52.1,45.4,50.7,44.3z M50,52.7c-0.9,2.8-3.9,1.8-5.3-0.1c-0.7-1-0.9-2.3-0.7-3.5
			c0.6,0.3,1.5,0,1.4-0.9c-0.2-2.4,2.8-3.9,4.4-1.8C51.1,48.1,50.6,50.9,50,52.7z"></path><path d="M89.1,17.4c-1.8-1.8-5.1-2-7.5-2.5c-3.1-0.7-6.3-1.2-9.5-1.3c-0.6,0-1,0.5-1.1,1.1c-0.2,1.4-0.3,2.7-0.5,4.1
			c0,0.2,0,0.3,0,0.4c-0.3,2-0.5,4-0.8,6c-0.3,2.3-0.1,4.7,1.6,6.5c0.7,0.8,1.8,1.2,2.8,1.4c1.4,0.3,2.9,0.5,4.3,0.7
			c2.8,0.5,5.7,0.9,8.5,1.4c0.6,0.1,1.1-0.1,1.3-0.7c1-2.9,1.6-6,1.9-9C90.6,22.8,91.2,19.3,89.1,17.4z M88.4,21.8
			c0,1.3-0.1,2.6-0.2,3.9c-0.3,2.4-0.8,4.8-1.5,7.2l-6.3-1c-1.2-0.2-2.4-0.4-3.7-0.6c-1.1-0.2-2.3-0.3-3.3-0.8c-2-1-1.6-4-1.4-5.8
			c0.3-2.5,0.6-5,1-7.6c0-0.2,0-0.3,0-0.4c0-0.3,0.1-0.7,0.1-1c2.4,0.1,4.9,0.5,7.3,1c1.3,0.3,2.7,0.6,4,0.9
			c1.1,0.2,2.2,0.5,3.1,1.1C88.5,19.4,88.4,20.7,88.4,21.8z"></path></g></g></svg>