<svg version="1.1" xmlns="http://www.w3.org/2000/svg" xmlns:xlink="http://www.w3.org/1999/xlink" width="82" height="89" viewBox="0 0 100 100" style="enable-background:new 0 0 100 125;" xml:space="preserve"><g id="Calque_2"><path class="st0" d="M41.4,27.9l37.5,6.6v-4l0.7-2.6c0,0-1.8-0.9-2.1-1.4C77.2,26,68.3,25,68.3,25l7.5-8.8l-2.4-0.7l-2.9-0.8
		l-1.6,2.1l-0.6-2.1l1-5.3l-2.2-2.6L66.4,8l-2-0.7l-6.6,0.2L57,11.8l-0.1,3.7V19L56,21l-1,1.9L52.5,21L46,20.5L41.4,27.9z"></path><path class="st1" d="M20.6,25.8c-1.7,1.5-2.6,5.6-3.3,8.7S11.4,47,10.4,64.1s1.7,17,2.8,17.6c1.1,0.7,18.4,5,33.1,5.6
		C61,88,73.4,90.6,75,91.2c1.7,0.7,9.8,3.3,9.8,3.3s1.4-18.4,3.4-32s4.5-25,4.5-25l-3-0.9l-48.4-8.7L20.6,25.8z"></path><path class="st2" d="M38.4,36.9c-3.4,1.9-8.8,12.3-7.5,16.4s8.6,7.8,10.5,5.9s7.8-10.1,4.9-16.4C43.4,36.6,38.4,36.9,38.4,36.9z"></path><path class="st3" d="M27.6,61.6l-7.9,4.3l-2.1,4.5l4.5,2.5L46.3,78l3.7-0.9c0,0-0.8-4.3-0.5-5.2c0.2-0.9-5.3-8.3-5.3-8.3l-5.8,1
		l-3,0.7L27.6,61.6z"></path></g><g id="Calque_1"><path d="M93,36.5c-4.5-1-9.1-1.9-13.6-2.9c-0.2-2.1,1.2-2.9,1.7-4.9c0.2-0.6,0.3-1,0-1.6c-1-2.1-6.4-1.9-8.3-2.2
		c-1-0.2-1.9-0.3-2.8-0.5c2.3-2.6,4.5-5.1,6.8-7.7c0.5-0.6,0.1-1.4-0.6-1.5c-2.2-0.2-4-2.6-6.2-0.8c-0.4,0.3-0.8,0.8-1.1,1.2
		c0.6-2.3,1.2-4.6,1.7-6.9c0.1-0.4-0.1-0.8-0.4-1c-1-0.7-2-1.4-3.1-2.1c-0.6-0.4-1.3,0.2-1.3,0.8c-2.7,0-5.5,0-8.2,0
		c-0.5,0-0.9,0.4-0.9,0.9c0,4.7-0.5,9.3-1.4,13.9c-3.1-0.8-6.1-1.6-9.2-2.5c-1.1-0.3-1.5,1.4-0.5,1.7c0.1,0,0.3,0.1,0.4,0.1
		c-2.1,1.9-3.8,4.1-5.1,6.6c-2.7-0.4-5.4-0.8-8-1.1c-3.6-0.5-8.3-1.9-11.9-1c-3.6,0.9-3.6,3.7-3.7,6.6c-0.2,0.1-0.4,0.2-0.5,0.5
		c-3.8,10.7-6.2,21.9-7,33.2c-0.3,4.3-1.3,10.2,0.4,14.3c1.6,3.7,5.9,4.6,9.5,5.4c21.5,5,44.3,1.8,65,10.3c0.6,0.2,1.1-0.3,1.1-0.8
		c1.1-19.2,3.7-38.2,7.9-56.9C93.7,37.1,93.5,36.6,93,36.5z M70,17c0.5-0.7,1.3-1.5,2.2-1.4c0.5,0.1,1.1,0.5,1.5,0.8
		c0.2,0.1,0.5,0.2,0.7,0.3l-6.1,6.9c-0.2,0.2-0.2,0.4-0.2,0.6c-0.6-0.1-1.2-0.2-1.8-0.4c0.3-0.8,0.5-1.7,0.8-2.5
		C68.1,19.8,69,18.4,70,17z M67.3,8c0.9,0.7,1.1,1.2,0.9,2.9c-0.2,1.3-0.7,2.7-1,4c-0.5,1.9-1,3.7-1.6,5.6c-0.5,0.7-0.9,1.5-1.4,2.3
		c-0.1,0.2-0.1,0.4-0.1,0.5c-0.1,0-0.2,0-0.3-0.1c0.2-0.9,0.6-1.9,0.7-2.3c0.3-1.6,0.7-3.1,1-4.7L67.3,8z M58.4,8.2
		c2.4,0,4.7,0,7.1,0c-0.8,3.6-1.6,7.3-2.4,10.9c-0.2,0.9-0.8,2.4-1.1,3.7c-1.7-0.4-3.4-0.8-5.1-1.2C57.8,17.2,58.3,12.7,58.4,8.2z
		 M47.5,21.6c0.2-0.2,0.3-0.4,0.3-0.6c2.4,0.7,4.8,1.3,7.3,1.9c0.1,0.8,1.2,1.1,1.6,0.4c1.8,0.4,3.5,0.8,5.3,1.2
		c0,0.4,0.1,0.8,0.3,1.1c0.2,0.4,0.8,0.6,1.2,0.3c0.1,0,0.1-0.1,0.2-0.1c0.3-0.2,0.4-0.5,0.4-0.8c2,0.4,3.9,0.8,5.9,1.2
		c2.1,0.4,8.8,0.5,9,2.6c0,0.6-1.3,2.6-1.4,3.3c0,0.4,0,0.8,0,1.1c-11.4-2.3-22.9-4.2-34.4-5.9c-0.1,0-0.2,0-0.4,0
		C44,25.2,45.6,23.3,47.5,21.6z M84,93.3c-17.6-6.9-36.7-5.7-55.2-8.3c-4.3-0.6-8.9-1.3-13-2.7C9.3,79.9,11,70,11.4,64.5
		c0.7-9.6,2.7-19.1,5.6-28.3c0.4,0.2,1,0,1.2-0.5c0.7-2,0-3.9,0.6-5.8c1.3-5,7.3-3,10.7-2.6c3.6,0.4,7.2,0.9,10.8,1.4
		c0.1,0.7,1.2,1.2,1.6,0.4c0,0,0-0.1,0.1-0.1c3.3,0.5,6.7,1,10,1.5c8.7,1.4,17.4,3,26.1,4.7c0.2,0.4,0.8,0.5,1.2,0.2
		c4.2,0.8,8.4,1.7,12.6,2.6C87.7,56.2,85.1,74.7,84,93.3z"></path><path d="M48.3,68.1c-1.5-2.7-2.9-6-6.4-5.6c-3.4,0.4-5,2.9-8.8,1c-1.5-0.8-2.5-2.3-4.1-3c-1.8-0.7-3.6-0.2-4.3,1.2c0,0,0,0,0,0
		c-2.8,1.4-8.1,4.5-8.4,8c-0.4,3.6,4.5,3.4,7,4c5.9,1.3,11.8,2.8,17.8,3.9c2.3,0.4,7.7,2.2,9.5,0.2C52.6,75.7,49.4,70.1,48.3,68.1z
		 M48,76.8c-2.5,0.8-6.9-0.9-9.4-1.4c-3-0.7-6-1.3-9-2c-2.7-0.6-6.9-0.7-9.2-2.1c-4.3-2.4,1.2-6,4.2-7.6c0.4,0.8,1.8,0.7,1.6-0.3
		c-0.4-3,6.1,1.8,6.6,2c1.2,0.5,2.5,0.7,3.8,0.6c0.9-0.1,1.6-0.4,2.5-0.7c2.9-1,4.6-0.6,6.6,1.7C47.3,69,50.7,76,48,76.8z"></path><path d="M41.8,36c-5.9-1.5-9.2,3.8-10.8,8.8c-0.1,0.1-0.2,0.2-0.3,0.4c-2.2,5.6-1,12.9,5.5,14.8c6.4,1.9,10.8-4.3,11.6-9.9
		C48.5,45.1,47.7,37.5,41.8,36z M46.2,48.5c-0.3,4.4-2.6,10.2-8,10.1c-5.5-0.2-7.1-5.4-6.6-9.9c0.1-0.1,0.2-0.2,0.2-0.4
		c0.9-4.5,2.3-9.5,7.4-10.3C45.4,37.1,46.6,44,46.2,48.5z"></path><path d="M40.6,53.7c-1.8,1.8-3.7-1.2-4.4-2.5c-0.6-1-2.1-0.1-1.5,0.9c0.8,1.4,1.7,2.8,3.2,3.5c1.3,0.6,2.9,0.4,3.9-0.6
		C42.7,54.2,41.4,52.9,40.6,53.7z"></path><path d="M37,45.5c-1.1,0-1.1,1.7,0,1.7C38.2,47.3,38.2,45.5,37,45.5z"></path><path d="M41.4,47.3c-1.1,0-1.1,1.7,0,1.7C42.5,49,42.5,47.3,41.4,47.3z"></path><path d="M84.7,46.6c0-0.4-0.2-0.7-0.6-0.8c-8-2.6-16.3-4.8-24.7-6c-1.9-0.3-6.2,0.5-4.1,3c-1.3,4,2,4.4,6,5.3
		c3.3,0.7,6.6,1.3,10,1.7c4,0.4,8.1,0.3,11.9,1.8c0.4,0.2,0.9-0.2,1.1-0.6C84.8,49.4,84.9,48.3,84.7,46.6z M64.2,46.9
		c-1.9-0.4-8.6-0.6-7-4.2c0.1-0.3,0.1-0.5,0-0.7c1,0,3.6-0.2,4.2-0.1c1.1,0.1,2.2,0.4,3.2,0.6c2.4,0.5,4.8,1,7.2,1.6
		c2.1,0.5,4.2,1.1,6.3,1.7c2.7,0.8,5.2,0.9,4.7,3.9c-3.5-1.2-7-1.1-10.7-1.5C69.5,47.9,66.8,47.4,64.2,46.9z"></path><path d="M82.6,57.8c-8.5-3.5-17.3-5.7-26.4-6.7c-0.3,0-0.6,0.1-0.7,0.3c-2.9,0.2-2.5,3.9-0.2,5.3c3.1,1.8,7.5,2.2,10.9,3.1
		l13.9,3.7c0.6,0.2,1.1-0.3,1.1-0.8c0-1.2,0.1-2.4,0.1-3.5c0.3,0.1,0.5,0.2,0.8,0.3C83.2,59.9,83.6,58.2,82.6,57.8z M79.6,58.6
		c0,1-0.1,2-0.1,3c-4-1.1-8-2.2-12-3.2c-2.2-0.6-4.4-1.2-6.5-1.8c-1.1-0.3-2.2-0.6-3.3-0.9c-1.3-0.1-1.9-1-1.7-2.6
		c0.3,0,0.5-0.1,0.6-0.3C64.6,53.8,72.2,55.7,79.6,58.6C79.6,58.5,79.6,58.5,79.6,58.6z"></path><path d="M75.1,68.7c-0.1,0-0.2,0-0.3-0.1c-0.1-0.6-0.7-1.1-1.3-0.7c-0.1,0.1-0.2,0.2-0.3,0.3c-6-1.4-12.1-2.8-18.1-4.1
		c-0.3-0.1-0.5,0-0.7,0.2c-0.5-0.2-1.3,0-1.3,0.7c0,1.3,0,2.5,0,3.8c0,0.4,0.3,0.7,0.6,0.8c6.6,1.9,13.3,3.2,20.2,4
		c1,0.1,1.1-1.2,0.3-1.6c0.1-0.4,0.1-0.8,0.2-1.2c0.2-0.1,0.3-0.3,0.3-0.5C75.8,70.5,76.2,68.9,75.1,68.7z M57.1,68.8
		c-2-0.8-2.2-1.2-2.2-2.9c6,1.3,11.9,2.6,17.8,4c0,0.2,0.1,0.3,0.1,0.5c-0.1,0.5-0.2,1-0.2,1.4c0,0,0,0,0,0c-3.6-0.5-7.1-1-10.6-1.8
		C60.4,69.7,58.6,69.4,57.1,68.8z"></path></g></svg>