<svg width="83" height="90" viewBox="0 0 83 90" fill="none" xmlns="http://www.w3.org/2000/svg">
<path d="M79.8806 12.9839C79.8262 11.8991 78.2885 11.8169 78.077 12.7254C78.0351 12.7573 77.9921 12.7827 77.9522 12.8246L77.9104 12.8683C67.75 10.4167 57.6646 7.68921 47.6554 4.6966C47.5359 4.6215 47.3999 4.57853 47.2538 4.57588C42.4255 3.12849 37.6136 1.62484 32.8223 0.0507732C32.2416 -0.14003 31.8371 0.235839 31.7275 0.696422C31.5546 0.764823 31.3802 0.845093 31.2027 0.946851C27.5092 3.06487 24.0698 5.75586 20.612 8.23563C13.6639 13.2183 6.90299 18.46 0.278706 23.8642C-0.0362993 24.1212 -0.0567185 24.4952 0.0810961 24.8164C0.392501 33.2285 0.703851 41.6405 1.0152 50.0526C1.12281 52.9593 0.373995 57.674 1.47179 60.3658C2.39599 62.6321 4.43802 63.0834 6.59597 64.1141C10.7971 66.1206 14.957 68.2108 19.0822 70.3674C19.1578 70.6764 19.2334 70.9854 19.309 71.2944C19.5362 72.223 20.715 72.0778 21.0265 71.3882C28.3257 75.255 35.5083 79.3422 42.5724 83.6241C42.5703 83.666 42.5683 83.708 42.5662 83.7499C42.5251 84.588 43.4227 84.8196 43.98 84.476C46.0935 85.7676 48.1998 87.0709 50.292 88.3964C49.9021 89.1779 51.0154 90.1311 51.7989 89.4229C51.8128 89.4103 51.8263 89.3973 51.8402 89.3848C52.0957 89.3174 52.3053 89.1434 52.3992 88.8691C62.645 79.5501 72.116 69.4711 80.7771 58.6623C81.3372 58.955 82.1718 58.7131 82.1313 57.9039C81.3811 42.9305 80.6308 27.9572 79.8806 12.9839ZM70.5194 12.9069C70.221 13.2415 69.9673 13.6127 69.7707 14.0312C66.009 18.0353 62.1468 21.934 58.1729 25.7281C56.1527 27.6568 54.0855 29.5356 52.0073 31.4013C50.4167 32.8291 48.2529 35.4487 46.1785 36.5381C45.9727 36.4367 45.7313 36.4205 45.4741 36.5224C45.38 36.4897 45.2752 36.4702 45.1574 36.4702C44.9389 36.4702 44.7745 36.546 44.6363 36.6476C44.2418 36.5276 43.8509 36.4134 43.4679 36.3147C42.1618 35.9779 40.8608 35.6223 39.5579 35.274C46.6157 26.2808 54.6637 18.2094 63.6188 11.0972C65.9155 11.7132 68.2148 12.3197 70.5194 12.9069ZM28.1269 38.9315C25.5711 38.1335 23.0431 37.944 20.6202 36.696C19.1048 35.9154 17.9586 35.2005 16.3346 34.8713C16.0879 33.3464 15.883 31.8126 15.7427 30.2646C25.3783 33.2668 35.0795 36.0511 44.8575 38.5682C44.8001 38.7255 44.754 38.8887 44.7167 39.0561C44.6108 39.1069 44.5085 39.1876 44.4149 39.3037C43.0862 40.9506 41.7633 42.6091 40.4274 44.2576C36.7902 41.7182 32.3159 40.2392 28.1269 38.9315ZM39.2628 45.686C34.4822 51.5133 29.4523 57.1212 23.2494 61.473C21.0902 53.2582 18.2553 45.202 16.6852 36.8739C18.1315 37.3392 19.4099 38.1433 20.7921 38.8553C22.3929 39.6799 24.3116 39.921 26.0506 40.2952C30.5129 41.2555 35.4413 43.0655 39.2628 45.686ZM55.3265 8.81462C57.3619 9.39103 59.4023 9.94999 61.4434 10.5058C52.5721 17.6637 44.6378 25.763 37.6329 34.7616C34.985 34.042 32.3413 33.3072 29.7044 32.5481C33.9863 29.3978 37.6952 25.7722 41.1611 21.7176C45.2941 16.8828 49.2544 12.0128 55.0233 9.05768C55.1539 8.9908 55.2531 8.90749 55.3265 8.81462ZM47.3927 6.51474C49.2297 7.06313 51.0696 7.60123 52.9117 8.1314C42.986 13.8358 37.3117 24.927 27.9572 31.5584C27.8032 31.6676 27.702 31.8016 27.6371 31.9448C24.5109 31.0321 21.3898 30.1018 18.2782 29.1402C28.6354 22.4418 37.0462 13.2282 47.3927 6.51474ZM39.8462 4.20586C41.5992 4.75561 43.358 5.28543 45.1159 5.81819C35.1655 12.5828 26.9058 21.5283 16.7093 27.9668C16.4739 28.1155 16.348 28.3177 16.3014 28.5313C15.9756 28.4295 15.6485 28.3322 15.3229 28.2299C15.1063 28.0287 14.809 27.9471 14.5246 27.9772C13.0079 27.4983 11.4886 27.028 9.97559 26.5377C9.97643 26.4826 9.96102 26.439 9.95405 26.3892C13.527 21.7678 18.4446 18.8148 23.2418 15.5908C28.6533 11.9541 34.0648 8.31736 39.4763 4.68062C39.6695 4.55074 39.7866 4.38407 39.8462 4.20586ZM17.4366 12.8234C19.7037 11.1399 21.9986 9.49419 24.3 7.85819C25.8511 6.7555 31.7288 1.37329 33.7672 2.66487C34.1425 2.9027 34.506 2.82985 34.7629 2.61267C35.7812 2.94224 36.8062 3.24881 37.8262 3.57276C32.1627 7.37887 26.4992 11.185 20.8357 14.9911C16.0803 18.1869 11.5433 21.1496 8.08139 25.803C8.05642 25.8365 8.04072 25.8698 8.02132 25.9031C6.28609 25.3349 4.55243 24.7621 2.82215 24.1791C7.61749 20.2956 12.4816 16.5026 17.4366 12.8234ZM7.58515 57.7456C7.59634 59.3558 7.5987 60.9659 7.62261 62.5762C6.56521 62.0692 5.50831 61.5611 4.44809 61.06C1.83933 59.827 2.88172 50.6812 2.79099 48.2292L1.9619 25.8314C3.99909 26.5187 6.04696 27.1711 8.09084 27.8365C7.68888 37.4585 7.52625 47.0843 7.57711 56.7126C7.37578 57.0079 7.33427 57.3956 7.58515 57.7456ZM9.74986 33.2376C9.85493 34.4707 9.96001 35.7039 10.0651 36.937C10.1173 37.5494 10.6413 37.8375 11.1186 37.8129C13.0347 45.646 14.9509 53.4791 16.8671 61.3123C15.8023 60.5223 14.7276 59.7457 13.5942 59.0586C12.2576 58.2484 10.6239 57.947 9.411 56.9701C9.37173 49.0573 9.48767 41.1463 9.74986 33.2376ZM13.6466 65.5222C12.2612 64.8258 10.8689 64.1435 9.47389 63.4666C9.45043 62.0269 9.44464 60.5874 9.43209 59.1477C10.282 59.5846 11.198 59.9087 12.0865 60.3345C14.0574 61.2789 15.8004 62.8071 17.5493 64.101C17.8693 65.4094 18.1894 66.7178 18.5095 68.0262C16.8913 67.1866 15.2761 66.3414 13.6466 65.5222ZM23.324 70.5589C22.4427 70.0871 21.565 69.6093 20.6802 69.1439C17.9386 57.9366 15.197 46.7294 12.4555 35.5221C12.3537 35.1063 12.0563 34.9102 11.7326 34.8754C11.5952 33.2621 11.4577 31.649 11.3203 30.0358C11.253 29.2462 10.4071 28.9957 9.88418 29.2671C9.89515 28.9889 9.90106 28.7107 9.91242 28.4324C11.2208 28.8539 12.5351 29.2556 13.8459 29.6686C14.9719 43.7054 20.9561 56.6664 23.3639 70.4604C23.349 70.493 23.3346 70.5254 23.324 70.5589ZM42.6748 81.5351C36.9758 78.105 31.1986 74.8109 25.3502 71.6435C25.3811 71.5215 25.3891 71.3876 25.3664 71.2432C25.36 71.2023 25.3515 71.1618 25.345 71.121C26.3838 70.3725 27.3812 69.5832 28.3544 68.7702C32.426 72.088 36.8594 74.7593 41.6811 76.8141C41.7258 77.3373 42.3002 77.7912 42.865 77.6536C42.8016 78.9474 42.7382 80.2412 42.6748 81.5351ZM43.8803 56.9402C43.5791 63.086 43.2778 69.2318 42.9766 75.3777C38.1877 73.42 33.771 70.7981 29.7537 67.5435C35.2352 62.6586 39.7722 56.8474 44.1752 50.9234C44.0769 52.929 43.9786 54.9346 43.8803 56.9402ZM43.1589 49.2226C37.78 56.4794 32.2711 63.6763 24.9908 69.0971C24.6329 67.1758 24.2019 65.2712 23.7322 63.3756C32.0577 57.6749 38.3193 49.8097 44.59 42.0088C44.5918 42.2267 44.591 42.4403 44.5811 42.6417C44.4792 44.7229 44.3771 46.8041 44.2751 48.8853C43.9019 48.7614 43.4518 48.8275 43.1589 49.2226ZM50.5683 86.3927C48.5448 85.1162 46.5079 83.8627 44.4649 82.6198C44.7969 75.8472 45.1287 69.0747 45.4607 62.3021C45.6359 58.7275 45.8111 55.1529 45.9864 51.5783C46.0785 49.6969 47.5221 41.7744 46.2278 39.6848C46.5323 39.7178 46.8404 39.5991 47.0187 39.2273C47.0285 39.2069 47.0383 39.1864 47.0481 39.166C48.2591 39.5647 50.1907 40.3146 51.7784 40.6271C50.4957 55.8537 50.0919 71.1192 50.5683 86.3927ZM52.0112 38.1477C50.7166 38.2897 49.3362 38.0361 47.9483 37.6586C51.2599 35.6202 54.4606 31.6885 57.031 29.3235C61.8941 24.8486 66.5506 20.1536 71.0741 15.3373C71.0962 15.3217 71.1088 15.2973 71.1291 15.2794C71.1759 15.2296 71.2237 15.1807 71.2705 15.1308C71.4017 14.9909 71.4617 14.8397 71.4936 14.6878C71.6122 14.4712 71.7536 14.2689 71.9149 14.083C72.2942 14.1625 72.7444 14.0321 72.9104 13.6645C72.9189 13.6458 72.9185 13.6461 72.9246 13.6326C73.0066 13.62 73.0889 13.6079 73.1576 13.5783C74.2532 13.8518 75.3447 14.14 76.4421 14.4068L62.8937 28.6021C60.3839 31.2318 57.8742 33.8614 55.3644 36.491C54.8293 37.0516 54.2508 37.4369 53.6446 37.706C53.2339 37.1966 52.1985 37.3484 52.0112 38.1477ZM60.6368 69.8135C59.4989 71.2844 58.3233 72.7363 56.9857 73.9141C57.0618 72.996 57.1247 72.077 57.1963 71.1587C62.8783 57.6044 67.7751 43.7591 71.8583 29.6393C72.5898 28.937 73.3355 28.2478 74.1016 27.5777C74.1769 30.5921 74.2061 33.6063 74.2133 36.6204C74.1212 36.7178 74.029 36.8151 73.937 36.9124C73.5592 37.3117 73.6444 37.7988 73.916 38.1287C69.9849 48.8219 64.1525 58.7129 60.6618 69.5849C60.6353 69.6674 60.642 69.7383 60.6368 69.8135ZM58.2672 36.5525C59.4735 35.1304 60.6184 33.6549 61.6872 32.5351C65.7369 28.2921 69.7865 24.049 73.8362 19.806C73.917 21.6109 73.9815 23.4159 74.0374 25.2208C73.4694 25.6908 72.9202 26.1783 72.3719 26.6667C71.9701 26.1396 70.9624 26.0989 70.7265 26.9337C70.5629 27.5127 70.3883 28.0881 70.222 28.6662C66.0223 32.7504 62.3401 37.3189 58.722 41.949C58.7624 40.4292 58.8152 38.91 58.8431 37.3895C58.8514 36.9399 58.5929 36.662 58.2672 36.5525ZM58.6407 45.0094C58.6639 44.985 58.688 44.965 58.7103 44.9365C62.0581 40.6409 65.4138 36.3545 69.1324 32.408C65.8043 43.5497 61.9647 54.521 57.6257 65.3069C58.0819 58.548 58.4238 51.7821 58.6407 45.0094ZM55.104 74.338C55.0736 74.7016 55.0507 75.0657 55.0196 75.4293C54.7108 75.7256 54.7333 76.1201 54.9331 76.4357C54.7015 79.0912 54.458 81.746 54.1888 84.399C54.1788 84.4975 54.2002 84.5754 54.2154 84.6574C53.6144 85.2219 53.0191 85.7919 52.4126 86.3511C51.9393 71.1167 52.3389 55.8902 53.6154 40.7023C53.7473 40.6699 53.8691 40.628 53.9715 40.568C55.007 39.9614 56.0135 39.04 56.9856 38.0004C56.7732 48.939 56.2226 59.8605 55.3801 70.7633C55.0695 71.5018 54.7675 72.2436 54.452 72.9803C54.183 73.6085 54.6099 74.1763 55.104 74.338ZM73.3072 64.7647C67.8844 71.0431 62.177 77.0598 56.1857 82.8023C56.3908 80.7228 56.582 78.6423 56.7643 76.5612C56.8686 76.4702 56.9487 76.361 57.011 76.2403C59.9657 74.0855 62.0256 70.6404 64.4203 67.9358C67.2633 64.725 70.3917 61.7803 73.6588 59.0061C73.5552 60.9259 73.4387 62.8456 73.3072 64.7647ZM73.4976 56.7276C70.1372 59.5109 66.9792 62.4827 63.9961 65.6672C63.9944 65.669 63.9927 65.6712 63.9909 65.673C67.0002 57.7737 70.9781 50.2776 74.1935 42.4599C74.1359 47.1674 73.9982 51.874 73.7733 56.5789C73.6798 56.6157 73.5859 56.6544 73.4976 56.7276ZM79.7787 56.9848C78.3099 58.8247 76.8109 60.6375 75.2949 62.4347C75.8127 54.1682 76.051 45.8952 76.0522 37.6202C76.1322 37.3948 76.2168 37.1714 76.2948 36.9452C76.416 36.5942 76.2899 36.2819 76.0605 36.0685C76.048 32.727 76.0029 29.3852 75.9064 26.0433C75.9254 26.028 75.943 26.0113 75.9621 25.996C76.4826 25.5777 76.2964 24.9857 75.8706 24.6776C75.8091 22.7741 75.7355 20.8706 75.6462 18.9671C75.6315 18.6539 75.4883 18.429 75.2915 18.2812C76.2452 17.2819 77.1989 16.2827 78.1526 15.2835C78.844 29.084 79.5355 42.8844 80.2269 56.6849C80.0696 56.7207 79.9148 56.8143 79.7787 56.9848Z" fill="black"/>
</svg>
