<svg width="75" height="91" viewBox="0 0 75 91" fill="none" xmlns="http://www.w3.org/2000/svg">
<path d="M74.8681 39.2211C69.1477 27.9792 63.9682 16.1896 57.5732 5.3202C52.8333 -2.736 44.0979 -0.154847 37.2454 3.37861C37.0345 3.34142 36.8232 3.30484 36.594 3.30155C33.3574 3.25552 29.2445 6.65726 26.6644 8.32043C23.3497 10.457 20.1746 12.8122 17.1569 15.3508C10.6313 20.8401 4.97293 27.2183 0.148279 34.24C-0.465596 35.1335 0.986026 35.9742 1.59815 35.0938C1.60011 35.2789 1.65189 35.469 1.80425 35.6423C4.20509 38.3741 6.36023 41.2352 8.33342 44.2821C7.21282 55.4184 6.1902 66.5637 5.28094 77.7192C5.25818 77.9985 5.45478 78.3175 5.69776 78.4459C19.4146 85.6956 34.4759 89.6092 49.9784 89.9567C50.2033 90.2673 50.5977 90.4212 51.0028 90.1276C51.0063 90.125 51.0099 90.1226 51.0134 90.12C51.0819 90.1391 51.1475 90.1623 51.2297 90.1623H52.0714C52.8125 90.1623 53.0347 89.3816 52.7615 88.8838C55.1694 87.2011 57.6342 85.5462 59.8785 83.6854C62.2792 81.6949 62.0645 79.8538 62.1123 76.7662C62.2497 67.8904 62.3869 59.0148 62.5243 50.139C63.4378 49.2981 64.3513 48.4571 65.2648 47.6161L74.7365 40.241C75.0387 40.0056 75.0229 39.5252 74.8681 39.2211ZM30.0229 85.8374C25.8577 84.8689 21.7498 83.6204 17.7521 82.0993C17.7957 82.0076 17.8317 81.909 17.842 81.792C18.2767 76.8092 18.7114 71.8264 19.1462 66.8437C19.3499 64.5093 19.0655 61.228 19.84 59.0604C20.4205 57.4357 20.8572 56.9407 22.6756 57.0032C23.8328 57.043 25.5951 57.8943 26.6584 58.2189C29.1611 58.9827 32.5926 59.3572 33.283 62.4603C33.7313 64.4753 32.8291 67.7165 32.5959 69.7868C31.9887 75.178 31.1254 80.5277 30.0839 85.8503C30.0636 85.8456 30.0431 85.8421 30.0229 85.8374ZM50.0866 78.6464C49.9412 81.0222 50.1194 83.5576 49.7485 85.9037C49.5071 87.4309 49.9285 87.8502 48.2705 88.2401C47.4217 88.4396 46.159 88.1506 45.2886 88.0943C40.7291 87.7991 36.1972 87.1503 31.729 86.1976C33.1567 78.903 34.3002 71.5068 34.8379 64.0907C35.0021 61.8267 35.2781 60.2196 33.4197 58.7038C31.5268 57.1596 27.8018 56.808 25.5127 56.1094C21.9858 55.0329 18.9237 53.7531 18.2176 58.3154C17.0419 65.9117 16.8393 73.8146 16.1838 81.4783C14.0478 80.6218 11.9365 79.7046 9.86872 78.6942C7.0433 77.3137 7.11609 75.827 7.35969 72.9237C8.15311 63.4666 9.0375 54.0178 9.98672 44.5751C13.327 39.1882 17.1167 34.1202 21.4398 29.4799C23.5405 27.2251 25.7481 25.0709 28.0582 23.0308C31.0485 20.3902 31.458 19.5386 34.2986 22.6868C41.8178 31.0203 48.3994 40.1127 54.0645 49.7822C53.7751 49.8134 53.5186 49.9949 53.4514 50.3806C51.8214 59.7371 50.6667 69.165 50.0866 78.6464ZM59.5239 81.8412C58.6026 83.0749 56.4381 84.1181 55.1277 85.0681C53.8834 85.9701 52.639 86.8722 51.3946 87.7742C51.7247 75.5654 52.9125 63.4301 54.9821 51.3904C55.5201 52.3314 56.062 53.2699 56.5828 54.2214C56.8527 54.7145 57.518 54.7477 57.9047 54.3918C58.8753 53.4981 59.8461 52.6047 60.8167 51.7111C60.717 58.1537 60.6173 64.5966 60.5176 71.0392C60.4702 74.103 61.43 79.2887 59.5239 81.8412ZM61.9347 48.3958C60.4627 49.7509 58.9907 51.1059 57.5187 52.4611C50.609 40.0192 42.2163 28.5496 32.4334 18.2057C32.0954 17.8483 31.5914 17.9294 31.2431 18.2057C22.8059 24.898 15.626 32.8483 9.76546 41.85C9.46875 41.7259 9.08234 41.7707 8.81095 41.9916C7.02419 39.3613 5.10094 36.8487 2.99455 34.4521C2.75548 34.18 2.46708 34.1447 2.21136 34.2312C6.69244 27.8561 11.8918 22.0469 17.8242 16.9808C21.0612 14.2166 24.4963 11.6871 28.0911 9.40804C29.6304 8.43201 31.1981 7.50303 32.7935 6.62192C36.2845 4.6942 39.5147 7.00576 41.5879 9.90017C46.7171 17.061 51.7347 24.3017 56.6391 31.6183C59.1069 35.3001 62.1112 39.0324 64.1279 42.9859C64.9966 44.6889 64.8217 45.5608 64.0558 46.4405C63.6345 46.7686 63.2133 47.0966 62.792 47.4246C62.6157 47.562 62.5307 47.7214 62.5083 47.8821C62.3237 48.0442 62.134 48.2123 61.9347 48.3958ZM69.9615 41.842C68.9467 42.6322 67.9319 43.4224 66.9171 44.2125C61.5552 35.8921 56.0656 27.6552 50.4233 19.522C47.5339 15.357 44.6419 11.1844 41.6394 7.09987C40.9038 6.09918 40.1404 5.02749 39.181 4.27481C44.7539 1.52373 51.725 -0.578959 55.8052 5.61856C58.7815 10.1396 60.8991 15.4753 63.3532 20.2979C65.9617 25.4242 68.5702 30.5504 71.1787 35.6768C72.856 38.973 72.896 39.5571 69.9615 41.842Z" fill="black"/>
<path d="M22.1927 69.9627V70.3836C22.1927 71.4666 23.876 71.4685 23.876 70.3836V69.9627C23.876 68.8796 22.1927 68.8778 22.1927 69.9627Z" fill="black"/>
<path d="M41.4235 33.8788C40.4149 33.4162 38.0294 32.1364 35.4999 31.1157C35.4096 30.4451 34.6233 30.2728 34.1632 30.6079C30.7824 29.4157 27.5281 29.0175 27.2982 31.9485C26.8724 31.7755 26.3289 31.892 26.1842 32.4654C25.4111 35.5288 24.7853 38.6152 24.4008 41.7524C24.2222 43.2095 23.2888 46.6434 24.3425 47.9066C25.3139 49.0709 27.4398 49.1497 28.7413 49.4746C29.8367 49.7481 30.9321 50.0215 32.0275 50.2949C31.973 50.6019 31.9236 50.9091 31.8667 51.2159C31.6703 52.2748 33.2923 52.7288 33.4899 51.6634C33.5494 51.343 33.6011 51.0223 33.658 50.7019C35.4565 51.1508 37.2551 51.5997 39.0535 52.0487C39.4627 52.1508 40.0088 51.9183 40.0889 51.4608C41.0669 45.8777 41.6541 40.2721 41.8403 34.6056C41.8492 34.3344 41.6789 33.996 41.4235 33.8788ZM35.4765 33.1581C37.589 33.8276 39.7481 34.5316 40.0713 36.8862C40.2885 38.468 40.2285 40.2122 40.0337 41.9943C38.3397 41.6748 36.6608 41.3036 34.9915 40.8977C35.2342 38.3272 35.3981 35.7486 35.4765 33.1581ZM27.8073 32.9128C27.8243 32.8457 27.8138 32.7888 27.8162 32.7269C28.2932 32.8661 28.9307 32.6138 28.9797 31.9612C29.0532 30.9815 32.431 32.1067 33.8077 32.5956C33.74 35.2411 33.5846 37.8745 33.3445 40.4994C31.0026 39.8871 28.6838 39.1865 26.3839 38.4008C26.8739 36.2161 27.4919 34.1628 27.8073 32.9128ZM32.3053 48.6979C30.4857 48.3888 28.1529 48.1001 26.979 47.3C25.3916 46.2179 25.4883 43.176 26.0504 40.0608C28.4002 40.8602 30.7705 41.5685 33.1643 42.1872C32.9338 44.362 32.6589 46.5326 32.3053 48.6979ZM38.6127 50.2038C37.0573 49.8155 35.502 49.4273 33.9467 49.0392C34.2974 46.8926 34.5744 44.7407 34.8085 42.5848C36.4672 42.9832 38.1344 43.3511 39.8176 43.6644C39.4796 45.9255 38.9896 48.1875 38.6127 50.2038Z" fill="black"/>
</svg>
