<svg width="69" height="89" viewBox="0 0 69 89" fill="none" xmlns="http://www.w3.org/2000/svg">
<path d="M63.8198 17.5309C61.5339 13.2092 58.5646 8.97346 55.0665 5.54582C51.4975 2.04863 47.006 1.06836 42.1843 0.621505C32.3921 -0.286033 21.7211 -1.01025 13.1092 4.61157C12.8554 4.77725 12.7043 4.9791 12.634 5.1925C10.4655 6.06802 8.42345 7.26008 6.59069 8.838C1.26373 13.4243 -0.00230665 20.5352 3.1527e-06 27.2229C0.00270205 35.1228 1.34762 42.9516 3.78221 50.4574C5.91161 57.0223 9.16883 63.0561 12.5366 69.0501C15.914 75.0612 19.3484 81.1525 21.2001 87.8392C21.4336 88.6827 22.5115 89.3728 23.2824 88.6234C29.0725 82.9947 34.7212 77.1564 41.0512 72.1248C46.0462 68.1544 51.3446 64.5449 56.0411 60.2281C56.5389 60.4906 57.1575 60.4392 57.5316 59.8035C57.9581 59.0788 58.358 58.3417 58.7314 57.5937C58.7974 57.5246 58.8653 57.4577 58.9309 57.3882C63.7497 52.2806 67.3074 46.2107 68.282 39.1797C69.3163 31.7184 67.2967 24.1042 63.8198 17.5309ZM23.0713 85.2584C20.9365 78.7326 17.5474 72.7559 14.1915 66.7741C10.3089 59.8532 6.88093 52.8268 4.86909 45.115C2.94644 37.7449 1.94062 29.736 2.83848 22.1381C3.24604 18.6896 4.34045 15.3678 6.49644 12.6132C8.62415 9.89464 11.7749 8.13999 14.9845 7.02336C20.1786 5.21639 25.9178 5.58567 31.275 6.28468C36.1333 6.91859 41.4302 7.64633 45.1883 11.0788C45.4585 11.3257 45.7416 11.4148 46.0058 11.3929C48.9848 14.7552 52.0277 18.0703 54.5359 21.8103C56.9539 25.4156 58.5615 29.5232 59.4287 33.7651C60.9587 41.2486 59.986 49.2674 56.6197 56.1298C52.1584 60.7496 46.7855 64.4963 41.7045 68.3707C35.0161 73.4708 29.0754 79.3926 23.0713 85.2584ZM65.6968 31.1771C66.6429 37.898 65.0794 44.3428 61.5388 49.9666C62.818 44.8223 63.0107 39.4195 62.1062 34.1293C61.3525 29.7206 59.7486 25.457 57.4393 21.6317C54.6544 17.0186 50.9202 13.0969 47.3772 9.07232C47.0555 8.70691 46.656 8.5923 46.2805 8.64236C43.8801 6.61965 40.944 5.55725 37.9128 4.8256C34.2817 3.94926 30.4772 3.49452 26.7552 3.25499C25.7527 3.19046 24.7432 3.1613 23.7331 3.16966C27.941 2.41167 32.3562 2.48883 36.5734 2.74958C40.1606 2.97139 43.9265 3.09669 47.4159 4.01595C51.1536 5.00066 53.6548 7.55554 56.0217 10.4649C60.8939 16.4536 64.6116 23.4682 65.6968 31.1771Z" fill="black"/>
<path d="M48.5167 26.7563C46.8701 21.865 43.249 17.1386 38.6762 14.6904C36.3628 13.4518 33.905 12.7153 31.2658 12.9459C28.5631 13.182 26.1219 14.8139 23.9038 16.2346C23.7103 16.3585 23.5775 16.5037 23.4928 16.6589C21.1145 18.237 19.2169 20.6049 18.2294 23.2934C15.904 29.6238 18.4451 37.1869 23.0463 41.8242C28.1769 46.995 35.6582 46.7902 41.7195 43.375C44.4636 41.8289 46.7326 39.6464 48.2298 36.8711C49.9351 33.7099 49.6245 30.0467 48.5167 26.7563ZM21.7238 35.6077C18.7052 29.6665 19.4168 21.6907 25.7381 18.2836C27.0021 17.6024 28.3645 17.2465 29.7542 17.2162C29.4253 17.6378 29.1258 18.0504 28.8611 18.4232C27.2785 20.651 26.2232 23.2624 25.5876 25.9077C24.8475 28.988 24.7071 32.1191 24.8176 35.2745C24.8721 36.8275 25.0228 38.3766 25.1989 39.9198C25.2183 40.0895 25.2376 40.2594 25.2588 40.4284C23.7871 39.0632 22.6061 37.3441 21.7238 35.6077ZM46.1552 35.276C44.9253 38.2619 42.0768 40.4017 39.2608 41.7691C36.0031 43.3511 32.1682 43.9389 28.7241 42.6358C28.8234 42.2039 28.6992 41.7323 28.2178 41.4021C27.5289 40.9294 27.6575 38.8721 27.5809 38.1188C27.451 36.8425 27.3631 35.5596 27.3313 34.277C27.2706 31.8227 27.4644 29.365 27.9591 26.9597C28.3929 24.8501 29.2085 22.774 30.2982 20.9193C30.8319 20.0108 31.4694 19.1687 32.1555 18.371C32.8921 17.5145 34.0241 16.2436 35.2083 16.2033C35.3745 16.1976 35.5185 16.1659 35.6433 16.1152C35.9593 16.2326 36.2719 16.3599 36.5798 16.4949C40.1571 18.063 42.7379 21.1214 44.6331 24.4447C46.5185 27.7504 47.6654 31.6101 46.1552 35.276Z" fill="black"/>
</svg>
