<svg class="icon-delivery" version="1.1" id="Calque_1" xmlns="http://www.w3.org/2000/svg" xmlns:xlink="http://www.w3.org/1999/xlink" width="82" height="89" viewBox="0 0 100 100" style="enable-background:new 0 0 100 125;" xml:space="preserve"><polygon class="st0" points="42,6.9 11,29.4 11,65.8 61.3,93.1 90.6,62.5 88,19.7 "></polygon><path d="M89.5,18.5c-0.1-1.1-1.6-1.2-1.8-0.3c0,0-0.1,0.1-0.1,0.1l0,0c-10.2-2.5-20.2-5.2-30.3-8.2c-0.1-0.1-0.3-0.1-0.4-0.1
	c-4.8-1.4-9.6-3-14.4-4.5c-0.6-0.2-1,0.2-1.1,0.6c-0.2,0.1-0.3,0.1-0.5,0.3c-3.7,2.1-7.1,4.8-10.6,7.3c-6.9,5-13.7,10.2-20.3,15.6
	c-0.3,0.3-0.3,0.6-0.2,1c0.3,8.4,0.6,16.8,0.9,25.2c0.1,2.9-0.6,7.6,0.5,10.3c0.9,2.3,3,2.7,5.1,3.7c4.2,2,8.4,4.1,12.5,6.3
	c0.1,0.3,0.2,0.6,0.2,0.9c0.2,0.9,1.4,0.8,1.7,0.1c7.3,3.9,14.5,8,21.5,12.2c0,0,0,0.1,0,0.1c0,0.8,0.9,1.1,1.4,0.7
	c2.1,1.3,4.2,2.6,6.3,3.9c-0.4,0.8,0.7,1.7,1.5,1c0,0,0,0,0,0c0.3-0.1,0.5-0.2,0.6-0.5C72.2,85,81.7,75,90.3,64.1
	c0.6,0.3,1.4,0.1,1.4-0.8C91,48.4,90.2,33.4,89.5,18.5z M80.1,18.4c-0.3,0.3-0.6,0.7-0.7,1.1c-3.8,4-7.6,7.9-11.6,11.7
	c-2,1.9-4.1,3.8-6.2,5.7c-1.6,1.4-3.8,4-5.8,5.1c-0.2-0.1-0.4-0.1-0.7,0C55,42,54.8,42,54.7,42c-0.2,0-0.4,0.1-0.5,0.2
	c-0.4-0.1-0.8-0.2-1.2-0.3c-1.3-0.3-2.6-0.7-3.9-1c7.1-9,15.1-17.1,24.1-24.2C75.5,17.2,77.8,17.8,80.1,18.4z M37.7,44.4
	c-2.6-0.8-5.1-1-7.5-2.2c-1.5-0.8-2.7-1.5-4.3-1.8c-0.2-1.5-0.5-3.1-0.6-4.6c9.6,3,19.3,5.8,29.1,8.3c-0.1,0.2-0.1,0.3-0.1,0.5
	c-0.1,0.1-0.2,0.1-0.3,0.2c-1.3,1.6-2.7,3.3-4,5C46.4,47.2,41.9,45.7,37.7,44.4z M48.8,51.2C44.1,57,39,62.6,32.8,67
	c-2.2-8.2-5-16.3-6.6-24.6c1.4,0.5,2.7,1.3,4.1,2c1.6,0.8,3.5,1.1,5.3,1.4C40.1,46.7,45,48.5,48.8,51.2z M64.9,14.3
	c2,0.6,4.1,1.1,6.1,1.7c-8.9,7.2-16.8,15.3-23.8,24.3c-2.6-0.7-5.3-1.5-7.9-2.2c4.3-3.2,8-6.8,11.5-10.8c4.1-4.8,8.1-9.7,13.9-12.7
	C64.7,14.5,64.8,14.4,64.9,14.3z M57,12c1.8,0.5,3.7,1.1,5.5,1.6c-9.9,5.7-15.6,16.8-25,23.4c-0.2,0.1-0.3,0.2-0.3,0.4
	c-3.1-0.9-6.2-1.8-9.4-2.8C38.2,27.9,46.6,18.7,57,12z M49.4,9.7c1.8,0.5,3.5,1.1,5.3,1.6c-10,6.8-18.2,15.7-28.4,22.1
	c-0.2,0.1-0.4,0.4-0.4,0.6c-0.3-0.1-0.7-0.2-1-0.3c-0.2-0.2-0.5-0.3-0.8-0.3c-1.5-0.5-3-0.9-4.5-1.4c0-0.1,0-0.1,0-0.1
	c3.6-4.6,8.5-7.6,13.3-10.8c5.4-3.6,10.8-7.3,16.2-10.9C49.2,10,49.4,9.9,49.4,9.7z M27,18.3c2.3-1.7,4.6-3.3,6.9-5
	c1.6-1.1,7.4-6.5,9.5-5.2c0.4,0.2,0.7,0.2,1-0.1c1,0.3,2,0.6,3.1,1c-5.7,3.8-11.3,7.6-17,11.4c-4.8,3.2-9.3,6.2-12.8,10.8
	c0,0,0,0.1-0.1,0.1c-1.7-0.6-3.5-1.1-5.2-1.7C17.2,25.8,22.1,22,27,18.3z M17.2,63.2c0,1.6,0,3.2,0,4.8c-1.1-0.5-2.1-1-3.2-1.5
	c-2.6-1.2-1.6-10.4-1.7-12.8l-0.8-22.4c2,0.7,4.1,1.3,6.1,2c-0.4,9.6-0.6,19.2-0.5,28.9C16.9,62.5,16.9,62.9,17.2,63.2z M19.3,38.7
	c0.1,1.2,0.2,2.5,0.3,3.7c0.1,0.6,0.6,0.9,1.1,0.9c1.9,7.8,3.8,15.7,5.7,23.5c-1.1-0.8-2.1-1.6-3.3-2.3c-1.3-0.8-3-1.1-4.2-2.1
	C18.9,54.5,19.1,46.6,19.3,38.7z M23.2,71c-1.4-0.7-2.8-1.4-4.2-2.1c0-1.4,0-2.9,0-4.3c0.8,0.4,1.8,0.8,2.7,1.2
	c2,0.9,3.7,2.5,5.5,3.8c0.3,1.3,0.6,2.6,1,3.9C26.5,72.7,24.8,71.8,23.2,71z M32.9,76c-0.9-0.5-1.8-0.9-2.6-1.4
	C27.5,63.4,24.8,52.2,22,41c-0.1-0.4-0.4-0.6-0.7-0.6c-0.1-1.6-0.3-3.2-0.4-4.8c-0.1-0.8-0.9-1-1.4-0.8c0-0.3,0-0.6,0-0.8
	c1.3,0.4,2.6,0.8,3.9,1.2C24.5,49.2,30.5,62.1,32.9,76C32.9,76,32.9,76,32.9,76z M52.2,87c-5.7-3.4-11.5-6.7-17.3-9.9
	c0-0.1,0-0.3,0-0.4c0,0,0-0.1,0-0.1c1-0.7,2-1.5,3-2.4c4.1,3.3,8.5,6,13.3,8c0,0.5,0.6,1,1.2,0.8C52.4,84.4,52.3,85.7,52.2,87z
	 M53.5,62.4c-0.3,6.1-0.6,12.3-0.9,18.4c-4.8-2-9.2-4.6-13.2-7.8c5.5-4.9,10-10.7,14.4-16.6C53.6,58.4,53.5,60.4,53.5,62.4z
	 M52.7,54.7C47.4,62,41.8,69.2,34.6,74.6c-0.4-1.9-0.8-3.8-1.3-5.7c8.3-5.7,14.6-13.6,20.9-21.4c0,0.2,0,0.4,0,0.6
	c-0.1,2.1-0.2,4.2-0.3,6.2C53.5,54.2,53,54.3,52.7,54.7z M60.1,91.9c-2-1.3-4.1-2.5-6.1-3.8c0.3-6.8,0.7-13.5,1-20.3
	c0.2-3.6,0.4-7.1,0.5-10.7c0.1-1.9,1.5-9.8,0.2-11.9c0.3,0,0.6-0.1,0.8-0.5c0,0,0,0,0-0.1c1.2,0.4,3.1,1.1,4.7,1.5
	C60.1,61.3,59.7,76.6,60.1,91.9z M61.6,43.6c-1.3,0.1-2.7-0.1-4.1-0.5c3.3-2,6.5-6,9.1-8.3c4.9-4.5,9.5-9.2,14-14c0,0,0,0,0.1-0.1
	c0,0,0.1-0.1,0.1-0.1c0.1-0.1,0.2-0.3,0.2-0.4c0.1-0.2,0.3-0.4,0.4-0.6c0.4,0.1,0.8-0.1,1-0.4c0,0,0,0,0,0c0.1,0,0.2,0,0.2-0.1
	c1.1,0.3,2.2,0.6,3.3,0.8L72.5,34.1c-2.5,2.6-5,5.3-7.5,7.9c-0.5,0.6-1.1,0.9-1.7,1.2C62.8,42.7,61.8,42.8,61.6,43.6z M70.2,75.3
	c-1.1,1.5-2.3,2.9-3.7,4.1c0.1-0.9,0.1-1.8,0.2-2.8c5.7-13.6,10.6-27.4,14.7-41.5c0.7-0.7,1.5-1.4,2.2-2.1c0.1,3,0.1,6,0.1,9
	c-0.1,0.1-0.2,0.2-0.3,0.3c-0.4,0.4-0.3,0.9,0,1.2c-3.9,10.7-9.8,20.6-13.3,31.5C70.2,75.1,70.2,75.2,70.2,75.3z M67.8,42
	c1.2-1.4,2.4-2.9,3.4-4c4-4.2,8.1-8.5,12.1-12.7c0.1,1.8,0.1,3.6,0.2,5.4c-0.6,0.5-1.1,1-1.7,1.4c-0.4-0.5-1.4-0.6-1.6,0.3
	c-0.2,0.6-0.3,1.2-0.5,1.7c-4.2,4.1-7.9,8.7-11.5,13.3c0-1.5,0.1-3,0.1-4.6C68.4,42.4,68.2,42.1,67.8,42z M68.2,50.5
	C68.2,50.5,68.3,50.4,68.2,50.5c3.4-4.4,6.8-8.7,10.5-12.6C75.4,49,71.5,60,67.2,70.8C67.7,64,68,57.3,68.2,50.5z M64.7,79.8
	c0,0.4-0.1,0.7-0.1,1.1c-0.3,0.3-0.3,0.7-0.1,1c-0.2,2.7-0.5,5.3-0.7,8c0,0.1,0,0.2,0,0.3c-0.6,0.6-1.2,1.1-1.8,1.7
	c-0.5-15.2-0.1-30.5,1.2-45.6c0.1,0,0.3-0.1,0.4-0.1c1-0.6,2-1.5,3-2.6c-0.2,10.9-0.8,21.9-1.6,32.8c-0.3,0.7-0.6,1.5-0.9,2.2
	C63.8,79.1,64.2,79.7,64.7,79.8z M82.9,70.2c-5.4,6.3-11.1,12.3-17.1,18c0.2-2.1,0.4-4.2,0.6-6.2c0.1-0.1,0.2-0.2,0.2-0.3
	c3-2.2,5-5.6,7.4-8.3c2.8-3.2,6-6.2,9.2-8.9C83.1,66.4,83,68.3,82.9,70.2z M83.1,62.2c-3.4,2.8-6.5,5.8-9.5,8.9c0,0,0,0,0,0
	c3-7.9,7-15.4,10.2-23.2c-0.1,4.7-0.2,9.4-0.4,14.1C83.3,62.1,83.2,62.1,83.1,62.2z M89.3,62.5c-1.5,1.8-3,3.7-4.5,5.4
	c0.5-8.3,0.8-16.5,0.8-24.8c0.1-0.2,0.2-0.4,0.2-0.7c0.1-0.4,0-0.7-0.2-0.9c0-3.3-0.1-6.7-0.2-10c0,0,0,0,0.1,0
	c0.5-0.4,0.3-1-0.1-1.3c-0.1-1.9-0.1-3.8-0.2-5.7c0-0.3-0.2-0.5-0.4-0.7c1-1,1.9-2,2.9-3c0.7,13.8,1.4,27.6,2.1,41.4
	C89.6,62.2,89.5,62.3,89.3,62.5z"></path></svg>