<svg version="1.1" xmlns="http://www.w3.org/2000/svg" xmlns:xlink="http://www.w3.org/1999/xlink" x="0px" y="0px" viewBox="0 0 127.6 127.7" style="enable-background:new 0 0 127.6 127.7;" xml:space="preserve"><style type="text/css">
	.st0{display:none;}
	.st1{display:inline;}
	.st2{fill:none;stroke:#000000;stroke-width:2;stroke-linecap:round;stroke-miterlimit:10;}
	.st3{fill:none;stroke:#000000;stroke-width:2;stroke-linecap:round;stroke-linejoin:round;stroke-miterlimit:10;}
	.st4{display:none;fill:none;stroke:#000000;stroke-width:2;stroke-linecap:round;stroke-linejoin:round;stroke-miterlimit:10;}
</style><g id="Invider_M" class="st0"><g id="img" class="st1"><g><defs><path id="SVGID_1_" d="M13.2,24.1c0,0,14-20.1,28.5-20.7s31,10,44.9,21.9s27.1,27.1,30.1,38.5c3,11.6-5,22.4-12.7,33
					s-13.5,18.2-15,19.4s-18.1,5.5-43.2,5.1c-25.2-0.4-32.4-3.6-33.3-5.9c-1.2-3.1,11-5.7,26.2-11.3c17.3-6.4,41.3-15.5,52.1-23.9
					c18.4-14.4,12.9-25.4,4.9-32.9c-8.3-7.8-20.4-20.7-27.9-13.2c-4.1,4.1-14.8,15-14.8,15L13.2,24.1z"></path></defs><clipPath id="SVGID_2_"><use xlink:href="#SVGID_1_" style="overflow:visible;"></use></clipPath><g style="clip-path:url(#SVGID_2_);"><image style="overflow:visible;" width="912" height="609" transform="matrix(0.2976 0 0 0.2976 -84.8091 -35.5794)"></image></g></g></g><g id="contour" class="st1"><line class="st2" x1="52.8" y1="49.6" x2="13.3" y2="25"></line><path class="st2" d="M89.9,116.5c0,0,16.4-20.5,20.7-28.1c4.3-7.6,9.2-15.3,7.5-23.1C116.8,59.7,105.9,40.4,86,25
			C62.6,6.9,35-11.7,13.3,26.4"></path><path class="st2" d="M51.5,50.6c0,0,14.5-18.7,20.7-18.7c6.1,0,14.1,7.8,18.8,11.8c5.9,5.2,12.5,11.4,12.1,18.1
			c-0.4,6.8-5.3,15.6-17,22.3c-11.7,6.8-52.6,22.5-63.3,26.2c-10.6,3.7-15,7-2.9,8.6c12.1,1.6,32.5,3.7,45.9,2.3s27.7-4.7,27.7-4.7"></path></g></g><g id="Invider_M_1_" class="st0"><g id="Img_2_"><g class="st1"><defs><path id="SVGID_3_" d="M43,6.4C49.9,6,57.6,7.3,72.8,16.6s34.2,29.5,40.4,39s6.9,18.2,3.9,24.6s-21.4,32.5-22.8,34.6
					c-1.4,2.1-2,3.2-3,4c-1,0.8-76.4,2.2-77.5,1.1s-4.1-2.1,1-3.9c5.1-1.8,48.9-16.2,63.3-24.7s27.1-17.6,26.2-26.5
					c-0.9-8.9-4.2-13.2-12.3-19.6S76.2,33,72.2,34.3S54.2,51.4,53,52s-16.7-8.6-22.9-12.7S13.8,26.6,13.9,25.7
					C14,24.8,27.1,11.1,32.9,9.1S43,6.4,43,6.4z"></path></defs><clipPath id="SVGID_4_"><use xlink:href="#SVGID_3_" style="overflow:visible;"></use></clipPath><g style="clip-path:url(#SVGID_4_);"><image style="overflow:visible;" width="2049" height="2049" transform="matrix(7.489877e-02 0 0 7.489877e-02 -12.9118 -17.6769)"></image></g></g></g><g id="Contour_1_" class="st1"><path class="st3" d="M45,6.4c9.9-0.1,12.7,1,27.9,10.2s34.2,29.5,40.4,39s6.9,18.2,3.9,24.6s-14.2,22.9-15.6,25
			s-7.4,12.2-10.1,13.5c-5.4,2.6-54.3,1.7-66.2,1.5c-17.8-0.3-15.4-2.5-10.3-4.3c5.1-1.8,48.9-16.2,63.3-24.7s27.4-17.7,26.2-26.5
			c-1.1-7.9-4.3-12.4-12.3-19.6C84.2,38.2,76.2,33,72.2,34.3S54.2,51.4,53,52s-16.7-8.6-22.9-12.7S13.8,26.6,13.9,25.7
			C14,24.8,27.6,12.1,32.9,9.1C37.5,6.4,45,6.4,45,6.4z"></path><path class="st3" d="M11.9,25c6.7,2.4,13,5.9,22.1,11.9c9.3,6.2,15.4,11.1,20.2,16.4"></path></g></g><g id="Invider_S"><g id="Img" class="st0"><g class="st1"><defs><path id="SVGID_5_" d="M86.3,14.6c10.7,7,17.6,19,16.3,33.4c-1.3,14.4-9.9,33.6-10.7,39.8c-1.7,12.6,5.1,24.1,4.2,26.9
					c-0.9,2.8-23.7,6.6-35.5,6.6c-10.2,0-16.8-1.4-20.7-3c-4.9-2-7.5-3.6-7.5-5.2c0-2.5,23.1-22.6,28.1-27.8
					c5-5.2,18.5-15.9,24.4-31.3c4-13.7-2.1-15.9-2.1-15.9s-2.1,7.5-7.3,15.7c-3,4.7-8,12.2-10.5,12.6c-2.4,0.4-17.5-7.8-25-14
					C24.4,39.4,18,33.1,18.3,30.9c0.2-2.2,16.5-19.7,30.6-23C60,5.2,72.3,5.4,86.3,14.6z"></path></defs><clipPath id="SVGID_6_"><use xlink:href="#SVGID_5_" style="overflow:visible;"></use></clipPath><g style="clip-path:url(#SVGID_6_);"><image style="overflow:visible;" width="1000" height="563" transform="matrix(0.262 0 0 0.262 -75.1264 -9.5578)"></image></g></g></g><g id="Contour"><path class="st2" d="M86.3,14.6c10.7,7,17.6,19,16.3,33.4c-1.3,14.4-9.9,33.6-10.7,39.8c-1.7,12.6,5.1,24.1,4.2,26.9
			c-0.9,2.8-23.7,6.6-35.5,6.6c-10.2,0-16.8-1.4-20.7-3c-4.9-2-7.5-3.6-7.5-5.2c0-2.5,23.1-22.6,28.1-27.8
			c5-5.2,18.5-15.9,24.4-31.3c4-13.7-2.1-15.9-2.1-15.9s-2.1,7.5-7.3,15.7c-3,4.7-8,12.2-10.5,12.6c-2.4,0.4-17.5-7.8-25-14
			C24.4,39.4,18,33.1,18.3,30.9c0.2-2.2,16.5-19.7,30.6-23C60,5.2,72.3,5.4,86.3,14.6z"></path><path class="st2" d="M16.6,31.5c0,0,9.9-0.4,24.1,10.3C54.1,52,63.6,60.2,65.7,67"></path></g></g><g id="cupola" class="st0"><g id="Img_1_" class="st1"><g><defs><path id="SVGID_7_" d="M71.4,47.3L70,49.7c0,0,1.9,1.8,2.5,3.8c0.6,2,0.6,7.1,0,8.4s-1,2.2-1,2.2s7.7,11.7,8.8,13.4
					c1.1,1.7,12.2,19.1,14.7,23.4s8,13.3,8.1,13.8c0.1,0.5,0.5,1.2-0.3,1.7c-0.8,0.5-1.8-0.7-2.6-1.5c-0.7-0.9-7.9-10.8-14.6-19.7
					s-17.1-23.4-18-24.8c-0.9-1.4-1.3-2-1.3-2s-2.8,1.8-4.4,1.9c-1.7,0.1-2.8,0.1-2.8,0.1l-0.7,0.8c0,0-0.9,14.1-2.4,28.3
					c-1.5,14.2-2.2,22-2.7,23.4s-1.7,3.1-2.2,0.9s-0.7-14.6-0.5-20.6c0.3-6,0.5-19.7,0.5-19.7s-6.3,10.7-8.2,13.4
					c-2,2.7-10.9,17-11.9,17.9c-1,0.9-2.6,0.7-1.8-1.1c0.8-1.8,6.8-13.9,8.2-16.6c1.4-2.7,5.3-10.8,8.5-16.4
					c3.2-5.7,5.9-10.4,5.9-10.4l0.1-3.4c0,0-3.4-2.9-3.9-5.9c-0.5-3,0.1-6.3,0.1-6.3s-12.4,3.8-16.3,5s-11.3,3.6-11.9,3.5
					c-0.6-0.1-2.4-2.8-2.6-3.8s-4.8-19.6-3.9-26.1s4.3-10.4,5.8-11.9c1.5-1.5,9.6-7.1,21.4-10.9s23.9-8,31.4-8
					c7.5,0,11.8,3.1,13.1,4.1c1.3,1,6.2,8.2,8.3,12.8s5.7,13.7,6.3,15.7c0.5,2,0.5,2.9-0.5,3.4s-12.8,3.8-16.2,4.8
					C79.5,44.4,71.4,47.3,71.4,47.3z"></path></defs><clipPath id="SVGID_8_"><use xlink:href="#SVGID_7_" style="overflow:visible;"></use></clipPath><g transform="matrix(1 0 0 1 0 -9.536743e-07)" style="clip-path:url(#SVGID_8_);"><image style="overflow:visible;" width="2320" height="1537" transform="matrix(9.776560e-02 0 0 9.776560e-02 -58.5312 -13.2661)"></image></g></g><path class="st3" d="M94.1,21.3"></path></g><g id="contour_1_" class="st1"><path class="st4" d="M58.2,43.6l-1.1,2c0,0,1.5,1.5,2,3.1c0.5,1.6,0.5,5.8,0,6.9c-0.5,1.1-0.8,1.8-0.8,1.8s6.3,9.6,7.2,11
			c0.9,1.4,10,15.6,12.1,19.1c2.1,3.5,6.6,10.8,6.7,11.3s0.4,1-0.3,1.4c-0.7,0.4-1.5-0.6-2.1-1.3c-0.6-0.7-6.4-8.8-11.9-16.1
			c-5.5-7.3-14-19.1-14.8-20.3c-0.8-1.2-1.1-1.7-1.1-1.7s-2.3,1.4-3.6,1.5s-2.3,0.1-2.3,0.1l-0.6,0.7c0,0-0.7,11.5-1.9,23.1
			s-1.8,18-2.2,19.1c-0.4,1.1-1.4,2.5-1.8,0.8c-0.4-1.8-0.6-11.9-0.4-16.8c0.2-4.9,0.4-16.1,0.4-16.1s-5.1,8.8-6.7,11
			c-1.6,2.2-8.9,13.9-9.7,14.6c-0.8,0.7-2.1,0.6-1.5-0.9c0.7-1.4,5.6-11.3,6.7-13.5c1.2-2.2,4.3-8.8,6.9-13.4
			c2.6-4.6,4.8-8.5,4.8-8.5l0.1-2.8c0,0-2.8-2.4-3.2-4.8c-0.4-2.4,0.1-5.2,0.1-5.2s-10.1,3.1-13.3,4.1c-3.2,1-9.2,2.9-9.7,2.9
			c-0.5-0.1-2-2.3-2.1-3.1c-0.1-0.8-3.9-16-3.2-21.4c0.7-5.3,3.5-8.5,4.7-9.7c1.3-1.2,7.9-5.8,17.5-8.9s19.5-6.6,25.7-6.6
			s9.6,2.5,10.7,3.4c1.1,0.8,5.1,6.7,6.8,10.5s4.7,11.2,5.1,12.8c0.4,1.6,0.4,2.4-0.4,2.8c-0.8,0.4-10.5,3.1-13.2,4
			S58.2,43.6,58.2,43.6z"></path><g id="Calque_10"><path class="st3" d="M25.2,17.4c8.3-3.9,26.2-11.3,37.6-13.5s17.8-0.7,20.6,1.8S93.7,19.9,95.7,25c2,5.1,5.4,12.2,4,13
				c-1.4,0.8-57.4,18.4-62.4,20s-17,5.6-17.6,5.3c-0.5-0.4-2.5-2-4.1-11.1s-2.8-20.3,0-26C17.7,21.9,21.1,19.3,25.2,17.4z"></path><path class="st3" d="M49.8,51c0,0-3.9,6.2-1.9,10c2,3.9,5.6,13.1,14.8,9c9.3-4.2,13.2-9.8,9.5-17.4s-7-7-7-7"></path><path class="st3" d="M51.7,65.5c0,0-1.6,40-1.2,49.8c0.5,9.8,0.8,9.7,1.2,9.5c1.8-1.2,7.4-53.7,6.6-57.5
				C57.8,65.1,51.7,65.5,51.7,65.5z"></path><path class="st3" d="M65.8,66.7c0,0,10.4,15.9,19.5,28s16.3,22.8,17.5,21.6c1.2-1.2-8.9-17.2-10-19S70.8,62.2,70.3,62.2"></path><path class="st3" d="M50.4,73.5c0,0-19.9,37.2-20.6,38.7c-0.7,1.5-1.7,3-0.6,3c1.1-0.1,20.6-29.6,20.6-29.6"></path></g></g></g></svg>