<svg width="1000" height="237" viewBox="0 0 1000 237" fill="none" xmlns="http://www.w3.org/2000/svg">
<path d="M193.7 235.471C188.732 235.132 180.362 234.632 175.099 234.36C156.364 233.389 144.78 232.683 143.213 232.414C142.338 232.265 138.873 231.955 135.512 231.725C132.152 231.496 128.568 231.132 127.549 230.917C126.53 230.702 124.142 230.414 122.243 230.277C115.978 229.825 110.222 228.953 105.662 227.766C103.895 227.306 102.211 227.069 101.919 227.239C101.628 227.409 101.552 227.3 101.751 226.995C101.996 226.621 100.227 226.373 96.2754 226.229C93.0649 226.112 90.0839 225.87 89.6509 225.691C89.2179 225.512 88.7285 224.528 88.5634 223.504C88.2218 221.388 87.6625 221.062 82.5836 220.021C80.6907 219.633 77.7175 218.815 75.9766 218.203C74.2357 217.591 72.1825 216.954 71.414 216.786C69.2199 216.307 69.2587 215.131 71.5426 212.895C73.9444 210.543 75.8378 209.563 79.6913 208.68C82.1899 208.107 85.609 205.731 85.6391 204.547C85.6492 204.149 83.3593 203.376 80.098 202.677C79.2245 202.489 76.3608 202.149 73.7342 201.92C71.1076 201.691 67.6145 201.119 65.9718 200.648C64.1462 200.125 60.4754 199.728 56.5288 199.628C49.52 199.449 46.5229 198.619 46.0805 196.732C45.9307 196.093 44.6226 195.082 42.7548 194.161C41.0614 193.326 39.8039 192.448 39.9603 192.208C40.1167 191.969 39.9302 191.874 39.546 191.998C37.8201 192.551 35.2504 191.33 34.3405 189.525C33.3488 187.557 33.8158 185.743 35.3042 185.78C35.7327 185.791 36.0898 185.621 36.0978 185.401C36.1058 185.182 37.7277 184.975 39.7023 184.941C41.6769 184.907 43.3781 184.651 43.4828 184.372C43.5875 184.093 44.1178 183.876 44.6613 183.89C45.2048 183.904 45.8035 183.679 45.9917 183.391C46.18 183.103 46.5734 182.874 46.8659 182.881C47.1585 182.888 47.276 183.081 47.1271 183.309C46.9781 183.537 47.5578 183.732 48.4153 183.742C49.336 183.754 49.9816 183.476 49.9921 183.064C50.0021 182.68 50.2454 182.52 50.5334 182.709C50.8214 182.897 51.0628 182.823 51.0698 182.545C51.0907 181.724 49.7061 181.389 47.2575 181.622C45.9975 181.742 43.8965 181.541 42.5885 181.174C41.2804 180.808 39.8529 180.429 39.4163 180.333C38.9796 180.237 38.2044 179.967 37.6937 179.734C37.1829 179.501 36.287 179.423 35.7027 179.56C34.3438 179.878 33.8985 179.143 34.9492 178.315C35.3941 177.964 35.7564 177.887 35.7543 178.142C35.7523 178.397 35.9326 178.371 36.155 178.084C36.839 177.201 38.9883 176.238 38.9735 176.821C38.9655 177.116 39.2133 177.364 39.5231 177.372C39.8329 177.38 39.9743 177.194 39.8373 176.959C39.4839 176.353 43.7549 176.366 44.8246 176.974C45.3959 177.299 45.9346 177.269 46.3336 176.89C47.0502 176.209 49.1943 175.983 48.7691 176.633C48.2737 177.391 49.9846 177.14 50.6713 176.354C51.1603 175.794 51.6656 175.739 52.6396 176.138C54.3233 176.827 54.8954 176.826 53.8945 176.136C53.3065 175.73 53.5762 175.617 54.9705 175.684C55.9939 175.733 58.6333 175.549 60.8359 175.273C63.0385 174.998 65.4816 174.757 66.265 174.738C68.5941 174.68 67.9698 172.887 64.8618 170.707C63.0861 169.462 62.2464 168.535 62.4493 168.045C62.6474 167.565 62.9749 167.472 63.351 167.787C63.6758 168.059 64.4252 168.101 65.0163 167.88C65.6074 167.659 66.9836 167.484 68.0745 167.492C69.6097 167.502 70.2747 167.192 71.0174 166.119C72.2239 164.376 72.3979 163.389 71.7318 162.064C71.4426 161.489 71.4223 161.16 71.6867 161.333C71.9511 161.505 72.5065 160.77 72.921 159.698C73.3354 158.627 73.9445 157.581 74.2745 157.374C74.6044 157.167 73.9171 156.967 72.7471 156.928C71.1758 156.876 70.8318 156.728 71.4308 156.362C72.0459 155.986 71.8224 155.854 70.5061 155.814C69.5514 155.786 68.3602 155.535 67.8589 155.257C67.3576 154.979 64.7486 153.811 62.0611 152.661C56.6712 150.354 53.5364 149.779 42.0774 148.999C33.296 148.401 32.3095 148.268 30.9332 147.488C29.5322 146.695 22.2907 145.412 17.6913 145.142C15.2805 145 13.1372 144.514 11.6022 143.762C10.2994 143.123 8.04213 142.409 6.58608 142.175C3.69049 141.709 -0.0161471 140.29 5.29177e-05 139.654C0.00605292 139.433 1.39814 138.836 3.09441 138.327C5.70106 137.544 7.90809 137.439 17.3499 137.647C24.8921 137.813 29.1852 137.69 30.5649 137.267C32.5573 136.656 34.4658 136.797 39.3302 137.914C40.584 138.203 44.1502 138.547 47.255 138.679C50.3597 138.811 53.3557 139.179 53.9127 139.495C54.5081 139.834 55.7281 139.925 56.8743 139.716C57.9462 139.521 59.0334 139.418 59.2903 139.487C60.2391 139.741 76.4359 139.987 78.2406 139.775C81.3 139.415 85.1393 139.195 90.4299 139.076C93.1738 139.014 95.6845 138.711 96.0093 138.403C96.5866 137.854 95.6122 137.55 93.8615 137.732C93.4946 137.77 93.2014 137.526 93.21 137.189C93.219 136.853 92.8807 136.7 92.4592 136.849C92.0376 136.999 91.4062 136.757 91.056 136.313C90.5448 135.664 90.3297 135.638 89.964 136.184C89.5929 136.737 89.5105 136.733 89.5184 136.162C89.5244 135.719 89.1569 135.568 88.5192 135.753C87.8473 135.947 87.3981 135.729 87.1747 135.099C86.9901 134.579 87.0987 134.074 87.4159 133.977C88.236 133.727 89.6072 132.356 89.6221 131.771C89.6429 130.955 87.5627 129.032 87.009 129.355C86.7261 129.52 86.6394 129.305 86.8165 128.876C87.0612 128.284 86.8498 128.165 85.9349 128.38C84.9791 128.604 84.8043 128.485 85.0858 127.804C85.6104 126.535 84.4933 126.094 83.5805 127.21C83.0802 127.822 82.8969 127.886 83.0794 127.384C83.401 126.5 80.9496 125.012 80.043 125.541C79.7306 125.723 79.6649 125.601 79.8903 125.256C80.1076 124.924 80.032 124.645 79.7221 124.637C79.4123 124.629 79.1497 124.982 79.1385 125.421C79.1098 126.547 78.0573 126.393 78.0406 125.26C78.029 124.468 77.9583 124.487 77.5719 125.381C77.3216 125.96 77.1867 126.565 77.272 126.726C77.3574 126.887 76.9642 127.042 76.3982 127.07C75.1538 127.132 75.0918 126.71 76.2296 125.922C76.8906 125.464 76.4217 125.356 74.0717 125.425C72.298 125.478 71.2005 125.313 71.39 125.023C71.568 124.751 71.2339 124.644 70.6391 124.784C70.016 124.93 69.5741 124.773 69.5834 124.41C69.5924 124.066 69.3149 123.95 68.9672 124.153C68.5231 124.412 68.4641 124.222 68.7688 123.514C69.0073 122.96 69.2655 122.182 69.3425 121.785C69.5821 120.55 70.9453 120.222 72.5977 121.003C73.4655 121.413 73.8758 121.76 73.5095 121.774C72.2023 121.826 72.8428 122.865 74.2031 122.9C75.2037 122.925 75.5119 122.716 75.3101 122.147C75.1562 121.713 75.2747 121.216 75.5732 121.041C75.9201 120.839 75.8746 120.411 75.4471 119.857C74.8815 119.123 74.9077 119.041 75.6161 119.327C76.077 119.513 76.7976 119.434 77.2174 119.151C77.8202 118.745 77.7819 118.696 77.0355 118.916C76.2387 119.15 76.1518 118.968 76.4817 117.754C76.6969 116.962 77.0698 116.191 77.3103 116.04C78.0931 115.55 77.2717 113.447 76.4159 113.751C75.8609 113.947 75.6824 113.732 75.8213 113.033C75.9665 112.303 75.7333 112.059 74.9529 112.125C74.3661 112.175 74.1901 112.09 74.5618 111.936C74.9335 111.783 75.1175 111.452 74.9708 111.2C74.8242 110.949 75.1939 110.418 75.7926 110.021C76.3912 109.624 76.727 109.138 76.5387 108.939C76.3505 108.741 76.6553 108.587 77.2162 108.597C78.0533 108.612 78.0978 108.523 77.4647 108.099C76.9586 107.761 76.556 107.794 76.2936 108.195C76.0736 108.532 75.7455 108.651 75.5643 108.46C75.2322 108.111 76.2765 105.881 76.9949 105.406C77.5822 105.018 78.3163 102.596 77.7459 102.929C77.4764 103.086 76.9879 102.76 76.6603 102.205C76.1303 101.306 76.2236 101.21 77.5075 101.329C78.4169 101.414 78.9074 101.217 78.8343 100.796C78.7705 100.428 78.897 100.16 79.1156 100.2C80.2084 100.402 80.8479 100.103 80.8663 99.3836C80.8775 98.9447 81.1401 98.5921 81.4499 98.6C81.7597 98.608 81.8835 98.392 81.725 98.1202C81.5664 97.8484 81.7405 97.5125 82.1118 97.3737C82.519 97.2214 82.418 97.0953 81.857 97.0556C81.3457 97.0195 80.9319 96.8062 80.9376 96.5817C80.9436 96.3572 80.1104 96.1916 79.0865 96.2137C78.0627 96.2357 77.3632 96.0424 77.5321 95.7841C77.701 95.5258 77.3322 95.3015 76.7125 95.2857C76.0929 95.2699 75.7399 95.0214 75.9282 94.7335C76.1164 94.4455 75.9914 94.2028 75.6502 94.1942C75.2937 94.1852 75.1819 93.8107 75.3873 93.3138C75.686 92.5908 75.609 92.556 74.9174 93.1008C74.2389 93.6354 74.0939 93.6085 74.1106 92.9515C74.1218 92.511 74.6129 92.0375 75.202 91.8994C75.8466 91.7483 76.2843 91.201 76.3015 90.5245C76.3256 89.5781 76.098 89.4438 74.8595 89.6732C73.6526 89.8967 73.5552 89.8453 74.3167 89.3869C75.1788 88.8678 75.166 88.7331 74.136 87.4857C73.5263 86.7474 72.6718 86.1342 72.2369 86.1231C70.6362 86.0823 72.0823 85.559 74.2346 85.4001C75.5306 85.3044 76.3226 85.4399 76.136 85.7252C75.9601 85.9942 76.0556 86.2204 76.3481 86.2279C76.6407 86.2349 77.0074 86.0468 77.1629 85.8088C77.3185 85.5709 78.2341 85.441 79.1977 85.5202C80.1612 85.5994 81.2331 85.4537 81.5795 85.1964C81.9665 84.909 82.3371 84.9477 82.5407 85.2967C82.765 85.6812 83.1967 85.7014 83.8772 85.3592C84.4301 85.0812 85.4384 84.8882 86.118 84.9304C88.0061 85.0475 94.5386 84.6313 94.9955 84.3647C95.3515 84.157 101.177 83.565 102.959 83.5552C103.893 83.5502 103.855 81.0483 102.91 80.3098C102.48 79.9738 102.092 79.0339 102.048 78.2211C101.998 77.3031 101.717 76.832 101.307 76.9775C100.921 77.1147 100.769 76.9161 100.942 76.4985C101.134 76.0325 100.686 75.6496 99.6488 75.3939C97.9048 74.964 96.6863 73.7715 97.1954 72.9928C97.3788 72.7123 97.0533 72.6048 96.4491 72.7465C95.6856 72.9255 95.3841 72.7361 95.4006 72.088C95.4133 71.5877 94.9482 71.0409 94.367 70.873C93.1868 70.532 93.0129 69.8772 93.9563 69.3268C94.3475 69.0986 94.4296 69.1932 94.1764 69.5803C93.9544 69.9199 93.971 70.1685 94.2132 70.1327C95.3529 69.9645 95.9784 70.3003 95.9588 71.0698C95.9309 72.1664 97.2188 71.7734 97.476 70.6069C97.5847 70.114 97.475 69.7402 97.2311 69.7763C95.758 69.9949 94.9328 69.5582 94.9579 68.5733C94.9732 67.971 95.2214 67.6322 95.5093 67.8204C95.7973 68.0087 96.0454 67.6698 96.0608 67.0675C96.0761 66.4651 96.4221 65.9807 96.8296 65.9911C97.2372 66.0015 97.7226 65.6421 97.9084 65.1925C98.0942 64.7429 98.0243 64.5046 97.753 64.6628C97.4817 64.8211 97.1641 64.6457 97.047 64.2733C96.93 63.9008 96.8865 64.0165 96.9503 64.5304C97.0142 65.0443 96.8495 65.4593 96.5843 65.4526C96.3191 65.4456 96.1094 65.1552 96.1183 64.8067C96.1273 64.4582 95.784 64.6276 95.3557 65.1831C94.784 65.9245 94.7374 66.298 95.1801 66.5875C95.5264 66.8139 95.3151 66.9346 94.684 66.8708C93.708 66.7722 93.0552 65.3627 93.9966 65.3867C94.2039 65.3917 94.5353 64.6818 94.7332 63.8086C95.019 62.5476 95.3693 62.228 96.4362 62.2552C97.1749 62.274 97.7854 62.05 97.7928 61.7575C97.7998 61.4649 98.2851 61.2378 98.8702 61.2527C99.9968 61.2814 100.281 62.0637 99.3594 62.6011C98.3759 63.1749 99.2821 63.799 100.954 63.6995C103.131 63.57 103.665 62.9854 101.712 62.8688C100.191 62.778 100.187 62.7698 101.502 62.4316L102.841 62.087L101.661 61.4054C100.301 60.6202 100.121 59.6877 101.336 59.7186C101.792 59.7302 102.011 59.9754 101.823 60.2633C101.635 60.5513 101.734 60.7933 102.044 60.8012C102.354 60.8092 102.619 60.3368 102.634 59.7517C102.651 59.1073 103.016 58.6969 103.561 58.7108C104.344 58.7308 104.329 58.6317 103.447 57.9491C102.638 57.3225 102.377 57.3011 102.151 57.8431C101.979 58.2554 101.48 58.3722 100.88 58.1406C99.9527 57.7823 99.949 57.7064 100.817 56.8812C101.325 56.3982 102.083 56.0118 102.501 56.0224C103.188 56.0399 103.512 55.4021 103.368 54.3146C103.339 54.0943 103.688 53.9236 104.145 53.9352C104.601 53.9468 104.842 53.73 104.68 53.4534C104.298 52.7987 105.324 52.2043 106.034 52.6686C106.409 52.914 106.38 53.26 105.941 53.7622C105.48 54.2904 105.467 54.5012 105.896 54.5121C106.52 54.528 106.705 53.8885 106.568 52.1938C106.461 50.8692 107.483 50.3125 109.926 50.3648C111.101 50.3899 111.872 50.1652 111.803 49.818C111.727 49.4412 112.836 49.2501 114.877 49.2881C116.633 49.3208 118.375 49.1202 118.748 48.8423C119.122 48.5644 120.121 48.4941 120.968 48.6861C122.065 48.9346 122.715 48.7786 123.225 48.1445C123.62 47.6547 123.725 47.4293 123.459 47.6437C123.193 47.8582 122.326 46.9978 121.531 45.7317C120.737 44.4657 120.081 43.6464 120.073 43.9111C120.065 44.1759 119.59 43.9469 119.019 43.4026C118.447 42.8582 117.993 42.1508 118.01 41.8307C118.027 41.5105 118.275 41.6737 118.56 42.1933C118.845 42.7129 119.473 43.148 119.956 43.1603C120.605 43.1768 120.682 43.023 120.253 42.5707C119.933 42.2342 119.814 41.6123 119.989 41.1888C120.25 40.559 120.386 40.5501 120.739 41.1397C121.057 41.6704 121.176 41.5798 121.189 40.7965C121.212 39.466 120.004 37.7222 119.412 38.2313C119.169 38.4401 119.153 38.3123 119.375 37.9472C119.598 37.5822 120 37.427 120.268 37.6022C120.536 37.7775 120.761 37.6815 120.769 37.3889C120.776 37.0963 120.557 36.7097 120.282 36.5296C119.609 36.0898 120.277 34.5506 121.502 33.7155C122.048 33.3435 122.347 32.7865 122.167 32.4778C121.954 32.1125 122.277 32.0614 123.093 32.3316C124.117 32.6705 124.228 32.6155 123.7 32.0314C122.913 31.1625 122.889 29.5541 123.659 29.3191C124.188 29.1576 124.333 28.2413 124.168 26.102C124.125 25.5456 123.649 25.154 122.988 25.1323C122.352 25.1113 122.127 24.9359 122.461 24.7196C123.299 24.1767 123.841 22.5842 123.306 22.2348C123.055 22.0708 122.735 22.2346 122.595 22.5988C122.454 22.963 122.203 23.1308 122.036 22.9717C121.87 22.8126 121.954 22.3452 122.224 21.9331C122.637 21.301 122.881 21.3434 123.785 22.2038C124.831 23.2 124.857 23.2002 124.923 22.2118C124.961 21.6509 125.103 21.499 125.243 21.8713C125.381 22.2408 125.739 22.5493 126.038 22.5569C126.338 22.5649 126.455 22.2111 126.299 21.7716C126.143 21.332 126.186 21.0125 126.394 21.0615C126.601 21.1106 127.457 20.8883 128.295 20.5675C129.132 20.2467 130.034 20.1254 130.297 20.2978C130.561 20.4703 130.784 20.3438 130.792 20.0167C130.8 19.6896 131.027 19.5654 131.295 19.7406C131.563 19.9159 131.929 19.8348 132.108 19.5605C132.288 19.2862 132.848 19.0743 133.355 19.0897C134.824 19.1343 135.739 18.8644 138.192 17.6646C139.458 17.0449 140.826 16.5464 141.232 16.5567C141.637 16.567 142.073 16.2865 142.201 15.9332C142.45 15.2463 147.419 15.0375 147.402 15.7147C147.397 15.9305 148.055 15.9407 148.865 15.7373C150.462 15.3365 153.844 15.5058 156.291 16.1091C157.561 16.4221 157.952 16.266 158.555 15.2059C158.955 14.5011 159.147 13.6909 158.981 13.4055C158.551 12.6696 154.962 12.0758 149.099 11.7705C146.322 11.6259 143.528 11.2062 142.891 10.8377C142.253 10.4693 141.542 10.1946 141.309 10.2273C141.077 10.26 140.018 10.2363 138.956 10.1745C137.502 10.0901 136.963 9.79745 136.774 8.99134C136.57 8.12142 136.788 7.92399 137.936 7.93949C139.286 7.95769 139.305 7.92277 138.349 7.16056C137.454 6.44693 137.863 6.38882 142.22 6.61075C144.899 6.74724 147.088 7.00557 147.085 7.18479C147.082 7.36402 147.739 7.45067 148.546 7.37736C152.159 7.04917 157.667 6.73487 159.702 6.74079C160.926 6.74479 161.815 6.55513 161.678 6.32035C161.541 6.08557 161.862 5.86907 162.393 5.83924C164.49 5.72127 164.993 5.63636 165.922 5.24415C166.452 5.02004 167.368 3.94993 167.956 2.86614C169.041 0.865681 170.781 -0.268825 171.11 0.809165C171.236 1.22135 171.532 1.20832 172.094 0.76586C172.603 0.36468 173.023 0.328089 173.242 0.665869C173.606 1.22816 182.189 1.45147 182.755 0.91352C182.936 0.74083 183.362 0.841234 183.7 1.13663C184.352 1.70668 187.564 1.6996 188.548 1.12592C188.87 0.938012 189.954 1.03342 190.956 1.33794C191.959 1.64248 197.194 2.12546 202.589 2.41122C207.984 2.69699 215.507 3.12854 219.307 3.37023C239.785 4.67289 246.039 4.96899 258.78 5.23908C268.789 5.45125 272.74 5.70428 272.73 6.13239C272.719 6.56438 272.911 6.5746 273.426 6.16929C274.144 5.60333 277.35 5.53476 286.575 5.88813C289.353 5.99456 291.866 6.06774 292.159 6.05073C292.453 6.03373 295.331 5.85854 298.557 5.66143C301.782 5.46433 304.816 5.43696 305.3 5.60062C305.783 5.7643 306.31 5.69812 306.47 5.45363C306.629 5.20912 308.751 5.00705 311.183 5.0046C313.616 5.0026 316.981 4.79333 318.662 4.54052C320.342 4.28773 324.779 4.05182 328.522 4.01627C332.265 3.98057 337.005 3.9034 339.055 3.84461C341.106 3.78581 343.226 3.97997 343.766 4.27605C344.306 4.57213 344.621 4.59622 344.465 4.32955C344.305 4.05491 346.415 3.92139 349.332 4.02158C352.165 4.11888 355.327 3.93378 356.359 3.61028C357.777 3.16619 358.329 3.17527 358.612 3.64739C358.869 4.07495 358.996 4.0875 359.011 3.68699C359.025 3.32653 360.518 3.09328 362.894 3.08016C368.173 3.05106 384.241 3.40516 387.498 3.6224C388.959 3.7199 392.312 3.7055 394.95 3.5906C401.314 3.31321 411.189 3.40294 411.181 3.73809C411.17 4.15191 413.727 4.02841 417.998 3.40876C420.141 3.09792 422.538 3.03028 423.325 3.25849C425.167 3.79291 428.739 4.0163 428.749 3.59771C428.753 3.42027 429.415 3.29251 430.22 3.3138C445.099 3.70763 473.185 3.42481 474.133 2.87165C474.362 2.73827 474.543 2.84115 474.537 3.10033C474.53 3.35949 475.243 3.48478 476.12 3.37876C476.997 3.27273 478.133 3.37375 478.643 3.60363C479.816 4.1323 481.94 4.34774 481.686 3.91241C481.58 3.73176 485.611 3.73894 490.642 3.92841C495.673 4.11785 499.789 4.31384 499.787 4.36396C499.787 4.41406 501.28 4.5405 503.107 4.64492C504.934 4.74934 506.433 4.68052 506.438 4.49184C506.443 4.30323 507.281 4.35952 508.3 4.61693C509.32 4.87435 510.262 4.91939 510.395 4.71703C510.527 4.51465 512.804 4.41793 515.454 4.50211C518.327 4.59331 520.281 4.44041 520.294 4.12342C520.307 3.8099 520.47 3.83331 520.692 4.18043C521.158 4.91012 525.178 4.97507 525.73 4.26192C526 3.91393 526.132 3.91733 526.129 4.27213C526.129 4.56483 527.021 4.79913 528.12 4.79288C529.218 4.78688 530.665 5.00319 531.336 5.2741C532.066 5.56873 532.954 5.56631 533.548 5.2681C534.503 4.78749 536.737 4.63967 548.226 4.29653C551.155 4.20903 555.952 3.98307 558.884 3.79438C561.816 3.60569 568.405 3.52709 573.526 3.61971C578.646 3.71241 583.798 3.6327 584.974 3.44286C586.15 3.25296 592.618 3.19346 599.349 3.31063C615.155 3.58579 627.051 3.45826 631.789 2.96285C633.864 2.74587 638.324 2.27926 641.699 1.92594C645.075 1.57263 650.716 1.08106 654.235 0.833548C657.755 0.586028 661.714 0.291092 663.035 0.178122C667.36 -0.191968 671.76 0.0193823 675.318 0.768042C677.561 1.24013 684.382 1.64113 694.344 1.88648C702.885 2.09687 710.039 2.3728 710.241 2.4997C710.443 2.62662 719.46 3.11225 730.28 3.57888C741.1 4.04552 751.865 4.58874 754.201 4.78605C767.323 5.89386 777.284 6.34993 799.126 6.8429C802.198 6.9122 805.547 7.06547 806.569 7.18342C808.778 7.43852 819.006 8.16147 828.618 8.74201C849.393 9.99669 857.144 10.4008 871.143 10.9592C879.624 11.2974 887.398 11.7251 888.418 11.9096C889.438 12.0941 892.185 12.3815 894.523 12.5483C898.849 12.8569 903.788 13.5668 904.425 13.9715C904.619 14.0945 906.408 14.3616 908.402 14.5649C910.396 14.7683 913.457 15.1989 915.206 15.5218C916.954 15.8447 919.1 16.2255 919.974 16.3681C920.849 16.5106 923.507 17.1812 925.88 17.8583C928.254 18.5353 930.694 19.102 931.304 19.1176C931.913 19.1331 932.407 19.3453 932.401 19.5891C932.395 19.8329 932.689 20.0427 933.054 20.0553C936.646 20.1792 945.23 21.2164 946.577 21.6892C947.515 22.0185 948.77 23.0115 949.366 23.8957C950.544 25.6417 953.731 27.4308 956.671 27.9956C960.349 28.7024 966.716 29.4575 968.05 29.3453C968.8 29.2823 969.407 29.4889 969.399 29.8044C969.389 30.12 969.551 30.2205 969.753 30.0278C969.956 29.8351 970.609 30.159 971.204 30.7474C971.8 31.3359 973.882 32.7015 975.833 33.7822C978.674 35.3565 980.128 35.8086 983.148 36.057C987.136 36.385 987.841 36.8589 987.394 38.9114C987.11 40.2196 984.966 41.243 982.634 41.1836C981.964 41.1665 981.261 41.3882 981.073 41.6761C980.885 41.9641 979.919 42.179 978.927 42.1537C976.125 42.0823 971.722 43.0541 971.719 43.7441C971.719 44.8788 975.738 46.3677 979.698 46.6972C981.843 46.8757 986.826 47.2454 990.771 47.5188C998.739 48.071 999.573 48.237 999.968 49.349C1000.55 50.9885 993.103 56.3245 987.036 58.6163C985.078 59.3558 984.084 60.112 983.401 61.3825C982.229 63.5627 982.738 64.6269 985.894 66.594C987.119 67.3573 988.111 68.3478 988.1 68.7952C988.089 69.2426 988.429 69.9768 988.857 70.4268C990.07 71.703 989.739 72.9834 987.937 73.9867C987.029 74.4924 985.235 75.8499 983.95 77.0033C981.994 78.7592 981.189 79.1216 979.001 79.2299C977.075 79.3251 976.145 79.6629 975.468 80.5128C974.962 81.1473 974.659 81.8557 974.794 82.0868C974.929 82.318 974.794 82.5009 974.495 82.4933C974.195 82.4853 973.656 83.0108 973.297 83.6604C972.938 84.3099 972.829 84.6778 973.055 84.4779C973.617 83.9805 975.047 85.5625 974.622 86.2122C974.424 86.5147 974.687 86.6312 975.246 86.4896C975.777 86.3553 975.247 86.6973 974.057 87.2498C972.872 87.8023 971.14 88.2411 970.208 88.2251C969.276 88.209 967.894 88.4137 967.136 88.6799C966.123 89.0358 965.758 88.9913 965.759 88.5117C965.759 88.153 965.51 88.2633 965.205 88.7568C964.158 90.4518 965.119 92.3357 967.751 93.7555C969.115 94.4912 970.59 95.6708 971.027 96.3768C971.464 97.0828 972.757 97.9669 973.901 98.3414C978.161 99.737 978.756 102.511 975.005 103.484C972.673 104.089 971.525 105.781 972.18 107.645C972.521 108.615 972.502 109.056 972.12 109.046C971.137 109.021 970.164 110.323 970.187 111.632C970.21 112.927 970.168 112.948 965.661 113.869C964.925 114.02 963.589 114.752 962.692 115.496C961.795 116.24 960.394 117.175 959.578 117.573C958.763 117.971 958.087 118.642 958.077 119.063C958.052 120.051 956.12 121.024 953.819 121.209C951.304 121.411 950.265 122.038 950.123 123.442C950.005 124.612 952.048 127.164 953.125 127.192C953.782 127.209 956.725 130.343 956.708 131.009C956.685 131.919 954.752 132.495 951.032 132.7C949.004 132.812 946.142 133.128 944.671 133.401C942.235 133.855 933.544 135.107 931.563 135.29C930.735 135.367 930.325 137.256 931.132 137.277C931.372 137.283 931.318 137.729 931.011 138.268C930.705 138.808 930.617 139.42 930.816 139.63C931.483 140.331 931.07 147.083 930.314 147.832C929.919 148.223 928.494 148.589 927.146 148.645C924.971 148.736 923.515 149.535 923.991 150.376C924.084 150.539 923.817 150.972 923.4 151.339C922.982 151.706 922.645 151.829 922.65 151.613C922.655 151.397 922.371 151.494 922.018 151.829C921.55 152.274 921.191 152.276 920.688 151.837C920.185 151.398 919.564 151.403 918.386 151.856C915.671 152.9 916.514 154.524 920.162 155.277C924.241 156.119 925.149 156.502 924.508 157.111C924.334 157.276 920.547 157.396 916.093 157.377C906.62 157.336 905.526 157.742 904.655 161.627C904.373 162.883 903.552 164.794 902.831 165.875C901.64 167.659 900.698 169.988 900.61 171.363C900.592 171.656 899.77 171.951 898.784 172.02C897.554 172.107 896.899 172.464 896.698 173.159C896.537 173.716 896.197 174.035 895.941 173.868C895.686 173.701 895.471 173.808 895.464 174.106C895.457 174.403 894.351 175.254 893.008 175.995C889.198 178.1 888.63 179.881 891.407 181.018C892.705 181.55 892.758 181.952 891.823 184.18C891.137 185.814 892.861 186.914 898.562 188.48C904.08 189.996 905.617 190.994 904.001 192.012C902.997 192.644 895.789 191.84 884.454 189.831C879.319 188.92 877.149 189.28 875.957 191.24C874.768 193.194 873.542 193.75 870.005 193.94C867.073 194.097 864.314 195.477 864.28 196.804C864.259 197.618 866.602 198.446 869.316 198.585C871.357 198.689 873.752 200.152 872.558 200.564C872.183 200.694 871.513 201.145 871.069 201.568C870.624 201.991 870.264 202.193 870.268 202.019C870.285 201.375 867.008 203.311 866.344 204.337C865.517 205.615 862.719 207.334 861.616 207.242C858.877 207.011 855.231 207.279 855.22 207.711C855.198 208.535 857.944 210.968 858.518 210.633C858.807 210.464 858.876 210.582 858.672 210.895C858.467 211.207 858.544 211.622 858.841 211.816C859.138 212.011 859.231 212.399 859.048 212.68C858.864 212.961 859.003 213.557 859.356 214.004C860.358 215.277 859.337 215.76 855.268 215.937C853.221 216.026 850.463 216.307 849.139 216.563C847.815 216.819 843.368 217.459 839.256 217.986C835.144 218.513 830.436 219.366 828.793 219.883C827.114 220.411 824.363 220.785 822.51 220.738C820.698 220.692 817.47 221.096 815.337 221.637C811.676 222.565 810.422 222.577 792.85 221.864C782.614 221.449 772.208 220.951 769.724 220.759C763.252 220.258 755.297 219.48 754.205 219.241C753.691 219.128 747.469 218.724 740.379 218.344C730.241 217.8 725.95 217.791 720.286 218.3C716.325 218.657 709.046 218.991 704.11 219.043C699.175 219.094 694.261 219.221 693.192 219.324C689.499 219.678 676.835 220.199 669.403 220.301C665.303 220.358 657.874 220.526 652.893 220.675C647.913 220.825 637.85 220.941 630.531 220.933C623.213 220.926 616.505 220.981 615.625 221.055C614.745 221.129 608.73 221.208 602.259 221.231C595.788 221.254 589.798 221.339 588.948 221.42C587.312 221.577 583.282 221.751 569.02 222.281C557.826 222.697 549.42 223.25 542.479 224.028C539.461 224.366 536.077 224.619 534.959 224.591C533.841 224.562 532.227 224.746 531.372 224.999C530.517 225.252 528.304 225.545 526.454 225.651C524.605 225.756 520.76 226.257 517.91 226.765C515.06 227.272 511.288 227.779 509.529 227.89C507.77 228.001 504.529 228.279 502.328 228.508C500.126 228.736 496.886 229.007 495.127 229.109C493.368 229.211 489.323 229.597 486.14 229.967C482.956 230.337 478.395 230.732 476.004 230.844C473.613 230.957 470.281 231.194 468.599 231.371C466.916 231.547 462.602 231.665 459.011 231.633C455.42 231.6 450.682 231.746 448.481 231.957C444.136 232.374 434.89 232.641 427.707 232.556C425.219 232.526 422.102 232.676 420.779 232.889C419.456 233.102 410.352 233.2 400.547 233.106C390.742 233.012 382.204 233.027 381.572 233.141C380.94 233.254 375.787 233.39 370.121 233.444C364.454 233.497 358.619 233.586 357.153 233.641C355.688 233.696 350.297 233.78 345.173 233.829C340.048 233.877 333.817 234.021 331.325 234.148C328.834 234.276 326.558 234.31 326.267 234.224C325.976 234.138 322.261 234.239 318.011 234.447C313.761 234.655 307.887 234.897 304.957 234.983C302.027 235.07 298.79 235.217 297.763 235.311C296.736 235.405 292.661 235.553 288.708 235.64C284.755 235.727 281.398 235.87 281.248 235.957C281.098 236.044 277.98 236.194 274.318 236.29C270.656 236.385 267.179 236.547 266.591 236.65C265.514 236.838 227.818 236.568 211.511 236.256C206.683 236.164 198.668 235.811 193.7 235.472L193.7 235.471ZM85.7499 166.871C86.0151 166.861 85.8026 166.352 85.2777 165.741C84.4607 164.791 83.7885 164.64 80.6072 164.691C78.5633 164.724 76.8001 165.004 76.689 165.314C76.398 166.125 80.0639 167.125 82.8698 166.999C84.1886 166.939 85.4847 166.882 85.7499 166.871ZM99.0407 138.138C99.0437 138.009 98.8073 137.897 98.5148 137.89C98.2222 137.883 97.9764 138.13 97.9685 138.439C97.9605 138.749 98.1973 138.861 98.4945 138.688C98.7916 138.514 99.0375 138.267 99.0407 138.138ZM72.3168 121.577C72.3198 121.462 71.9543 121.216 71.5047 121.03C71.036 120.837 70.8202 120.92 70.9989 121.227C71.2984 121.74 72.3059 122.008 72.3168 121.577ZM78.6659 104.774C78.1538 104.239 78.0912 104.298 78.3605 105.064C78.5469 105.594 78.8369 105.896 79.0048 105.737C79.1727 105.577 79.0202 105.144 78.6659 104.774ZM83.0839 98.4989C82.5718 97.9641 82.5092 98.0237 82.7785 98.7891C82.9649 99.3188 83.2548 99.6216 83.4228 99.462C83.5907 99.3024 83.4382 98.869 83.0839 98.4989ZM79.1061 95.3459C78.9328 95.0488 78.6854 94.8029 78.5564 94.7997C78.4274 94.7967 78.3157 95.0331 78.3083 95.3256C78.3013 95.6182 78.5482 95.864 78.858 95.8719C79.1679 95.8799 79.2795 95.6431 79.1061 95.3459ZM100.863 70.5199C100.483 70.3565 100.024 70.3637 99.8424 70.5359C99.6611 70.7082 99.9721 70.8419 100.533 70.8331C101.154 70.8231 101.283 70.7005 100.863 70.5199ZM100.799 69.1244C100.002 68.4319 98.7409 66.3268 98.7565 65.7153C98.7615 65.5293 99.1222 65.6891 99.5587 66.0705C100.593 66.9741 101.22 66.3685 100.369 65.2884C99.6213 64.3388 98.2414 65.0407 98.207 66.3882C98.1963 66.8084 98.0009 67.0302 97.7727 66.8811C97.5445 66.7319 97.3112 67.0711 97.2543 67.6348C97.185 68.3215 97.491 68.6685 98.1816 68.6861C98.7485 68.7006 99.2063 68.9517 99.1988 69.2443C99.1918 69.5369 99.724 69.7823 100.383 69.7898C101.41 69.8015 101.469 69.707 100.799 69.1244ZM97.6361 67.9053C97.6391 67.7762 97.8852 67.5288 98.1824 67.3555C98.4796 67.1821 98.7162 67.2938 98.7083 67.6036C98.7003 67.9134 98.4546 68.1608 98.1621 68.1534C97.8695 68.1464 97.6328 68.0343 97.6361 67.9053ZM107.325 57.0761C107.375 56.4186 107.291 56.1785 107.141 56.5424C106.99 56.9063 106.654 57.0649 106.394 56.8949C106.133 56.7249 106.054 56.9609 106.216 57.4193C106.647 58.6334 107.222 58.4555 107.325 57.0761ZM104.6 56.572C105.196 55.6603 104.549 55.4475 103.797 56.308C103.365 56.8028 103.317 57.107 103.669 57.116C103.98 57.124 104.399 56.8791 104.6 56.572ZM122.331 38.7528C122.334 38.6378 121.981 38.3968 121.546 38.2172C121.112 38.0376 120.75 38.1225 120.743 38.4059C120.736 38.6893 121.089 38.9303 121.528 38.9415C121.966 38.9527 122.328 38.8677 122.331 38.7528ZM32.5488 178.29C32.5558 178.015 32.8047 177.648 33.1018 177.474C33.399 177.301 33.6326 177.532 33.621 177.988C33.6094 178.444 33.3605 178.811 33.0679 178.804C32.7754 178.797 32.5418 178.565 32.5488 178.29ZM55.3487 135.104C55.6656 134.802 56.2363 134.669 56.6168 134.806C57.0118 134.949 56.7645 135.184 56.0405 135.354C55.1498 135.563 54.9439 135.488 55.3487 135.104ZM62.9165 135.386C62.3703 135.013 62.3345 134.832 62.7985 134.792C63.9683 134.691 64.2532 134.614 64.9053 134.222C65.2564 134.011 65.7097 134.123 65.9127 134.471C66.1432 134.866 66.0548 134.956 65.6773 134.709C65.3192 134.475 65.0643 134.651 65.0518 135.143C65.028 136.078 64.0872 136.186 62.9165 135.386ZM60.2081 134.119C60.6209 133.727 61.0097 133.707 61.3471 134.062C61.6844 134.417 61.4704 134.621 60.7203 134.658C59.8624 134.701 59.736 134.567 60.2081 134.119ZM73.7929 126.317C73.8045 125.861 74.0496 125.642 74.3376 125.83C74.6255 126.018 74.8554 126.398 74.8484 126.673C74.8414 126.948 74.5962 127.167 74.3037 127.16C74.0111 127.153 73.7813 126.773 73.7929 126.317ZM74.611 117.442C75.5206 115.797 75.6127 115.75 75.4862 117.003C75.4246 117.612 75.0571 118.223 74.6694 118.361C74.1067 118.56 74.0949 118.375 74.611 117.442ZM78.2748 98.0077C77.8298 97.7167 78.0866 97.4728 79.0698 97.2524C80.852 96.8531 81.1928 97.1044 79.9016 97.8658C79.3684 98.1802 78.6363 98.244 78.2748 98.0077ZM89.939 62.2996C90.1203 62.1274 90.5795 62.1201 90.9596 62.2836C91.3796 62.4642 91.2504 62.587 90.6301 62.5968C90.0687 62.6058 89.7578 62.4719 89.939 62.2996ZM91.589 60.2126C91.7703 60.0403 92.2295 60.0331 92.6096 60.1966C93.0296 60.3772 92.9004 60.5 92.28 60.5097C91.7187 60.5187 91.4077 60.3848 91.589 60.2126ZM101.235 53.6386C101.226 53.0773 101.36 52.7663 101.532 52.9475C101.705 53.1288 101.712 53.5881 101.548 53.9681C101.368 54.3881 101.245 54.2589 101.235 53.6386ZM120.564 24.5457C120.092 24.2236 120.032 24.0129 120.413 24.0177C120.761 24.0227 121.188 24.2688 121.362 24.566C121.753 25.2367 121.569 25.2321 120.564 24.5457Z" fill="#F24726"/>
</svg>
