<svg version="1.1" id="Signature" xmlns="http://www.w3.org/2000/svg" xmlns:xlink="http://www.w3.org/1999/xlink" x="0px" y="0px" viewBox="0 0 988 337" style="enable-background:new 0 0 988 337;" xml:space="preserve"><path id="D" d="M57.9,139c180.7-23.4,302.5-25.8,388.7-27.7c86.2-2,245.7-0.3,332.3,8.9s114.3,12.6,143.3,27.4
	c29.1,14.9,23.4,32-21.1,35.7c-44.6,3.6-231.5,18.8-273.8,24.1s-175,14.5-259.3,24.4S75.4,281.4,75.4,281.4l-23.1-10.2
	c0,0,137.4-26.1,222.6-39s327.6-35.3,380.1-39.6c52.5-4.3,144.7-13.5,177.4-15.2c32.7-1.7,84.6-4.8,85.2-12.6
	c0.7-7.8-23.4-18.8-59.8-24.1s-107.7-17.8-253.7-17.5s-225.2,4.6-297.2,9.2S88.6,150.6,88.6,150.6L57.9,139z"></path><path id="H2" d="M206.1,315c0,0,59.1-64.8,141.7-162.4C427.5,58.3,471,12.2,471,12.2l26.4-4.3c0,0-61.5,61.8-142,156.6
	c-78.1,91.9-110,136.4-111.7,136.7C242.1,301.5,206.1,315,206.1,315z"></path><path id="H1" d="M310.5,306.8c0,0,30.7-28.2,130.8-159.6C518.6,45.6,545.7,11.9,545.7,11.9l28.4-4c0,0-55.3,55.1-133.8,160.6
	c-68.3,91.9-95.8,128.4-95.8,128.4L310.5,306.8z"></path><path id="en" d="M427.1,179.2c0,0,42.2-2.5,54-8c17.2-8,33-21.9,27.7-28.2s-15.2-6.6-26.4-0.3c-12.9,7.2-26.9,29.1-26.6,41.3
	c0.3,12.2,8.6,24.6,24.1,23c15.5-1.7,35.3-10.9,49.5-33.6c11.2-18,23.8-38.5,34-37.9c13.9,0.8,20.5,20.5,20.1,29.6
	c0,0,2.5-24.5,19.3-28.1c16.8-3.6,22,2.6,25.6,7.3c3.6,4.6,4,35,8.6,39c4.6,4,20,4.6,29.6-5.3s15-23,15.4-29.6
	c0.3-6.6,0-26.8,0-26.8h8.9c0,0,1.2,28.6-3,39.9c-6.8,18.4-24.1,30.1-31,33.1s-24.3,5.4-28.2,1.4c-4-4-3-30.5-5.6-40.3
	c-2.6-9.7-10.7-14.4-19-10.1s-13.5,30.1-14.5,38.3c-1,8.3-1.1,14.5-1.1,14.5L572,200c0,0,3.2-31.5,0.9-41.9
	c-2.8-12.4-12.2-18.1-23.1-0.7c-9.5,15.1-17.5,37.5-38.7,48.7c-19.5,10.3-40.6,12.6-51.9,5.9c-11-6.5-22.8-21.4-8.1-45.6
	c14.9-24.4,30.7-38.3,46.2-37c15.5,1.3,29.1,12.4,16.2,30.1c-17.2,23.5-72.2,28-92.8,29.1L427.1,179.2z"></path><path id="ri" d="M671.8,133.1c0,0,36-5.9,48.2-2c12.2,4,2.5,10.2-2.8,17.5c-5.3,7.3-9.2,24.3-2.8,31.9c6.2,7.3,19.2,6.4,30.2-0.5
	c12.4-7.8,16.8-23.2,21-41.9c4.2-18.7,12.2-14.2,12.2-14.2s-1.3,8.9-3.3,15.9c-2,6.9-7.9,30.8-17.2,41.9
	c-11.2,13.5-40.8,14.9-46.6,10.4c-9.9-7.6-12.7-21.5-7.8-33c5-11.6,10.1-22-0.8-20.6c-10.9,1.3-30.4,3-30.4,3V133.1z"></path><path id="point" d="M791.9,82.7c-3.5,0.5-9.4,16.3-10.7,21s-5.6,12.6,3.3,5.9s13.4-11.6,13.9-17.7C798.8,85.9,797.7,81.9,791.9,82.7
	z"></path><g><g><path d="M514.5,253.2h3.1l15.3,30.1h-3.2l-8.7-17.7c-1.8-3.6-3.3-6.7-4.8-10.4h-0.3c-1.5,3.7-3.1,6.8-4.8,10.4l-8.8,17.7h-3.1
			L514.5,253.2z M506.2,271.2h19.5v1.8h-19.5V271.2z"></path><path d="M560.7,255h-15.1v-1.8h33.3v1.8h-15.1v28.3h-3V255z"></path><path d="M597,253.2h25.7v1.8H600v11.4h19.1v1.8H600v13.3h23.4v1.8H597V253.2z"></path><path d="M644.7,253.2h2.9v28.3h22.7v1.8h-25.7V253.2z"></path><path d="M688.1,281.5h11.2V255h-11.2v-1.8h25.4v1.8h-11.2v26.5h11.2v1.8h-25.4V281.5z"></path><path d="M735.6,253.2h25.7v1.8h-22.7v11.4h19.1v1.8h-19.1v13.3H762v1.8h-26.4V253.2z"></path><path d="M781.1,253.2h12.4c8.6,0,14.3,2.2,14.3,7.9c0,5.5-5.7,8.3-14.3,8.3h-9.4v13.8h-3.1V253.2z M792.8,267.7
			c7.7,0,12-2.1,12-6.5c0-4.5-4.3-6.2-12-6.2h-8.6v12.7H792.8z M795.8,268.3l12.9,15h-3.5l-12.3-14.4L795.8,268.3z"></path></g></g></svg>